<?xml version="1.0" encoding="UTF-8"?><!DOCTYPE svg PUBLIC "-//W3C//DTD SVG 1.1//EN" "http://www.w3.org/Graphics/SVG/1.1/DTD/svg11.dtd"><svg xmlns="http://www.w3.org/2000/svg" xmlns:xlink="http://www.w3.org/1999/xlink"><defs>
<clipPath id="clip0_0_200">
<rect width="44" height="44" fill="white"/>
</clipPath>

<clipPath id="clip0_20162_82">
<rect width="44" height="44" fill="white" transform="translate(0 0.0297852)"/>
</clipPath>

<filter id="filter0_ii_0_545" x="9.97299" y="7.14087" width="23.0897" height="25.7208" filterUnits="userSpaceOnUse" color-interpolation-filters="sRGB">
<feFlood flood-opacity="0" result="BackgroundImageFix"/>
<feBlend mode="normal" in="SourceGraphic" in2="BackgroundImageFix" result="shape"/>
<feColorMatrix in="SourceAlpha" type="matrix" values="0 0 0 0 0 0 0 0 0 0 0 0 0 0 0 0 0 0 127 0" result="hardAlpha"/>
<feOffset dy="-0.15"/>
<feComposite in2="hardAlpha" operator="arithmetic" k2="-1" k3="1"/>
<feColorMatrix type="matrix" values="0 0 0 0 0 0 0 0 0 0 0 0 0 0 0 0 0 0 0.12 0"/>
<feBlend mode="normal" in2="shape" result="effect1_innerShadow_0_545"/>
<feColorMatrix in="SourceAlpha" type="matrix" values="0 0 0 0 0 0 0 0 0 0 0 0 0 0 0 0 0 0 127 0" result="hardAlpha"/>
<feOffset dy="0.15"/>
<feComposite in2="hardAlpha" operator="arithmetic" k2="-1" k3="1"/>
<feColorMatrix type="matrix" values="0 0 0 0 1 0 0 0 0 1 0 0 0 0 1 0 0 0 0.25 0"/>
<feBlend mode="normal" in2="effect1_innerShadow_0_545" result="effect2_innerShadow_0_545"/>
</filter>
<filter id="filter1_i_0_545" x="10.436" y="20.001" width="16.686" height="12.8607" filterUnits="userSpaceOnUse" color-interpolation-filters="sRGB">
<feFlood flood-opacity="0" result="BackgroundImageFix"/>
<feBlend mode="normal" in="SourceGraphic" in2="BackgroundImageFix" result="shape"/>
<feColorMatrix in="SourceAlpha" type="matrix" values="0 0 0 0 0 0 0 0 0 0 0 0 0 0 0 0 0 0 127 0" result="hardAlpha"/>
<feOffset dy="-0.15"/>
<feComposite in2="hardAlpha" operator="arithmetic" k2="-1" k3="1"/>
<feColorMatrix type="matrix" values="0 0 0 0 0 0 0 0 0 0 0 0 0 0 0 0 0 0 0.08 0"/>
<feBlend mode="normal" in2="shape" result="effect1_innerShadow_0_545"/>
</filter>
<linearGradient id="paint0_linear_0_545" x1="21.8008" y1="8.70897" x2="5.01879" y2="25.491" gradientUnits="userSpaceOnUse">
<stop stop-color="#00A0FF"/>
<stop offset="0.0066" stop-color="#00A1FF"/>
<stop offset="0.2601" stop-color="#00BEFF"/>
<stop offset="0.5122" stop-color="#00D2FF"/>
<stop offset="0.7604" stop-color="#00DFFF"/>
<stop offset="1" stop-color="#00E3FF"/>
</linearGradient>
<linearGradient id="paint1_linear_0_545" x1="33.8335" y1="20.001" x2="9.63759" y2="20.001" gradientUnits="userSpaceOnUse">
<stop stop-color="#FFE000"/>
<stop offset="0.4087" stop-color="#FFBD00"/>
<stop offset="0.7754" stop-color="#FFA500"/>
<stop offset="1" stop-color="#FF9C00"/>
</linearGradient>
<linearGradient id="paint2_linear_0_545" x1="24.8281" y1="22.2949" x2="2.06959" y2="45.0534" gradientUnits="userSpaceOnUse">
<stop stop-color="#FF3A44"/>
<stop offset="1" stop-color="#C31162"/>
</linearGradient>
<linearGradient id="paint3_linear_0_545" x1="7.29739" y1="0.176745" x2="17.4597" y2="10.339" gradientUnits="userSpaceOnUse">
<stop stop-color="#32A071"/>
<stop offset="0.0685" stop-color="#2DA771"/>
<stop offset="0.4762" stop-color="#15CF74"/>
<stop offset="0.8009" stop-color="#06E775"/>
<stop offset="1" stop-color="#00F076"/>
</linearGradient>

<clipPath id="clip0_0_172">
<rect width="44" height="44" fill="white" transform="matrix(1 0 0 -1 0.112793 44)"/>
</clipPath>

<clipPath id="clip0_0_263">
<rect width="44" height="44" fill="white"/>
</clipPath>

<clipPath id="clip0_0_228">
<rect width="44" height="43.4894" fill="white"/>
</clipPath>

<clipPath id="clip0_0_381">
<rect width="34" height="34" fill="white"/>
</clipPath>
</defs><symbol id="appstore" viewBox="0 0 120 40"><g fill="none">
<g id="Store=App Store, Style=Black">
<rect x="0.5" y="0.5" width="119" height="39" rx="6.5" fill="#31352B"/>
<rect x="0.5" y="0.5" width="119" height="39" rx="6.5" stroke="#C2C2C2"/>
<g id="App Store">
<path d="M81.5259 19.201V21.492H80.0898V22.9944H81.5259V28.0994C81.5259 29.8426 82.3144 30.5398 84.2983 30.5398C84.647 30.5398 84.979 30.4983 85.2695 30.4485V28.9627C85.0205 28.9876 84.8628 29.0042 84.5889 29.0042C83.7007 29.0042 83.3105 28.5892 83.3105 27.6429V22.9944H85.2695V21.492H83.3105V19.201H81.5259Z" fill="white"/>
<path d="M90.3234 30.6644C92.963 30.6644 94.5817 28.8963 94.5817 25.9661C94.5817 23.0525 92.9547 21.2762 90.3234 21.2762C87.6837 21.2762 86.0568 23.0525 86.0568 25.9661C86.0568 28.8963 87.6754 30.6644 90.3234 30.6644ZM90.3234 29.0789C88.7711 29.0789 87.8995 27.9417 87.8995 25.9661C87.8995 24.0071 88.7711 22.8616 90.3234 22.8616C91.8673 22.8616 92.7472 24.0071 92.7472 25.9661C92.7472 27.9334 91.8673 29.0789 90.3234 29.0789Z" fill="white"/>
<path d="M95.9666 30.49H97.7512V25.1526C97.7512 23.8826 98.7058 23.0276 100.059 23.0276C100.374 23.0276 100.906 23.0857 101.055 23.1356V21.3758C100.864 21.326 100.524 21.3011 100.258 21.3011C99.0794 21.3011 98.075 21.9485 97.8176 22.8367H97.6848V21.4505H95.9666V30.49Z" fill="white"/>
<path d="M105.486 22.7952C106.806 22.7952 107.669 23.7166 107.711 25.136H103.145C103.245 23.7249 104.166 22.7952 105.486 22.7952ZM107.703 28.0496C107.371 28.7552 106.632 29.1453 105.553 29.1453C104.125 29.1453 103.204 28.1409 103.145 26.5555V26.4559H109.529V25.8333C109.529 22.9944 108.01 21.2762 105.495 21.2762C102.946 21.2762 101.328 23.1107 101.328 25.9993C101.328 28.888 102.913 30.6644 105.503 30.6644C107.57 30.6644 109.014 29.6683 109.421 28.0496H107.703Z" fill="white"/>
<path d="M69.8223 27.1519C69.9599 29.3716 71.8097 30.7912 74.5628 30.7912C77.5052 30.7912 79.3464 29.3028 79.3464 26.9282C79.3464 25.0612 78.2967 24.0288 75.7501 23.4352L74.3821 23.0996C72.7647 22.7211 72.1108 22.2135 72.1108 21.3273C72.1108 20.2088 73.126 19.4775 74.6489 19.4775C76.0942 19.4775 77.0923 20.1916 77.2729 21.3359H79.1485C79.0366 19.2452 77.1955 17.774 74.6747 17.774C71.9646 17.774 70.1578 19.2452 70.1578 21.4564C70.1578 23.2803 71.1816 24.3643 73.4272 24.8892L75.0274 25.2763C76.6707 25.6635 77.3934 26.2313 77.3934 27.1777C77.3934 28.2789 76.2577 29.0791 74.7091 29.0791C73.0486 29.0791 71.8957 28.3306 71.7323 27.1519H69.8223Z" fill="white"/>
<path d="M51.3349 21.3011C50.1064 21.3011 49.0439 21.9153 48.4961 22.9446H48.3633V21.4505H46.645V33.4949H48.4297V29.1204H48.5708C49.0439 30.075 50.0649 30.6395 51.3516 30.6395C53.6343 30.6395 55.0869 28.8382 55.0869 25.9661C55.0869 23.094 53.6343 21.3011 51.3349 21.3011ZM50.8286 29.0374C49.3345 29.0374 48.3965 27.8587 48.3965 25.9744C48.3965 24.0818 49.3345 22.9031 50.8369 22.9031C52.3476 22.9031 53.2524 24.0569 53.2524 25.9661C53.2524 27.8836 52.3476 29.0374 50.8286 29.0374Z" fill="white"/>
<path d="M61.3317 21.3011C60.1032 21.3011 59.0407 21.9153 58.4929 22.9446H58.3601V21.4505H56.6418V33.4949H58.4265V29.1204H58.5676C59.0407 30.075 60.0617 30.6395 61.3483 30.6395C63.6311 30.6395 65.0837 28.8382 65.0837 25.9661C65.0837 23.094 63.6311 21.3011 61.3317 21.3011ZM60.8254 29.0374C59.3313 29.0374 58.3933 27.8587 58.3933 25.9744C58.3933 24.0818 59.3313 22.9031 60.8337 22.9031C62.3444 22.9031 63.2492 24.0569 63.2492 25.9661C63.2492 27.8836 62.3444 29.0374 60.8254 29.0374Z" fill="white"/>
<path d="M43.443 30.49H45.4906L41.0082 18.0752H38.9348L34.4523 30.49H36.4311L37.5754 27.1949H42.3073L43.443 30.49ZM39.8725 20.3293H40.0188L41.8169 25.5774H38.0658L39.8725 20.3293Z" fill="white"/>
</g>
<g id="Download on the">
<path d="M35.6511 8.71094V14.7H37.8135C39.5981 14.7 40.6316 13.6001 40.6316 11.6868C40.6316 9.80249 39.5898 8.71094 37.8135 8.71094H35.6511ZM36.5808 9.55762H37.7097C38.9507 9.55762 39.6853 10.3462 39.6853 11.6992C39.6853 13.073 38.9631 13.8533 37.7097 13.8533H36.5808V9.55762Z" fill="white"/>
<path d="M43.7967 14.7871C45.1165 14.7871 45.9258 13.9031 45.9258 12.438C45.9258 10.9812 45.1124 10.093 43.7967 10.093C42.4769 10.093 41.6634 10.9812 41.6634 12.438C41.6634 13.9031 42.4727 14.7871 43.7967 14.7871ZM43.7967 13.9944C43.0206 13.9944 42.5848 13.4258 42.5848 12.438C42.5848 11.4585 43.0206 10.8857 43.7967 10.8857C44.5687 10.8857 45.0086 11.4585 45.0086 12.438C45.0086 13.4216 44.5687 13.9944 43.7967 13.9944Z" fill="white"/>
<path d="M52.818 10.1802H51.9256L51.1205 13.6292H51.0499L50.1202 10.1802H49.2652L48.3355 13.6292H48.2691L47.4598 10.1802H46.555L47.8001 14.7H48.7174L49.6471 11.3713H49.7176L50.6515 14.7H51.577L52.818 10.1802Z" fill="white"/>
<path d="M53.8456 14.7H54.7379V12.0562C54.7379 11.3506 55.1571 10.9106 55.817 10.9106C56.477 10.9106 56.7924 11.2717 56.7924 11.998V14.7H57.6847V11.7739C57.6847 10.699 57.1286 10.093 56.12 10.093C55.4394 10.093 54.9911 10.396 54.7711 10.8982H54.7047V10.1802H53.8456V14.7Z" fill="white"/>
<path d="M59.09 14.7H59.9824V8.41626H59.09V14.7Z" fill="white"/>
<path d="M63.3384 14.7871C64.6582 14.7871 65.4675 13.9031 65.4675 12.438C65.4675 10.9812 64.6541 10.093 63.3384 10.093C62.0186 10.093 61.2051 10.9812 61.2051 12.438C61.2051 13.9031 62.0144 14.7871 63.3384 14.7871ZM63.3384 13.9944C62.5623 13.9944 62.1265 13.4258 62.1265 12.438C62.1265 11.4585 62.5623 10.8857 63.3384 10.8857C64.1104 10.8857 64.5503 11.4585 64.5503 12.438C64.5503 13.4216 64.1104 13.9944 63.3384 13.9944Z" fill="white"/>
<path d="M68.1263 14.0234C67.6407 14.0234 67.2879 13.7869 67.2879 13.3801C67.2879 12.9817 67.5701 12.77 68.1927 12.7285L69.2967 12.658V13.0356C69.2967 13.5959 68.7986 14.0234 68.1263 14.0234ZM67.898 14.7747C68.4915 14.7747 68.9854 14.5173 69.2552 14.0649H69.3257V14.7H70.1849V11.6121C70.1849 10.6575 69.5457 10.093 68.4126 10.093C67.3875 10.093 66.657 10.5911 66.5657 11.3672H67.429C67.5286 11.0476 67.8731 10.865 68.3711 10.865C68.9812 10.865 69.2967 11.1348 69.2967 11.6121V12.0022L68.0723 12.0728C66.9974 12.1392 66.3914 12.6082 66.3914 13.4216C66.3914 14.2476 67.0264 14.7747 67.898 14.7747Z" fill="white"/>
<path d="M73.213 14.7747C73.8355 14.7747 74.3626 14.48 74.6324 13.9861H74.703V14.7H75.558V8.41626H74.6656V10.8982H74.5992C74.3543 10.4001 73.8314 10.1055 73.213 10.1055C72.0716 10.1055 71.337 11.0103 71.337 12.438C71.337 13.8699 72.0633 14.7747 73.213 14.7747ZM73.4662 10.9065C74.2132 10.9065 74.6822 11.5 74.6822 12.4421C74.6822 13.3884 74.2174 13.9736 73.4662 13.9736C72.7108 13.9736 72.2584 13.3967 72.2584 12.438C72.2584 11.4875 72.7149 10.9065 73.4662 10.9065Z" fill="white"/>
<path d="M81.3444 14.7871C82.6643 14.7871 83.4736 13.9031 83.4736 12.438C83.4736 10.9812 82.6601 10.093 81.3444 10.093C80.0246 10.093 79.2111 10.9812 79.2111 12.438C79.2111 13.9031 80.0205 14.7871 81.3444 14.7871ZM81.3444 13.9944C80.5683 13.9944 80.1325 13.4258 80.1325 12.438C80.1325 11.4585 80.5683 10.8857 81.3444 10.8857C82.1164 10.8857 82.5563 11.4585 82.5563 12.438C82.5563 13.4216 82.1164 13.9944 81.3444 13.9944Z" fill="white"/>
<path d="M84.6548 14.7H85.5471V12.0562C85.5471 11.3506 85.9663 10.9106 86.6262 10.9106C87.2861 10.9106 87.6016 11.2717 87.6016 11.998V14.7H88.4939V11.7739C88.4939 10.699 87.9377 10.093 86.9292 10.093C86.2485 10.093 85.8003 10.396 85.5803 10.8982H85.5139V10.1802H84.6548V14.7Z" fill="white"/>
<path d="M92.6036 9.05542V10.2009H91.8856V10.9521H92.6036V13.5046C92.6036 14.3762 92.9979 14.7249 93.9898 14.7249C94.1642 14.7249 94.3302 14.7041 94.4754 14.6792V13.9363C94.3509 13.9487 94.2721 13.957 94.1351 13.957C93.691 13.957 93.4959 13.7495 93.4959 13.2764V10.9521H94.4754V10.2009H93.4959V9.05542H92.6036Z" fill="white"/>
<path d="M95.6732 14.7H96.5656V12.0603C96.5656 11.3755 96.9723 10.9148 97.7028 10.9148C98.3336 10.9148 98.6698 11.28 98.6698 12.0022V14.7H99.5622V11.7822C99.5622 10.7073 98.9687 10.0972 98.0058 10.0972C97.3251 10.0972 96.8478 10.4001 96.6278 10.9065H96.5573V8.41626H95.6732V14.7Z" fill="white"/>
<path d="M102.781 10.8525C103.441 10.8525 103.873 11.3132 103.894 12.0229H101.611C101.661 11.3174 102.121 10.8525 102.781 10.8525ZM103.889 13.4797C103.723 13.8325 103.354 14.0276 102.814 14.0276C102.101 14.0276 101.64 13.5254 101.611 12.7327V12.6829H104.802V12.3716C104.802 10.9521 104.043 10.093 102.785 10.093C101.511 10.093 100.702 11.0103 100.702 12.4546C100.702 13.8989 101.495 14.7871 102.789 14.7871C103.823 14.7871 104.545 14.2891 104.748 13.4797H103.889Z" fill="white"/>
</g>
<g id="Apple logo">
<path d="M24.769 20.3008C24.7907 18.6198 25.6934 17.0292 27.1256 16.1488C26.2221 14.8584 24.7088 14.0403 23.1344 13.9911C21.4552 13.8148 19.8272 14.9959 18.9715 14.9959C18.0992 14.9959 16.7817 14.0086 15.363 14.0378C13.5137 14.0975 11.7898 15.1489 10.8901 16.7656C8.95607 20.1141 10.3987 25.0351 12.2513 27.7417C13.1782 29.0671 14.2615 30.5475 15.6789 30.495C17.066 30.4375 17.584 29.6105 19.2583 29.6105C20.9171 29.6105 21.4031 30.495 22.8493 30.4616C24.3377 30.4375 25.2754 29.1304 26.1698 27.7925C26.8358 26.8481 27.3483 25.8044 27.6882 24.7C25.9391 23.9602 24.771 22.2 24.769 20.3008Z" fill="white"/>
<path d="M22.0373 12.2111C22.8489 11.2369 23.2487 9.98469 23.1518 8.72046C21.912 8.85068 20.7668 9.44324 19.9443 10.3801C19.14 11.2954 18.7214 12.5255 18.8006 13.7415C20.0408 13.7542 21.2601 13.1777 22.0373 12.2111Z" fill="white"/>
</g>
</g>
</g></symbol><symbol id="arrow-right" viewBox="0 0 24 24"><g fill="none">
<g id="fi-rr-arrow-small-right 1">
<g id="Group">
<path id="Vector" d="M13.121 6.293C12.9335 6.48053 12.8282 6.73484 12.8282 7C12.8282 7.26516 12.9335 7.51947 13.121 7.707L16.413 11L6 11.007C5.73478 11.007 5.48043 11.1124 5.29289 11.2999C5.10536 11.4874 5 11.7418 5 12.007C5 12.2722 5.10536 12.5266 5.29289 12.7141C5.48043 12.9016 5.73478 13.007 6 13.007L16.414 13L13.121 16.293C13.0255 16.3852 12.9493 16.4956 12.8969 16.6176C12.8445 16.7396 12.8169 16.8708 12.8157 17.0036C12.8146 17.1364 12.8399 17.2681 12.8902 17.391C12.9405 17.5138 13.0147 17.6255 13.1086 17.7194C13.2025 17.8133 13.3141 17.8875 13.437 17.9378C13.5599 17.9881 13.6916 18.0134 13.8244 18.0123C13.9572 18.0111 14.0884 17.9835 14.2104 17.9311C14.3324 17.8787 14.4428 17.8025 14.535 17.707L18.121 14.122C18.3996 13.8434 18.6207 13.5127 18.7715 13.1487C18.9222 12.7847 18.9999 12.3945 18.9999 12.0005C18.9999 11.6065 18.9222 11.2163 18.7715 10.8523C18.6207 10.4883 18.3996 10.1576 18.121 9.879L14.535 6.293C14.3475 6.10553 14.0932 6.00021 13.828 6.00021C13.5628 6.00021 13.3085 6.10553 13.121 6.293Z" fill="white"/>
</g>
</g>
</g></symbol><symbol id="asian" viewBox="0 0 44 44"><g fill="none">
<g id="christmas-dinner 2" clip-path="url(#clip0_0_200)">
<g id="Group">
<g id="Group_2">
<path id="Vector" d="M15.1315 13.5667H17.2563C17.8077 13.5667 18.2562 14.0152 18.2562 14.5666V16.0315C18.2562 16.3875 18.5448 16.676 18.9007 16.676C19.2567 16.676 19.5453 16.3875 19.5453 16.0315V14.5666C19.5453 13.3044 18.5184 12.2777 17.2563 12.2777H15.1315C14.5894 12.2777 14.1484 11.8366 14.1484 11.2945C14.1484 10.7524 14.5894 10.3115 15.1315 10.3115H19.843C21.0959 10.3115 22.1151 9.2922 22.1151 8.03931C22.1151 6.78643 21.0958 5.76721 19.843 5.76721H16.0738C15.7179 5.76721 15.4293 6.05579 15.4293 6.41174C15.4293 6.7677 15.7179 7.05627 16.0738 7.05627H19.843C20.3851 7.05627 20.8261 7.49731 20.8261 8.03931C20.8261 8.58141 20.385 9.02244 19.843 9.02244H15.1315C13.8786 9.02244 12.8593 10.0417 12.8593 11.2945C12.8593 12.5474 13.8786 13.5667 15.1315 13.5667Z" fill="#363853"/>
<path id="Vector_2" d="M7.38858 17.8924H9.49714C10.0415 17.8924 10.4844 18.3354 10.4844 18.8798V20.3335C10.4844 20.6895 10.773 20.978 11.1289 20.978C11.4849 20.978 11.7735 20.6895 11.7735 20.3335V18.8798C11.7735 17.6246 10.7523 16.6034 9.49714 16.6034H7.38858C6.85336 16.6034 6.418 16.1679 6.418 15.6328C6.418 15.0977 6.85345 14.6622 7.38858 14.6622H9.85387C10.2098 14.6622 10.4984 14.3737 10.4984 14.0177C10.4984 13.6617 10.2098 13.3732 9.85387 13.3732H7.38858C6.14257 13.3732 5.12894 14.3868 5.12894 15.6328C5.12894 16.8788 6.14257 17.8924 7.38858 17.8924Z" fill="#363853"/>
<path id="Vector_3" d="M25.6523 26.8125C26.0083 26.8125 26.2969 26.5239 26.2969 26.168C26.2969 25.812 26.0083 25.5234 25.6523 25.5234C25.2964 25.5234 25.0078 25.812 25.0078 26.168C25.0078 26.5239 25.2964 26.8125 25.6523 26.8125Z" fill="#363853"/>
<path id="Vector_4" d="M28.832 28.2734C29.188 28.2734 29.4766 27.9849 29.4766 27.6289C29.4766 27.2729 29.188 26.9844 28.832 26.9844C28.4761 26.9844 28.1875 27.2729 28.1875 27.6289C28.1875 27.9849 28.4761 28.2734 28.832 28.2734Z" fill="#363853"/>
<path id="Vector_5" d="M30.7227 30.5078C31.0786 30.5078 31.3672 30.2192 31.3672 29.8633C31.3672 29.5073 31.0786 29.2188 30.7227 29.2188C30.3667 29.2188 30.0781 29.5073 30.0781 29.8633C30.0781 30.2192 30.3667 30.5078 30.7227 30.5078Z" fill="#363853"/>
<path id="Vector_6" d="M28.0586 25.2656C28.4146 25.2656 28.7031 24.9771 28.7031 24.6211C28.7031 24.2651 28.4146 23.9766 28.0586 23.9766C27.7026 23.9766 27.4141 24.2651 27.4141 24.6211C27.4141 24.9771 27.7026 25.2656 28.0586 25.2656Z" fill="#363853"/>
<path id="Vector_7" d="M25.9102 30.9375C26.2661 30.9375 26.5547 30.6489 26.5547 30.293C26.5547 29.937 26.2661 29.6484 25.9102 29.6484C25.5542 29.6484 25.2656 29.937 25.2656 30.293C25.2656 30.6489 25.5542 30.9375 25.9102 30.9375Z" fill="#363853"/>
<path id="Vector_8" d="M42.9114 22.8109H41.083L41.9867 20.9433C43.1331 20.715 44 19.7014 44 18.4889C44 17.2453 43.0882 16.2111 41.8981 16.0186C40.5827 13.6495 38.0131 11.8701 34.8968 11.1599V11.1107C34.8968 10.7548 34.6083 10.4662 34.2523 10.4662C33.9573 10.4662 33.7091 10.6646 33.6326 10.9351C33.2401 10.8845 32.8407 10.8517 32.4363 10.8349C32.333 10.6172 32.1116 10.4662 31.8545 10.4662C31.5973 10.4662 31.376 10.6172 31.2726 10.8349C30.8681 10.8517 30.4687 10.8845 30.0762 10.9352C29.9998 10.6647 29.7516 10.4662 29.4565 10.4662C29.1005 10.4662 28.812 10.7548 28.812 11.1107V11.1599C25.6958 11.8701 23.1261 13.6496 21.8108 16.0186C20.6207 16.2111 19.709 17.2453 19.709 18.4889C19.709 18.5615 19.7123 18.6333 19.7184 18.7043C16.7427 18.981 14.0692 20.2242 12.0633 22.0896H8.01359C7.73755 22.0896 7.4904 22.2134 7.32316 22.408H5.43039C5.12033 21.6246 4.35067 21.071 3.47342 21.071C2.31344 21.071 1.36976 22.0146 1.36976 23.1746C1.36976 23.2737 1.37758 23.3717 1.39124 23.4683C0.580851 23.7608 0 24.5375 0 25.4474C0 25.8514 0.114727 26.2398 0.325445 26.5722C0.114727 26.9047 0 27.293 0 27.697C0 28.857 0.94368 29.8007 2.10366 29.8007C2.98091 29.8007 3.75057 29.2471 4.06063 28.4636H5.76537C5.84358 28.7509 6.0592 28.988 6.35087 29.087L8.37177 29.7733C8.35974 29.9815 8.35321 30.1911 8.35321 30.4021C8.35321 30.6009 8.35888 30.7988 8.36945 30.9961C8.05346 31.0723 7.75852 31.2031 7.49607 31.3792C7.06398 31.0894 6.54491 30.9197 5.98666 30.9197C4.48791 30.9197 3.26863 32.139 3.26863 33.6378C3.26863 33.6607 3.27035 33.6833 3.27095 33.7061H2.51685C2.09129 33.7061 1.71411 33.9452 1.53244 34.3299C1.35077 34.7147 1.40585 35.1578 1.6763 35.4864L3.6098 37.8359C3.81743 38.088 4.12371 38.2327 4.45036 38.2327H31.7103C32.0663 38.2327 32.3548 37.9441 32.3548 37.5882C32.3548 37.2322 32.0663 36.9436 31.7103 36.9436H4.54498L2.94147 34.9952H42.4853L40.8818 36.9436H34.7181C34.362 36.9436 34.0735 37.2322 34.0735 37.5882C34.0735 37.9441 34.362 38.2327 34.7181 38.2327H40.9764C41.3031 38.2327 41.6095 38.088 41.8169 37.8358L43.7504 35.4865C44.0207 35.1578 44.0759 34.7147 43.8942 34.3299C43.7126 33.9451 43.3354 33.7061 42.9099 33.7061H42.2716C42.905 32.61 43.143 31.311 42.9119 30.0346C42.8639 29.7702 42.657 29.5631 42.3925 29.5153C40.6466 29.1992 38.857 29.758 37.6048 31.0101C37.5283 31.0865 37.4554 31.1658 37.3842 31.2462C37.0148 31.0462 36.594 30.9301 36.1474 30.9214V29.695H36.835C37.925 29.695 38.8117 28.8083 38.8117 27.7183V26.8531H42.9114C43.5116 26.8531 44 26.3647 44 25.7645V23.8995C44 23.2992 43.5116 22.8109 42.9114 22.8109ZM6.29054 33.7062H4.56002C4.5589 33.6835 4.5577 33.6608 4.5577 33.6379C4.5577 32.8499 5.1987 32.2089 5.98666 32.2089C6.21079 32.2089 6.42254 32.2614 6.61126 32.354C6.40535 32.7365 6.28813 33.1737 6.28813 33.6379C6.28822 33.6608 6.28994 33.6833 6.29054 33.7062ZM38.5163 31.9216C39.3595 31.0786 40.5223 30.6483 41.7005 30.7267C41.7727 31.812 41.412 32.8847 40.6953 33.7062H39.6325L40.5131 32.8256C40.7648 32.5739 40.7648 32.1658 40.5131 31.9141C40.2613 31.6624 39.8533 31.6624 39.6015 31.9141L38.6882 32.8275C38.6075 32.5698 38.4893 32.3286 38.3402 32.1101C38.3969 32.0456 38.4553 31.9826 38.5163 31.9216ZM25.5032 13.9422C26.4787 13.2886 27.6054 12.7984 28.812 12.4901V13.1534C28.812 13.5093 29.1005 13.7979 29.4565 13.7979C29.8126 13.7979 30.1011 13.5093 30.1011 13.1534V12.2345C30.4665 12.1825 30.8368 12.1482 31.2099 12.129V13.1534C31.2099 13.5093 31.4984 13.7979 31.8545 13.7979C32.2105 13.7979 32.499 13.5093 32.499 13.1534V12.129C32.8721 12.1482 33.2424 12.1826 33.6077 12.2345V13.1534C33.6077 13.5093 33.8962 13.7979 34.2523 13.7979C34.6083 13.7979 34.8968 13.5093 34.8968 13.1534V12.4901C36.1035 12.7984 37.2302 13.2886 38.2057 13.9423C39.1561 14.579 39.9304 15.3479 40.4945 16.1982C40.2768 16.294 40.0729 16.42 39.89 16.5732C39.4452 16.2005 38.8773 15.9861 38.2829 15.9861C37.6885 15.9861 37.1205 16.2005 36.6758 16.5732C36.231 16.2005 35.663 15.9861 35.0687 15.9861C34.4743 15.9861 33.9063 16.2005 33.4616 16.5732C33.0168 16.2005 32.4488 15.9861 31.8545 15.9861C31.26 15.9861 30.6921 16.2005 30.2473 16.5732C29.8025 16.2005 29.2346 15.9861 28.6402 15.9861C28.0458 15.9861 27.4778 16.2005 27.0331 16.5732C26.5884 16.2005 26.0204 15.9861 25.426 15.9861C24.8316 15.9861 24.2637 16.2005 23.8189 16.5732C23.6361 16.42 23.4321 16.294 23.2144 16.1982C23.7785 15.3478 24.5528 14.5789 25.5032 13.9422ZM22.2117 17.2751C22.642 17.2751 23.0441 17.5077 23.2612 17.8822C23.3765 18.0809 23.5889 18.2034 23.8188 18.2034C24.0486 18.2034 24.261 18.081 24.3763 17.8823C24.5935 17.5077 24.9957 17.2751 25.4259 17.2751C25.8562 17.2751 26.2584 17.5077 26.4755 17.8822C26.5908 18.0809 26.8031 18.2034 27.033 18.2034C27.2629 18.2034 27.4752 18.081 27.5906 17.8822C27.8077 17.5077 28.2098 17.2751 28.6401 17.2751C29.0703 17.2751 29.4725 17.5077 29.6898 17.8823C29.8051 18.081 30.0175 18.2034 30.2472 18.2034C30.4771 18.2034 30.6895 18.081 30.8048 17.8822C31.0219 17.5077 31.4241 17.2751 31.8544 17.2751C32.2846 17.2751 32.6868 17.5077 32.904 17.8823C33.0192 18.081 33.2317 18.2034 33.4615 18.2034C33.6914 18.2034 33.9037 18.081 34.019 17.8822C34.2361 17.5077 34.6383 17.2751 35.0686 17.2751C35.4988 17.2751 35.901 17.5077 36.1182 17.8823C36.2336 18.081 36.4459 18.2034 36.6757 18.2034C36.9056 18.2034 37.118 18.081 37.2333 17.8822C37.4504 17.5077 37.8525 17.2751 38.2828 17.2751C38.713 17.2751 39.1152 17.5077 39.3325 17.8823C39.4477 18.081 39.6602 18.2034 39.89 18.2034C40.1198 18.2034 40.3322 18.081 40.4475 17.8822C40.6646 17.5077 41.0668 17.2751 41.4971 17.2751C42.1663 17.2751 42.7108 17.8195 42.7108 18.4888C42.7108 19.1581 42.1663 19.7025 41.4971 19.7025C41.0668 19.7025 40.6646 19.4699 40.4475 19.0954C40.3322 18.8967 40.1198 18.7742 39.89 18.7742C39.6602 18.7742 39.4477 18.8966 39.3325 19.0953C39.1152 19.4699 38.713 19.7025 38.2828 19.7025C37.8525 19.7025 37.4504 19.4699 37.2333 19.0954C37.118 18.8967 36.9056 18.7742 36.6757 18.7742C36.4459 18.7742 36.2335 18.8966 36.1182 19.0953C35.901 19.4699 35.4988 19.7025 35.0686 19.7025C34.6383 19.7025 34.2361 19.4699 34.019 19.0954C33.9037 18.8967 33.6914 18.7742 33.4615 18.7742C33.2317 18.7742 33.0192 18.8966 32.904 19.0953C32.6868 19.4699 32.2846 19.7025 31.8544 19.7025C31.4241 19.7025 31.0219 19.4699 30.8048 19.0954C30.6895 18.8967 30.4771 18.7742 30.2472 18.7742C30.0175 18.7742 29.805 18.8966 29.6898 19.0953C29.4725 19.4699 29.0703 19.7025 28.6401 19.7025C28.2098 19.7025 27.8077 19.4699 27.5906 19.0954C27.4752 18.8967 27.2629 18.7742 27.033 18.7742C26.8031 18.7742 26.5908 18.8966 26.4755 19.0954C26.3486 19.3142 26.1583 19.4841 25.9363 19.5879C24.4222 18.9847 22.7569 18.6492 21.0094 18.6458C21.0026 18.5943 20.998 18.5422 20.998 18.4888C20.998 17.8195 21.5424 17.2751 22.2117 17.2751ZM8.39163 23.3786H10.8635C10.6095 23.6949 10.3712 24.0227 10.1518 24.3624H8.39163V23.3786ZM5.7328 27.1746H3.5567C3.22145 27.1746 2.94216 27.4316 2.9144 27.7657C2.87968 28.184 2.52355 28.5116 2.10375 28.5116C1.65455 28.5116 1.28915 28.1462 1.28915 27.697C1.28915 27.4535 1.397 27.2244 1.58512 27.0688C1.7331 26.9463 1.81878 26.7643 1.81878 26.5722C1.81878 26.38 1.7331 26.198 1.58512 26.0755C1.397 25.9199 1.28915 25.691 1.28915 25.4473C1.28915 24.9981 1.65455 24.6327 2.10375 24.6327C2.52355 24.6327 2.87968 24.9603 2.9144 25.3786C2.94216 25.7127 3.22145 25.9697 3.5567 25.9697H5.73289V27.1746H5.7328ZM5.95332 24.6808H4.06063C3.82362 24.082 3.31779 23.6184 2.70093 23.4327C2.67343 23.3505 2.65873 23.2635 2.65873 23.1745C2.65873 22.7253 3.02414 22.3599 3.47334 22.3599C3.89314 22.3599 4.24927 22.6876 4.28407 23.1058C4.31183 23.4399 4.59113 23.697 4.92637 23.697H7.10256V24.3624H6.64383C6.3678 24.3624 6.12055 24.4863 5.95332 24.6808ZM10.433 33.7062H7.5796C7.57848 33.6835 7.57728 33.6608 7.57728 33.6379C7.57728 32.8499 8.21829 32.2089 9.00625 32.2089C9.79421 32.2089 10.4352 32.8499 10.4352 33.6379C10.4353 33.6608 10.434 33.6835 10.433 33.7062ZM30.3116 33.7062H28.0679C28.0668 33.6835 28.0656 33.6608 28.0656 33.6379C28.0656 32.8499 28.7066 32.2089 29.4946 32.2089C29.8885 32.2089 30.2459 32.3692 30.5046 32.6279C30.3791 32.9404 30.3093 33.281 30.3093 33.6379C30.3092 33.6608 30.311 33.6833 30.3116 33.7062ZM29.4946 30.9197C27.9959 30.9197 26.7765 32.139 26.7765 33.6378C26.7765 33.6607 26.7782 33.6833 26.7788 33.7061H11.722C11.7226 33.6832 11.7244 33.6607 11.7244 33.6378C11.7244 32.3649 10.8446 31.294 9.66135 31C9.64915 30.8017 9.64227 30.6024 9.64227 30.4021C9.64227 30.3364 9.64322 30.2709 9.64451 30.2054L16.2366 32.4439C16.6807 32.5948 17.1349 32.6691 17.5847 32.6691C18.4345 32.6691 19.2687 32.4037 19.9891 31.8877C21.0906 31.0983 21.7223 29.8685 21.7223 28.5133C21.7223 28.0288 21.6392 27.5535 21.4753 27.1005C21.3541 26.7658 20.9846 26.5927 20.6498 26.7139C20.3151 26.835 20.142 27.2046 20.2632 27.5393C20.3761 27.8512 20.4334 28.1789 20.4334 28.5132C20.4334 29.4475 19.9978 30.2955 19.2383 30.8396C18.479 31.3838 17.5359 31.5235 16.6512 31.2232L7.02195 27.9534V25.6514H17.5715C17.8948 25.6514 18.2133 25.7056 18.5182 25.8125C18.8543 25.9304 19.222 25.7534 19.3397 25.4173C19.4575 25.0813 19.2805 24.7137 18.9446 24.5959C18.5023 24.4409 18.0403 24.3623 17.5715 24.3623H11.7273C13.7835 21.6855 17.1654 19.9344 20.9831 19.9344C27.2364 19.9344 32.3238 24.6302 32.3238 30.4021C32.3238 30.6083 32.3166 30.8135 32.3036 31.0178C31.9142 31.1257 31.5596 31.3183 31.2609 31.5745C30.7855 31.1668 30.1685 30.9197 29.4946 30.9197ZM34.454 33.7062H31.6006C31.5995 33.6835 31.5983 33.6608 31.5983 33.6379C31.5983 32.8499 32.2393 32.2089 33.0272 32.2089C33.8152 32.2089 34.4563 32.8499 34.4563 33.6379C34.4563 33.6608 34.4551 33.6835 34.454 33.7062ZM34.8583 31.2197C34.7555 31.2725 34.6558 31.3304 34.5611 31.3954C34.2745 31.1988 33.9482 31.0568 33.5974 30.9815C33.6073 30.7892 33.6128 30.5961 33.6128 30.4022C33.6128 30.1646 33.6029 29.9292 33.5878 29.695H34.8583V31.2197ZM37.5226 33.6378C37.5226 33.6607 37.5214 33.6834 37.5203 33.7061H35.743C35.7436 33.6832 35.7454 33.6607 35.7454 33.6378C35.7454 33.181 35.6316 32.7505 35.4317 32.3723C35.6296 32.2679 35.8547 32.2088 36.0937 32.2088C36.8816 32.2088 37.5226 32.8498 37.5226 33.6378ZM37.5226 27.7184C37.5226 28.0976 37.2142 28.406 36.835 28.406H33.4281C33.33 27.8757 33.1959 27.3568 33.0241 26.8531H37.5226V27.7184ZM42.7109 25.564H32.4932C32.2456 25.0557 31.9601 24.5668 31.6404 24.0999H34.375C34.731 24.0999 35.0195 23.8113 35.0195 23.4554C35.0195 23.0994 34.731 22.8109 34.375 22.8109H30.6187C30.0022 22.1339 29.3059 21.5221 28.5421 20.9893C28.5747 20.9906 28.6074 20.9916 28.6401 20.9916C29.2345 20.9916 29.8024 20.7771 30.2472 20.4044C30.692 20.7771 31.26 20.9916 31.8544 20.9916C32.4487 20.9916 33.0167 20.7771 33.4615 20.4044C33.9062 20.7771 34.4743 20.9916 35.0686 20.9916C35.6629 20.9916 36.2309 20.7771 36.6757 20.4044C37.1204 20.7771 37.6885 20.9916 38.2828 20.9916C38.8772 20.9916 39.4451 20.7771 39.89 20.4044C40.105 20.5846 40.3489 20.7274 40.6106 20.8272L39.6508 22.8109H37.3828C37.0268 22.8109 36.7383 23.0994 36.7383 23.4554C36.7383 23.8113 37.0268 24.0999 37.3828 24.0999H42.7109V25.564Z" fill="#363853"/>
</g>
</g>
</g>

</g></symbol><symbol id="burger" viewBox="0 0 44 45"><g fill="none">
<g id="icon-category-burger" clip-path="url(#clip0_20162_82)">
<g id="Group">
<path id="Vector" d="M44 20.3657C44 18.6765 42.9108 17.2377 41.3982 16.7123C41.1658 11.4715 39.2092 7.44966 35.573 4.74701C32.2543 2.28043 27.6878 1.02979 22 1.02979C16.3122 1.02979 11.7457 2.28043 8.42703 4.7471C4.79084 7.44966 2.83422 11.4715 2.60176 16.7123C1.08917 17.2377 0 18.6765 0 20.3657C0 21.3555 0.374172 22.2591 0.987852 22.9438C0.374172 23.6286 0 24.5322 0 25.522C0 27.2216 1.10258 28.6675 2.6296 29.1849C3.18252 35.0752 8.18967 39.7017 14.2656 39.7017H29.7344C35.8103 39.7017 40.8175 35.0752 41.3704 29.1849C42.8974 28.6675 44 27.2216 44 25.522C44 24.5322 43.6258 23.6286 43.0121 22.9438C43.6258 22.2591 44 21.3555 44 20.3657ZM22 3.60791C29.3933 3.60791 38.1513 5.88697 38.8034 16.4985H5.19655C5.84873 5.88697 14.6067 3.60791 22 3.60791ZM3.86719 19.0767H40.1328C40.8436 19.0767 41.4219 19.6549 41.4219 20.3657C41.4219 21.0765 40.8436 21.6548 40.1328 21.6548H3.86719C3.1564 21.6548 2.57812 21.0765 2.57812 20.3657C2.57812 19.6549 3.1564 19.0767 3.86719 19.0767ZM29.7344 37.1235H14.2656C9.68456 37.1235 5.88302 33.7562 5.24958 29.3892H6.44531C7.30709 29.3892 7.57943 29.6823 8.12187 30.2664C8.78857 30.9842 9.70166 31.9673 11.6875 31.9673C13.6874 31.9673 14.5766 30.9742 15.226 30.2491C15.7387 29.6765 15.996 29.3892 16.8438 29.3892C17.6915 29.3892 17.9488 29.6765 18.4615 30.2491C19.1109 30.9742 20.0001 31.9673 22 31.9673C23.9999 31.9673 24.8891 30.9742 25.5385 30.2491C26.0512 29.6765 26.3085 29.3892 27.1562 29.3892C28.004 29.3892 28.2613 29.6765 28.774 30.2491C29.4234 30.9742 30.3126 31.9673 32.3125 31.9673C34.3124 31.9673 35.2016 30.9742 35.851 30.2491C36.3637 29.6765 36.621 29.3892 37.4688 29.3892H38.7504C38.117 33.7562 34.3154 37.1235 29.7344 37.1235ZM40.1328 26.811H37.4688C35.4689 26.811 34.5796 27.8041 33.9303 28.5293C33.4176 29.1018 33.1603 29.3892 32.3125 29.3892C31.4647 29.3892 31.2074 29.1018 30.6947 28.5293C30.0454 27.8041 29.1561 26.811 27.1562 26.811C25.1564 26.811 24.2671 27.8041 23.6178 28.5293C23.1051 29.1018 22.8478 29.3892 22 29.3892C21.1522 29.3892 20.8949 29.1018 20.3822 28.5293C19.7329 27.8041 18.8436 26.811 16.8438 26.811C14.8439 26.811 13.9546 27.8041 13.3053 28.5293C12.7926 29.1018 12.5353 29.3892 11.6875 29.3892C10.8257 29.3892 10.5534 29.096 10.0109 28.5119C9.34424 27.7941 8.43116 26.811 6.44531 26.811H3.86719C3.1564 26.811 2.57812 26.2328 2.57812 25.522C2.57812 24.8112 3.1564 24.2329 3.86719 24.2329H40.1328C40.8436 24.2329 41.4219 24.8112 41.4219 25.522C41.4219 26.2328 40.8436 26.811 40.1328 26.811Z" fill="black"/>
<path id="Vector_2" d="M14.2656 13.9204C14.9776 13.9204 15.5547 13.3433 15.5547 12.6313C15.5547 11.9194 14.9776 11.3423 14.2656 11.3423C13.5537 11.3423 12.9766 11.9194 12.9766 12.6313C12.9766 13.3433 13.5537 13.9204 14.2656 13.9204Z" fill="black"/>
<path id="Vector_3" d="M29.7344 13.9204C30.4463 13.9204 31.0234 13.3433 31.0234 12.6313C31.0234 11.9194 30.4463 11.3423 29.7344 11.3423C29.0224 11.3423 28.4453 11.9194 28.4453 12.6313C28.4453 13.3433 29.0224 13.9204 29.7344 13.9204Z" fill="black"/>
<path id="Vector_4" d="M24.5781 11.3423C25.2901 11.3423 25.8672 10.7652 25.8672 10.0532C25.8672 9.34129 25.2901 8.76416 24.5781 8.76416C23.8662 8.76416 23.2891 9.34129 23.2891 10.0532C23.2891 10.7652 23.8662 11.3423 24.5781 11.3423Z" fill="black"/>
<path id="Vector_5" d="M19.4219 8.76416C20.1338 8.76416 20.7109 8.18703 20.7109 7.4751C20.7109 6.76317 20.1338 6.18604 19.4219 6.18604C18.7099 6.18604 18.1328 6.76317 18.1328 7.4751C18.1328 8.18703 18.7099 8.76416 19.4219 8.76416Z" fill="black"/>
</g>
</g>

</g></symbol><symbol id="cart" viewBox="0 0 21 20"><g fill="none">
<path d="M1 1.17578L3.08 1.5316L4.04301 12.8715C4.12001 13.7976 4.90301 14.5082 5.84301 14.5053H16.752C17.649 14.5072 18.41 13.8549 18.537 12.9772L19.486 6.49532C19.592 5.77083 19.083 5.09872 18.351 4.99395C18.287 4.98505 3.414 4.98011 3.414 4.98011" stroke="#363853" stroke-width="1.5" stroke-linecap="round" stroke-linejoin="round"/>
<path d="M12.375 8.63337H15.1479" stroke="#363853" stroke-width="1.5" stroke-linecap="round" stroke-linejoin="round"/>
<path fill-rule="evenodd" clip-rule="evenodd" d="M5.4043 17.9316C5.70527 17.9316 5.94824 18.1729 5.94824 18.4696C5.94824 18.7673 5.70527 19.0085 5.4043 19.0085C5.10333 19.0085 4.86035 18.7673 4.86035 18.4696C4.86035 18.1729 5.10333 17.9316 5.4043 17.9316Z" stroke="#363853" stroke-width="1.5" stroke-linecap="round" stroke-linejoin="round"/>
<path fill-rule="evenodd" clip-rule="evenodd" d="M16.6846 17.9316C16.9856 17.9316 17.2296 18.1729 17.2296 18.4696C17.2296 18.7673 16.9856 19.0085 16.6846 19.0085C16.3836 19.0085 16.1406 18.7673 16.1406 18.4696C16.1406 18.1729 16.3836 17.9316 16.6846 17.9316Z" stroke="#363853" stroke-width="1.5" stroke-linecap="round" stroke-linejoin="round"/>
</g></symbol><symbol id="delivery" viewBox="0 0 34 34"><g fill="none">
<g id="delivery 1">
<g id="Outline">
<path id="Vector" d="M6.51761 24.469L6.92521 25.4394C7.21271 25.3215 7.51213 25.2343 7.81837 25.1792L7.62839 24.1455C7.24754 24.2139 6.87517 24.3224 6.51761 24.469Z" fill="#00AAFF"/>
<path id="Vector_2" d="M3.72678 27.0754L4.68303 27.5332C5.01397 26.8584 5.51739 26.2808 6.1435 25.8573L5.54385 24.9903C4.76485 25.5172 4.13851 26.2359 3.72678 27.0754Z" fill="#00AAFF"/>
<path id="Vector_3" d="M32.9375 26.7798C32.9381 25.8755 32.6008 25.0028 31.9904 24.3293L31.1987 25.0296C31.5128 25.376 31.7279 25.7989 31.8219 26.2547H28.1562C28.0688 26.2547 27.9827 26.276 27.9056 26.3168C27.8285 26.3576 27.7628 26.4166 27.7142 26.4885L25.747 29.4052H24.4375V27.8299C24.4386 26.8555 24.8308 25.9212 25.5279 25.2321C26.2251 24.5431 27.1703 24.1555 28.1562 24.1544H29.2188C29.7412 24.1535 30.2521 24.3056 30.6871 24.5916L31.2755 23.7171C30.8167 23.4153 30.2955 23.2187 29.75 23.1417V21.5289C29.75 21.3897 29.694 21.2561 29.5944 21.1577C29.4948 21.0592 29.3596 21.0039 29.2188 21.0039C28.6554 21.0032 28.1152 20.7818 27.7168 20.388C27.3185 19.9942 27.0944 19.4604 27.0938 18.9035V16.8032H28.6875C28.8284 16.8032 28.9635 16.7479 29.0632 16.6494C29.1628 16.5509 29.2188 16.4174 29.2188 16.2781V12.6025C29.2188 12.4633 29.1628 12.3297 29.0632 12.2313C28.9635 12.1328 28.8284 12.0775 28.6875 12.0775H27.7505C27.5285 12.0778 27.3076 12.1079 27.0938 12.1669V11.5524C27.0938 11.4331 27.0527 11.3173 26.9773 11.2242L25.2392 9.07661C25.4669 8.69699 25.5488 8.24905 25.4699 7.81467C25.391 7.38029 25.1566 6.98847 24.8095 6.71083C24.4624 6.43318 24.0259 6.28825 23.5796 6.30253C23.1333 6.31681 22.7071 6.48935 22.379 6.7886C22.0508 7.08785 21.8425 7.49383 21.7922 7.93235C21.7419 8.37086 21.853 8.81262 22.105 9.17689C22.3571 9.54116 22.7334 9.80361 23.1651 9.91627C23.5968 10.0289 24.0551 9.98427 24.4563 9.79046L26.0312 11.7365V12.3991L23.6957 11.6296C23.5427 11.5775 23.3819 11.5514 23.2201 11.5524H18.8381L16.316 8.64401C16.527 8.49911 16.6994 8.3059 16.8185 8.08087C16.9377 7.85584 16.9999 7.60567 17 7.35171V7.15113L17.7689 6.77117C17.8362 6.73787 17.8957 6.69079 17.9432 6.63305C17.9908 6.57531 18.0254 6.50824 18.0447 6.43628C18.064 6.36432 18.0677 6.28912 18.0553 6.21567C18.043 6.14222 18.015 6.0722 17.9733 6.01026L17.1007 4.71659C17.2218 4.69347 17.3311 4.6294 17.4096 4.53536C17.4882 4.44132 17.5312 4.32318 17.5312 4.20122C17.5303 3.36595 17.1941 2.56516 16.5966 1.97453C15.999 1.38391 15.1888 1.05168 14.3438 1.05072C13.3433 1.05072 12.417 1.33472 11.728 2.08723C11.4295 2.41379 11.2034 2.79844 11.0641 3.21648C10.9249 3.63453 10.8757 4.07673 10.9196 4.51469L11.0333 5.63784C11.0812 6.1221 11.3153 6.56971 11.6875 6.8882V16.8032C11.6872 17.1721 11.7859 17.5344 11.9734 17.8534H11.1562C10.9753 17.8533 10.7956 17.8838 10.625 17.9437V11.0273C10.6245 10.6097 10.4565 10.2093 10.1577 9.91394C9.85889 9.61863 9.45379 9.45251 9.03125 9.45204H2.65625C2.23371 9.45251 1.82861 9.61863 1.52982 9.91394C1.23104 10.2093 1.06297 10.6097 1.0625 11.0273V13.6527H2.125V12.6025H9.5625V17.8534H2.125V14.7029H1.0625V18.9904C1.06238 19.2363 1.14967 19.4745 1.30913 19.6634C1.46858 19.8522 1.69008 19.9797 1.93495 20.0236L6.90625 20.917V22.1492C6.45584 22.2523 6.01601 22.3962 5.59234 22.5791H2.65625C2.51535 22.5791 2.38023 22.6344 2.2806 22.7329C2.18097 22.8314 2.125 22.9649 2.125 23.1042V25.5965C1.43087 26.7486 1.06382 28.0643 1.0625 29.4052C1.0625 29.5445 1.11847 29.678 1.2181 29.7765C1.31773 29.875 1.45285 29.9303 1.59375 29.9303H4.02893C4.34641 30.7059 4.89103 31.3702 5.59297 31.838C6.29491 32.3057 7.12219 32.5556 7.96875 32.5556C8.81531 32.5556 9.64259 32.3057 10.3445 31.838C11.0465 31.3702 11.5911 30.7059 11.9086 29.9303H20.8409C21.211 29.9301 21.577 29.8535 21.9154 29.7056C22.2539 29.5577 22.5574 29.3416 22.8066 29.0711L23.375 28.4529V29.9303C23.375 30.0695 23.431 30.2031 23.5306 30.3016C23.6302 30.4 23.7654 30.4554 23.9062 30.4554H25.007C25.4748 31.2561 26.1969 31.882 27.0612 32.2358C27.9255 32.5896 28.8838 32.6517 29.7875 32.4124C30.6912 32.173 31.4897 31.6457 32.0592 30.9121C32.6287 30.1785 32.9375 29.2797 32.9375 28.355C32.9379 27.9529 32.8796 27.5527 32.7644 27.167C32.819 27.118 32.8626 27.0582 32.8924 26.9915C32.9222 26.9248 32.9375 26.8527 32.9375 26.7798ZM22.8438 8.13934C22.8438 7.98356 22.8905 7.83128 22.978 7.70176C23.0656 7.57223 23.1901 7.47128 23.3357 7.41167C23.4813 7.35205 23.6415 7.33646 23.7961 7.36685C23.9507 7.39724 24.0927 7.47225 24.2041 7.5824C24.3155 7.69255 24.3914 7.8329 24.4222 7.98568C24.4529 8.13846 24.4372 8.29683 24.3768 8.44075C24.3165 8.58467 24.2144 8.70768 24.0833 8.79422C23.9523 8.88077 23.7982 8.92696 23.6406 8.92696C23.4293 8.92674 23.2268 8.84368 23.0774 8.69602C22.928 8.54836 22.844 8.34816 22.8438 8.13934ZM15.2436 26.7798C14.7233 26.7792 14.2245 26.5746 13.8566 26.211C13.4888 25.8474 13.2818 25.3544 13.2812 24.8402C13.2812 24.3247 13.4131 23.8425 13.7607 23.4459C14.0705 23.0934 14.4982 22.8627 14.9658 22.7961C15.5302 22.7165 16.0467 22.4383 16.4204 22.0126C16.794 21.5869 16.9998 21.0423 17 20.4788C17.0001 20.4098 16.9864 20.3414 16.9597 20.2777C16.9329 20.214 16.8937 20.1561 16.8443 20.1074C16.9346 19.9207 16.9867 19.7183 16.9978 19.5118C17.0088 19.3052 16.9785 19.0985 16.9086 18.9035H18.3515L16.0202 24.8943C15.9639 25.0386 15.9358 25.1921 15.9375 25.3468V26.7798H15.2436ZM17 25.7296H19.6562C19.7702 25.7297 19.8811 25.766 19.9725 25.8332C20.064 25.9003 20.1312 25.9947 20.1642 26.1025C20.1972 26.2103 20.1943 26.3257 20.1559 26.4317C20.1175 26.5377 20.0456 26.6287 19.9509 26.6913C19.8174 26.7492 19.6732 26.7793 19.5274 26.7798H17V25.7296ZM21.1226 25.6377C21.017 25.3934 20.8507 25.1794 20.6391 25.0154C20.4275 24.8515 20.1776 24.7429 19.9123 24.6998L22.1124 19.4645C22.3079 18.9992 22.3843 18.4935 22.3347 17.992C22.285 17.4906 22.111 17.009 21.828 16.59C21.545 16.1709 21.1618 15.8274 20.7123 15.5898C20.2628 15.3522 19.7609 15.2279 19.2512 15.228H17V14.3953L17.1556 14.5491C17.2049 14.5978 17.2635 14.6365 17.3279 14.6629C17.3924 14.6893 17.4615 14.7029 17.5312 14.7029H22.9351C22.85 14.9405 22.8238 15.1947 22.8588 15.4444C22.8938 15.6941 22.9888 15.9318 23.1361 16.1376C23.2833 16.3433 23.4783 16.5112 23.7048 16.627C23.9312 16.7429 24.1825 16.8033 24.4375 16.8032H24.439C24.0927 17.257 23.9056 17.8101 23.9062 18.3785V22.4518C23.9054 22.7301 23.7936 22.997 23.595 23.1943L21.1226 25.6377ZM24.4375 15.753C24.3324 15.753 24.2297 15.7222 24.1424 15.6645C24.055 15.6068 23.9869 15.5248 23.9467 15.4289C23.9065 15.3329 23.896 15.2274 23.9165 15.1255C23.937 15.0237 23.9876 14.9301 24.0618 14.8567C24.1361 14.7832 24.2308 14.7332 24.3339 14.713C24.4369 14.6927 24.5437 14.7031 24.6408 14.7428C24.7379 14.7826 24.8208 14.8499 24.8792 14.9362C24.9376 15.0226 24.9688 15.1241 24.9688 15.228C24.9686 15.3672 24.9126 15.5006 24.813 15.5991C24.7134 15.6975 24.5783 15.7529 24.4375 15.753ZM28.1562 13.1276V15.753H27.0938V13.2911C27.2958 13.1842 27.5213 13.128 27.7505 13.1276H28.1562ZM26.0312 15.228C26.0313 14.9759 25.9702 14.7276 25.853 14.5037C25.7358 14.2799 25.566 14.0871 25.3578 13.9416C25.1496 13.7961 24.9091 13.7021 24.6565 13.6676C24.4039 13.633 24.1466 13.6589 23.9062 13.743V12.806L26.0312 13.5061V15.228ZM18.5938 12.6025H22.8438V13.6527H17.7513L14.7194 10.656L13.9681 11.3986L15.9375 13.3451V15.228H12.75V8.92696H15.1619L18.1904 12.4192C18.2403 12.4767 18.3021 12.5229 18.3718 12.5545C18.4414 12.5862 18.5171 12.6025 18.5938 12.6025ZM12.5158 2.79189C13.0014 2.2615 13.6459 2.10089 14.3438 2.10089C14.8147 2.10148 15.2722 2.25643 15.6446 2.54147C16.0169 2.82652 16.2832 3.22556 16.4015 3.67613H14.3438C14.2029 3.67613 14.0677 3.73146 13.9681 3.82993C13.8685 3.9284 13.8125 4.06196 13.8125 4.20122V5.44829C13.8117 5.66666 13.7262 5.87642 13.5737 6.03439C13.4211 6.19235 13.2131 6.28649 12.9925 6.29743C12.7718 6.30836 12.5553 6.23526 12.3875 6.09317C12.2197 5.95108 12.1135 5.75081 12.0906 5.53361L11.9769 4.41046C11.9458 4.11835 11.9777 3.82303 12.0706 3.54402C12.1635 3.26501 12.3152 3.00865 12.5158 2.79189ZM12.9492 7.35171C13.4598 7.35119 13.9493 7.15049 14.3104 6.79364C14.6714 6.43679 14.8745 5.95295 14.875 5.44829V4.7263H15.9375C15.9375 4.82998 15.9685 4.93134 16.0267 5.01759L16.7554 6.09808L16.2308 6.35721C16.1427 6.40085 16.0686 6.46787 16.0168 6.55077C15.9649 6.63368 15.9375 6.72919 15.9375 6.82663V7.35171C15.9373 7.49093 15.8813 7.62439 15.7817 7.72283C15.6821 7.82127 15.5471 7.87664 15.4062 7.8768H12.75V7.34141C12.8162 7.34819 12.8827 7.35162 12.9492 7.35171ZM12.75 16.8032V16.2781H19.2512C19.5861 16.2781 19.9159 16.3598 20.2112 16.516C20.5065 16.6721 20.7584 16.8978 20.9443 17.1732C21.1302 17.4485 21.2446 17.765 21.2771 18.0944C21.3097 18.4239 21.2595 18.7563 21.1311 19.062L18.7704 24.6794H17.2423L19.6209 18.567C19.6518 18.4874 19.6627 18.4016 19.6526 18.317C19.6425 18.2324 19.6117 18.1514 19.5629 18.0812C19.5141 18.0109 19.4487 17.9535 19.3724 17.9138C19.2961 17.8741 19.2112 17.8534 19.125 17.8534H13.8125C13.5308 17.853 13.2608 17.7423 13.0616 17.5454C12.8624 17.3485 12.7503 17.0816 12.75 16.8032ZM11.1562 18.9035H15.4062C15.5471 18.9035 15.6823 18.9589 15.7819 19.0573C15.8815 19.1558 15.9375 19.2894 15.9375 19.4286C15.9375 19.5679 15.8815 19.7014 15.7819 19.7999C15.6823 19.8984 15.5471 19.9537 15.4062 19.9537H11.1562C11.0154 19.9537 10.8802 19.8984 10.7806 19.7999C10.681 19.7014 10.625 19.5679 10.625 19.4286C10.625 19.2894 10.681 19.1558 10.7806 19.0573C10.8802 18.9589 11.0154 18.9035 11.1562 18.9035ZM2.125 11.5524V11.0273C2.12516 10.8881 2.18118 10.7546 2.28077 10.6562C2.38037 10.5577 2.5154 10.5024 2.65625 10.5022H9.03125C9.1721 10.5024 9.30713 10.5577 9.40673 10.6562C9.50632 10.7546 9.56234 10.8881 9.5625 11.0273V11.5524H2.125ZM2.125 18.9035H9.5625V19.9537H7.48538L2.125 18.9904V18.9035ZM3.84426 23.6293C3.61366 23.8143 3.39435 24.0127 3.1875 24.2234V23.6293H3.84426ZM7.96875 31.5055C7.40983 31.5031 6.86124 31.3564 6.37723 31.0802C5.89322 30.8039 5.49055 30.4075 5.20904 29.9303H6.56452C6.9522 30.2686 7.45157 30.4554 7.96875 30.4554C8.48593 30.4554 8.9853 30.2686 9.37298 29.9303H10.7285C10.447 30.4075 10.0443 30.8039 9.56027 31.0802C9.07626 31.3564 8.52767 31.5031 7.96875 31.5055ZM22.0203 28.3649C21.8708 28.5271 21.6887 28.6567 21.4856 28.7454C21.2825 28.8342 21.063 28.88 20.8409 28.8801H2.14698C2.26123 27.5093 2.81959 26.2113 3.7392 25.179C4.6588 24.1466 5.89066 23.4347 7.25196 23.1491C7.38929 23.1196 7.52939 23.1045 7.66992 23.1042H11.1562V22.054H7.96875V21.0039H15.8246C15.7346 21.2035 15.5948 21.3774 15.4182 21.5091C15.2417 21.6408 15.0342 21.726 14.8152 21.7568C14.0946 21.8593 13.4353 22.2146 12.9579 22.7579C12.4438 23.343 12.2188 24.0749 12.2188 24.8403C12.2183 25.5517 12.4757 26.2398 12.9444 26.7798H8.5V27.8299H19.5274C20.0902 27.8258 20.6292 27.6052 21.03 27.2147L24.3463 23.9369C24.7435 23.5421 24.9671 23.0085 24.9688 22.4518V18.3785C24.9691 18.0528 25.0715 17.7352 25.2617 17.4693C25.4519 17.2034 25.7207 17.0021 26.0312 16.8932V18.9035C26.0322 19.6478 26.2993 20.3678 26.7854 20.9363C27.2714 21.5048 27.9452 21.8852 28.6875 22.0103V23.1042C28.3577 23.1042 28.0202 23.0845 27.6923 23.1268C26.6985 23.2243 25.7603 23.6262 25.0089 24.2764C24.2576 24.9267 23.7306 25.7927 23.5016 26.7535L22.0203 28.3649ZM28.4405 27.3049H28.4675L29.1087 27.9387C29.2202 28.0493 29.2829 28.1989 29.2832 28.355C29.2832 28.4715 29.2482 28.5853 29.1828 28.6821C29.1173 28.779 29.0243 28.8544 28.9155 28.899C28.8066 28.9436 28.6868 28.9552 28.5713 28.9325C28.4557 28.9098 28.3496 28.8537 28.2663 28.7713L27.7773 28.2881L28.4405 27.3049ZM28.6875 31.5055C28.2272 31.5041 27.7726 31.4047 27.3546 31.214C26.9366 31.0234 26.5651 30.746 26.2653 30.4007C26.3494 30.3602 26.4212 30.2984 26.4733 30.2216L26.9338 29.539C27.1896 29.9097 27.5589 30.1898 27.9875 30.3379C28.4161 30.4861 28.8815 30.4945 29.3153 30.3621C29.7492 30.2297 30.1287 29.9633 30.3981 29.6021C30.6676 29.2409 30.8128 28.8038 30.8125 28.355C30.8133 28.0439 30.7432 27.7365 30.6074 27.4558C30.5826 27.4042 30.5553 27.3542 30.5266 27.3049H31.6934C31.863 27.7801 31.9148 28.2886 31.8446 28.7878C31.7743 29.2869 31.584 29.7621 31.2896 30.1735C30.9952 30.585 30.6052 30.9207 30.1525 31.1524C29.6997 31.3842 29.1974 31.5053 28.6875 31.5055Z" fill="#00AAFF"/>
<path id="Vector_4" d="M4.25 13.6522H3.1875V16.8027H4.25V13.6522Z" fill="#00AAFF"/>
</g>
</g>
</g></symbol><symbol id="email" viewBox="0 0 22 20"><g fill="none">
<g id="Message">
<path id="Stroke 1" d="M16.9026 6.85107L12.4593 10.4641C11.6198 11.1301 10.4387 11.1301 9.59919 10.4641L5.11841 6.85107" stroke="#31352B" stroke-width="1.5" stroke-linecap="round" stroke-linejoin="round"/>
<path id="Stroke 3" fill-rule="evenodd" clip-rule="evenodd" d="M15.9089 19C18.9502 19.0084 21 16.5095 21 13.4384V6.57001C21 3.49883 18.9502 1 15.9089 1H6.09114C3.04979 1 1 3.49883 1 6.57001V13.4384C1 16.5095 3.04979 19.0084 6.09114 19H15.9089Z" stroke="#31352B" stroke-width="1.5" stroke-linecap="round" stroke-linejoin="round"/>
</g>
</g></symbol><symbol id="frame" viewBox="0 0 17 16"><g fill="none">
<g id="Frame">
<g id="Group">
<path id="Vector" d="M10.318 14.3001C10.0587 14.3001 9.81927 14.1616 9.70234 13.9406L7.66076 10.0822C7.54864 9.87034 7.5679 9.61684 7.71028 9.42119L11.0058 5.20009L6.53816 8.31359C6.33112 8.44879 6.06285 8.46569 5.83861 8.36039L1.75613 6.43184C1.51125 6.31549 1.36199 6.07304 1.37712 5.81434C1.39156 5.55564 1.56835 5.32944 1.82561 5.24039L14.895 0.690388C15.1461 0.603938 15.4288 0.660488 15.6193 0.840538C15.8092 1.01929 15.8711 1.28709 15.7782 1.52499L10.9632 13.875C10.8683 14.1181 10.6296 14.2851 10.3558 14.2988C10.3434 14.2994 10.3304 14.3001 10.318 14.3001Z" fill="white"/>
</g>
</g>
</g></symbol><symbol id="gplay" viewBox="0 0 135 40"><g fill="none">
<rect x="0.5" y="0.5" width="134" height="39" rx="4.5" fill="#31352B"/>
<rect x="0.5" y="0.5" width="134" height="39" rx="4.5" stroke="#C2C2C2"/>
<path d="M68.136 21.7511C65.784 21.7511 63.867 23.5401 63.867 26.0041C63.867 28.4531 65.784 30.2571 68.136 30.2571C70.489 30.2571 72.406 28.4531 72.406 26.0041C72.405 23.5401 70.488 21.7511 68.136 21.7511ZM68.136 28.5831C66.847 28.5831 65.736 27.5201 65.736 26.0051C65.736 24.4741 66.848 23.4271 68.136 23.4271C69.425 23.4271 70.536 24.4741 70.536 26.0051C70.536 27.5191 69.425 28.5831 68.136 28.5831ZM58.822 21.7511C56.47 21.7511 54.553 23.5401 54.553 26.0041C54.553 28.4531 56.47 30.2571 58.822 30.2571C61.175 30.2571 63.092 28.4531 63.092 26.0041C63.092 23.5401 61.175 21.7511 58.822 21.7511ZM58.822 28.5831C57.533 28.5831 56.422 27.5201 56.422 26.0051C56.422 24.4741 57.534 23.4271 58.822 23.4271C60.111 23.4271 61.222 24.4741 61.222 26.0051C61.223 27.5191 60.111 28.5831 58.822 28.5831ZM47.744 23.0571V24.8611H52.062C51.933 25.8761 51.595 26.6171 51.079 27.1321C50.451 27.7601 49.468 28.4531 47.744 28.4531C45.086 28.4531 43.008 26.3101 43.008 23.6521C43.008 20.9941 45.086 18.8511 47.744 18.8511C49.178 18.8511 50.225 19.4151 50.998 20.1401L52.271 18.8671C51.191 17.8361 49.758 17.0471 47.744 17.0471C44.103 17.0471 41.042 20.0111 41.042 23.6521C41.042 27.2931 44.103 30.2571 47.744 30.2571C49.709 30.2571 51.192 29.6121 52.351 28.4041C53.543 27.2121 53.914 25.5361 53.914 24.1831C53.914 23.7651 53.882 23.3781 53.817 23.0561H47.744V23.0571ZM93.052 24.4581C92.698 23.5081 91.618 21.7511 89.411 21.7511C87.22 21.7511 85.399 23.4751 85.399 26.0041C85.399 28.3881 87.204 30.2571 89.62 30.2571C91.569 30.2571 92.697 29.0651 93.165 28.3721L91.715 27.4051C91.232 28.1141 90.571 28.5811 89.62 28.5811C88.67 28.5811 87.993 28.1461 87.558 27.2921L93.245 24.9401L93.052 24.4581ZM87.252 25.8761C87.204 24.2321 88.525 23.3951 89.476 23.3951C90.217 23.3951 90.845 23.7661 91.055 24.2971L87.252 25.8761ZM82.629 30.0001H84.497V17.4991H82.629V30.0001ZM79.567 22.7021H79.503C79.084 22.2021 78.278 21.7511 77.264 21.7511C75.137 21.7511 73.188 23.6201 73.188 26.0211C73.188 28.4051 75.137 30.2581 77.264 30.2581C78.279 30.2581 79.084 29.8071 79.503 29.2921H79.567V29.9041C79.567 31.5311 78.697 32.4011 77.296 32.4011C76.152 32.4011 75.443 31.5801 75.153 30.8871L73.526 31.5641C73.993 32.6911 75.233 34.0771 77.296 34.0771C79.487 34.0771 81.34 32.7881 81.34 29.6461V22.0101H79.568V22.7021H79.567ZM77.425 28.5831C76.136 28.5831 75.057 27.5031 75.057 26.0211C75.057 24.5221 76.136 23.4271 77.425 23.4271C78.697 23.4271 79.696 24.5221 79.696 26.0211C79.696 27.5031 78.697 28.5831 77.425 28.5831ZM101.806 17.4991H97.335V30.0001H99.2V25.2641H101.805C103.873 25.2641 105.907 23.7671 105.907 21.3821C105.907 18.9971 103.874 17.4991 101.806 17.4991ZM101.854 23.5241H99.2V19.2391H101.854C103.249 19.2391 104.041 20.3941 104.041 21.3821C104.041 22.3501 103.249 23.5241 101.854 23.5241ZM113.386 21.7291C112.035 21.7291 110.636 22.3241 110.057 23.6431L111.713 24.3341C112.067 23.6431 112.727 23.4171 113.418 23.4171C114.383 23.4171 115.364 23.9961 115.38 25.0251V25.1541C115.042 24.9611 114.318 24.6721 113.434 24.6721C111.649 24.6721 109.831 25.6531 109.831 27.4861C109.831 29.1591 111.295 30.2361 112.935 30.2361C114.189 30.2361 114.881 29.6731 115.315 29.0131H115.379V29.9781H117.181V25.1851C117.182 22.9671 115.524 21.7291 113.386 21.7291ZM113.16 28.5801C112.55 28.5801 111.697 28.2741 111.697 27.5181C111.697 26.5531 112.759 26.1831 113.676 26.1831C114.495 26.1831 114.882 26.3601 115.38 26.6011C115.235 27.7601 114.238 28.5801 113.16 28.5801ZM123.743 22.0021L121.604 27.4221H121.54L119.32 22.0021H117.31L120.639 29.5771L118.741 33.7911H120.687L125.818 22.0021H123.743ZM106.937 30.0001H108.802V17.4991H106.937V30.0001Z" fill="white"/>
<path d="M47.418 10.2429C47.418 11.0809 47.1701 11.7479 46.673 12.2459C46.109 12.8379 45.3731 13.1339 44.4691 13.1339C43.6031 13.1339 42.8661 12.8339 42.2611 12.2339C41.6551 11.6329 41.3521 10.8889 41.3521 10.0009C41.3521 9.11194 41.6551 8.36794 42.2611 7.76794C42.8661 7.16694 43.6031 6.86694 44.4691 6.86694C44.8991 6.86694 45.3101 6.95094 45.7001 7.11794C46.0911 7.28594 46.404 7.50894 46.6381 7.78794L46.111 8.31594C45.714 7.84094 45.167 7.60394 44.468 7.60394C43.836 7.60394 43.29 7.82594 42.829 8.26994C42.368 8.71394 42.1381 9.29094 42.1381 9.99994C42.1381 10.7089 42.368 11.2859 42.829 11.7299C43.29 12.1739 43.836 12.3959 44.468 12.3959C45.138 12.3959 45.6971 12.1729 46.1441 11.7259C46.4341 11.4349 46.602 11.0299 46.647 10.5109H44.468V9.78994H47.375C47.405 9.94694 47.418 10.0979 47.418 10.2429Z" fill="white"/>
<path d="M52.0281 7.737H49.2961V9.639H51.7601V10.36H49.2961V12.262H52.0281V13H48.5251V7H52.0281V7.737Z" fill="white"/>
<path d="M55.279 13H54.508V7.737H52.832V7H56.955V7.737H55.279V13Z" fill="white"/>
<path d="M59.938 13V7H60.709V13H59.938Z" fill="white"/>
<path d="M64.1281 13H63.3572V7.737H61.6812V7H65.8042V7.737H64.1281V13Z" fill="white"/>
<path d="M73.6089 12.225C73.0189 12.831 72.2859 13.134 71.4089 13.134C70.5319 13.134 69.7989 12.831 69.2099 12.225C68.6199 11.619 68.3259 10.877 68.3259 9.99999C68.3259 9.12299 68.6199 8.38099 69.2099 7.77499C69.7989 7.16899 70.5319 6.86499 71.4089 6.86499C72.2809 6.86499 73.0129 7.16999 73.6049 7.77899C74.1969 8.38799 74.4929 9.12799 74.4929 9.99999C74.4929 10.877 74.1979 11.619 73.6089 12.225ZM69.7789 11.722C70.2229 12.172 70.7659 12.396 71.4089 12.396C72.0519 12.396 72.5959 12.171 73.0389 11.722C73.4829 11.272 73.7059 10.698 73.7059 9.99999C73.7059 9.30199 73.4829 8.72799 73.0389 8.27799C72.5959 7.82799 72.0519 7.60399 71.4089 7.60399C70.7659 7.60399 70.2229 7.82899 69.7789 8.27799C69.3359 8.72799 69.1129 9.30199 69.1129 9.99999C69.1129 10.698 69.3359 11.272 69.7789 11.722Z" fill="white"/>
<path d="M75.5749 13V7H76.513L79.429 11.667H79.4619L79.429 10.511V7H80.1999V13H79.3949L76.344 8.106H76.3109L76.344 9.262V13H75.5749Z" fill="white"/>
<path d="M47.418 10.2429C47.418 11.0809 47.1701 11.7479 46.673 12.2459C46.109 12.8379 45.3731 13.1339 44.4691 13.1339C43.6031 13.1339 42.8661 12.8339 42.2611 12.2339C41.6551 11.6329 41.3521 10.8889 41.3521 10.0009C41.3521 9.11194 41.6551 8.36794 42.2611 7.76794C42.8661 7.16694 43.6031 6.86694 44.4691 6.86694C44.8991 6.86694 45.3101 6.95094 45.7001 7.11794C46.0911 7.28594 46.404 7.50894 46.6381 7.78794L46.111 8.31594C45.714 7.84094 45.167 7.60394 44.468 7.60394C43.836 7.60394 43.29 7.82594 42.829 8.26994C42.368 8.71394 42.1381 9.29094 42.1381 9.99994C42.1381 10.7089 42.368 11.2859 42.829 11.7299C43.29 12.1739 43.836 12.3959 44.468 12.3959C45.138 12.3959 45.6971 12.1729 46.1441 11.7259C46.4341 11.4349 46.602 11.0299 46.647 10.5109H44.468V9.78994H47.375C47.405 9.94694 47.418 10.0979 47.418 10.2429Z" stroke="white" stroke-width="0.2" stroke-miterlimit="10"/>
<path d="M52.0281 7.737H49.2961V9.639H51.7601V10.36H49.2961V12.262H52.0281V13H48.5251V7H52.0281V7.737Z" stroke="white" stroke-width="0.2" stroke-miterlimit="10"/>
<path d="M55.279 13H54.508V7.737H52.832V7H56.955V7.737H55.279V13Z" stroke="white" stroke-width="0.2" stroke-miterlimit="10"/>
<path d="M59.938 13V7H60.709V13H59.938Z" stroke="white" stroke-width="0.2" stroke-miterlimit="10"/>
<path d="M64.1281 13H63.3572V7.737H61.6812V7H65.8042V7.737H64.1281V13Z" stroke="white" stroke-width="0.2" stroke-miterlimit="10"/>
<path d="M73.6089 12.225C73.0189 12.831 72.2859 13.134 71.4089 13.134C70.5319 13.134 69.7989 12.831 69.2099 12.225C68.6199 11.619 68.3259 10.877 68.3259 9.99999C68.3259 9.12299 68.6199 8.38099 69.2099 7.77499C69.7989 7.16899 70.5319 6.86499 71.4089 6.86499C72.2809 6.86499 73.0129 7.16999 73.6049 7.77899C74.1969 8.38799 74.4929 9.12799 74.4929 9.99999C74.4929 10.877 74.1979 11.619 73.6089 12.225ZM69.7789 11.722C70.2229 12.172 70.7659 12.396 71.4089 12.396C72.0519 12.396 72.5959 12.171 73.0389 11.722C73.4829 11.272 73.7059 10.698 73.7059 9.99999C73.7059 9.30199 73.4829 8.72799 73.0389 8.27799C72.5959 7.82799 72.0519 7.60399 71.4089 7.60399C70.7659 7.60399 70.2229 7.82899 69.7789 8.27799C69.3359 8.72799 69.1129 9.30199 69.1129 9.99999C69.1129 10.698 69.3359 11.272 69.7789 11.722Z" stroke="white" stroke-width="0.2" stroke-miterlimit="10"/>
<path d="M75.5749 13V7H76.513L79.429 11.667H79.4619L79.429 10.511V7H80.1999V13H79.3949L76.344 8.106H76.3109L76.344 9.262V13H75.5749Z" stroke="white" stroke-width="0.2" stroke-miterlimit="10"/>
<g filter="url(#filter0_ii_0_545)">
<path d="M10.436 7.53797C10.145 7.84597 9.97299 8.32397 9.97299 8.94297V31.059C9.97299 31.679 10.145 32.156 10.436 32.464L10.51 32.536L22.899 20.147V20.001V19.855L10.51 7.46497L10.436 7.53797Z" fill="url(#paint0_linear_0_545)"/>
<path d="M27.028 24.278L22.899 20.147V20.001V19.855L27.029 15.725L27.122 15.778L32.015 18.558C33.412 19.352 33.412 20.651 32.015 21.446L27.122 24.226L27.028 24.278Z" fill="url(#paint1_linear_0_545)"/>
<g filter="url(#filter1_i_0_545)">
<path d="M27.122 24.225L22.898 20.001L10.436 32.464C10.896 32.952 11.657 33.012 12.514 32.526L27.122 24.225Z" fill="url(#paint2_linear_0_545)"/>
</g>
<path d="M27.122 15.7769L12.514 7.47694C11.657 6.98994 10.896 7.05094 10.436 7.53894L22.899 20.0019L27.122 15.7769Z" fill="url(#paint3_linear_0_545)"/>
</g>

</g></symbol><symbol id="location" viewBox="0 0 18 20"><g fill="none">
<g id="Location">
<path id="Stroke 1" fill-rule="evenodd" clip-rule="evenodd" d="M11.5 8.50051C11.5 7.11924 10.3808 6 9.00051 6C7.61924 6 6.5 7.11924 6.5 8.50051C6.5 9.88076 7.61924 11 9.00051 11C10.3808 11 11.5 9.88076 11.5 8.50051Z" stroke="#31352B" stroke-width="1.5" stroke-linecap="round" stroke-linejoin="round"/>
<path id="Stroke 3" fill-rule="evenodd" clip-rule="evenodd" d="M8.99951 19C7.80104 19 1.5 13.8984 1.5 8.56329C1.5 4.38664 4.8571 1 8.99951 1C13.1419 1 16.5 4.38664 16.5 8.56329C16.5 13.8984 10.198 19 8.99951 19Z" stroke="#31352B" stroke-width="1.5" stroke-linecap="round" stroke-linejoin="round"/>
</g>
</g></symbol><symbol id="phone" viewBox="0 0 22 22"><g fill="none">
<g id="Calling">
<path id="Stroke 1" d="M13.353 1.5C17.054 1.911 19.978 4.831 20.393 8.532" stroke="#31352B" stroke-width="1.5" stroke-linecap="round" stroke-linejoin="round"/>
<path id="Stroke 3" d="M13.353 5.04297C15.124 5.38697 16.508 6.77197 16.853 8.54297" stroke="#31352B" stroke-width="1.5" stroke-linecap="round" stroke-linejoin="round"/>
<path id="Stroke 5" fill-rule="evenodd" clip-rule="evenodd" d="M10.0315 11.4724C14.0205 15.4604 14.9254 10.8467 17.4653 13.3848C19.9138 15.8328 21.3222 16.3232 18.2188 19.4247C17.8302 19.737 15.3613 23.4943 6.68447 14.8197C-1.99341 6.144 1.76157 3.67244 2.07394 3.28395C5.18377 0.173846 5.66682 1.58938 8.11539 4.03733C10.6541 6.5765 6.04254 7.48441 10.0315 11.4724Z" stroke="#31352B" stroke-width="1.5" stroke-linecap="round" stroke-linejoin="round"/>
</g>
</g></symbol><symbol id="pizza" viewBox="0 0 45 44"><g fill="none">
<g id="pizza 1" clip-path="url(#clip0_0_172)">
<g id="Group">
<g id="Group_2">
<path id="Vector" d="M43.8581 43.7521C43.6233 43.9838 43.2762 44.0611 42.9657 43.9499L7.27139 31.2228C6.03131 31.9811 4.4584 32.1587 3.01577 31.5613C0.62113 30.5694 -0.520204 27.8141 0.471684 25.4193C2.81081 19.7725 6.18806 14.718 10.5099 10.3961C14.8318 6.07421 19.8863 2.69688 25.5332 0.357838C26.1196 0.114979 26.7274 -3.8147e-06 27.3259 -3.8147e-06C29.1714 8.01086e-05 30.9262 1.09364 31.6751 2.90201C32.179 4.11871 32.1314 5.42823 31.6494 6.55263L44.0674 42.8624C44.1742 43.1745 44.0929 43.5203 43.8581 43.7521ZM12.676 31.3252L16.459 32.6739C16.9031 32.2007 17.1196 31.5493 17.0328 30.8905C16.9564 30.3104 16.6587 29.7947 16.1945 29.4385C15.7304 29.0823 15.1556 28.9284 14.5751 29.0046C13.9951 29.081 13.4795 29.3786 13.1233 29.8429C12.7951 30.2706 12.639 30.7924 12.676 31.3252ZM30.0872 3.55986C29.4579 2.04066 27.7098 1.31664 26.1909 1.94605C15.1875 6.50373 6.61758 15.0737 2.05972 26.0772C1.7549 26.813 1.7549 27.6235 2.05972 28.3595C2.36454 29.0954 2.93766 29.6685 3.67354 29.9733C4.40942 30.2781 5.21998 30.2781 5.95586 29.9733C6.69174 29.6685 7.26486 29.0954 7.56968 28.3595C9.52054 23.6495 12.3376 19.4336 15.9425 15.8287C19.5474 12.2238 23.7633 9.40687 28.4732 7.45592C29.9924 6.82677 30.7165 5.07889 30.0872 3.55986ZM37.7221 29.6202C37.6443 29.6221 37.5664 29.6265 37.4888 29.6367C36.9088 29.7131 36.3931 30.0108 36.037 30.4749C35.6808 30.9391 35.5267 31.5142 35.603 32.0942C35.7607 33.2917 36.8629 34.1375 38.0608 33.98C38.4303 33.9314 38.7772 33.7881 39.0731 33.57L37.7221 29.6202ZM39.6443 35.241C39.2256 35.469 38.7656 35.6208 38.2851 35.6841C36.1477 35.9662 34.1803 34.4557 33.899 32.3185C33.7627 31.2833 34.0377 30.257 34.6734 29.4285C35.2857 28.6306 36.1622 28.1093 37.151 27.9503L35.4429 22.9557L33.4786 24.4631C33.1021 24.7518 32.5625 24.681 32.2737 24.3044C31.9847 23.9279 32.0558 23.3884 32.4323 23.0995L34.8562 21.2397L30.4137 8.24981C30.0411 8.57379 29.612 8.84484 29.1314 9.04396C20.0237 12.8165 12.9304 19.9098 9.15806 29.0173C9.02692 29.334 8.86398 29.6281 8.67604 29.899L10.9774 30.7195C11.0577 30.0262 11.3239 29.3648 11.7598 28.7967C12.3954 27.9682 13.3157 27.437 14.3509 27.3007C14.5243 27.2779 14.6972 27.2665 14.8693 27.2665C15.7242 27.2665 16.5512 27.5458 17.2409 28.075C18.0694 28.7107 18.6006 29.6308 18.737 30.6662C18.8593 31.5956 18.6424 32.5162 18.1554 33.2788L28.838 37.0877L29.2428 36.1103C29.38 35.7793 29.6999 35.5795 30.0371 35.5795C30.1467 35.5795 30.2581 35.6007 30.3657 35.6452C30.8041 35.8268 31.0124 36.3296 30.8308 36.768L30.459 37.6656L41.8645 41.7324L39.6443 35.241Z" fill="#363853"/>
</g>
</g>
<g id="Group_3">
<g id="Group_4">
<path id="Vector_2" d="M9.39401 20.9451C9.39143 20.9492 9.3843 20.9601 9.38155 20.964C9.11841 21.3587 8.58585 21.4647 8.19097 21.2018C7.79678 20.9394 7.68987 20.4066 7.95078 20.0118C8.11535 19.7589 8.39069 19.621 8.67196 19.621C8.83112 19.621 8.99208 19.6652 9.13577 19.7576C9.53503 20.0142 9.65062 20.5459 9.39401 20.9451Z" fill="#363853"/>
</g>
</g>
<g id="Group_5">
<g id="Group_6">
<path id="Vector_3" d="M8.08706 23.08C7.2496 24.5483 6.49679 26.0851 5.8496 27.6473C5.66801 28.0859 5.16502 28.2939 4.72683 28.1123C4.28829 27.9307 4.08015 27.428 4.26182 26.9896C4.93643 25.361 5.72121 23.7591 6.59416 22.2285C6.75272 21.9506 7.04284 21.7947 7.34139 21.7947C7.48576 21.7947 7.63211 21.8312 7.76635 21.9077C8.17859 22.1429 8.32227 22.6678 8.08706 23.08Z" fill="#363853"/>
</g>
</g>
<g id="Group_7">
<g id="Group_8">
<path id="Vector_4" d="M27.0054 33.0012C26.8351 33.0237 26.6621 33.035 26.4913 33.035C24.539 33.035 22.8744 31.5737 22.6193 29.6358C22.338 27.4987 23.8476 25.5311 25.9847 25.2497C26.1551 25.2272 26.3281 25.2159 26.4989 25.2159C28.4511 25.2159 30.1157 26.6772 30.3708 28.6153C30.6521 30.7523 29.1424 32.7198 27.0054 33.0012ZM28.6668 28.8396C28.5238 27.7536 27.5919 26.9347 26.4989 26.9347C26.4028 26.9347 26.3053 26.941 26.2091 26.9538C25.0116 27.1115 24.1658 28.2139 24.3234 29.4115C24.4664 30.4974 25.3983 31.3162 26.4913 31.3162C26.5873 31.3162 26.6849 31.3098 26.781 31.2971C27.9785 31.1393 28.8245 30.0369 28.6668 28.8396Z" fill="#363853"/>
</g>
</g>
<g id="Group_9">
<g id="Group_10">
<path id="Vector_5" d="M26.7818 22.3116C26.6113 22.3341 26.4384 22.3455 26.2676 22.3455C24.3154 22.3455 22.6507 20.8841 22.3957 18.9461C22.2593 17.9108 22.5343 16.8846 23.17 16.056C23.8056 15.2276 24.7258 14.6963 25.7611 14.56C25.9313 14.5375 26.1042 14.5263 26.275 14.5263C28.2272 14.5263 29.8919 15.9876 30.1471 17.9257C30.4285 20.0626 28.9188 22.0301 26.7818 22.3116ZM28.4432 18.1499C28.3002 17.0639 27.3681 16.245 26.2752 16.245C26.1792 16.245 26.0816 16.2515 25.9855 16.2641C25.4055 16.3406 24.8898 16.6383 24.5336 17.1024C24.1774 17.5666 24.0233 18.1417 24.0997 18.7218C24.2427 19.8077 25.1747 20.6266 26.2676 20.6266C26.3637 20.6266 26.4612 20.6203 26.5574 20.6075C27.7547 20.4498 28.6007 19.3474 28.4432 18.1499Z" fill="#363853"/>
</g>
</g>
<g id="Group_11">
<g id="Group_12">
<path id="Vector_6" d="M21.1138 25.8718L18.4724 26.2196C18.0021 26.2821 17.5701 25.9504 17.5082 25.4799C17.4461 25.0093 17.7774 24.5776 18.2479 24.5157L20.8893 24.1679C20.9274 24.1628 20.9652 24.1604 21.0026 24.1604C21.4272 24.1604 21.7965 24.4752 21.8534 24.9076C21.9156 25.3781 21.5844 25.8099 21.1138 25.8718Z" fill="#363853"/>
</g>
</g>
<g id="Group_13">
<g id="Group_14">
<path id="Vector_7" d="M19.7743 19.5299L19.5411 21.3022C19.4792 21.7728 19.0476 22.1042 18.577 22.0421C18.1064 21.9801 17.7752 21.5485 17.8371 21.0779L18.0705 19.3056C18.1274 18.8731 18.4966 18.5583 18.9213 18.5583C18.9587 18.5583 18.9965 18.5607 19.0345 18.5657C19.5051 18.6277 19.8363 19.0593 19.7743 19.5299Z" fill="#363853"/>
</g>
</g>
</g>

</g></symbol><symbol id="sandwich" viewBox="0 0 44 44"><g fill="none">
<g id="sandwich 1" clip-path="url(#clip0_0_263)">
<g id="Group">
<g id="Group_2">
<g id="Group_3">
<path id="Vector" d="M41.7999 6.59989H40.3333V5.13319C40.3333 3.91821 39.3482 2.93319 38.1333 2.93319H36.3865L35.3253 0.810968C35.0787 0.312358 34.5697 -0.00234463 34.0134 -0.00011025H33C32.1899 -0.00011025 31.5333 0.656538 31.5333 1.46659V2.93328H23.4666C22.2515 2.93328 21.2666 3.91821 21.2666 5.13328V6.59989H19.8C18.585 6.59989 17.6 7.58491 17.6 8.79989V10.2666C17.6 11.0766 18.2566 11.7333 19.0666 11.7333H19.1444L20.0024 19.31L16.4692 18.4799C16.291 18.2057 16.1025 17.9336 15.8928 17.6666L14.6461 12.3008C14.5691 11.969 14.2739 11.734 13.9333 11.7332H9.71957C7.73149 9.98127 5.38187 9.18927 3.60941 9.71066L2.53287 8.53735C2.12605 8.09323 1.48693 7.94722 0.927647 8.17066C0.36742 8.38653 -0.00159544 8.92553 -4.85612e-05 9.52589V41.8146C0.00158425 43.0208 0.979038 43.9983 2.18526 43.9999H38.1333C38.5061 43.9996 38.8193 43.7198 38.8615 43.3494L42.4541 11.7332H42.5333C43.3434 11.7332 44 11.0765 44 10.2665V8.79989C44 7.58491 43.015 6.59989 41.7999 6.59989ZM33 1.46659H34.0134L34.7467 2.93328H33V1.46659ZM22.7333 5.13319C22.7333 4.72817 23.0616 4.39989 23.4666 4.39989H38.1333C38.5383 4.39989 38.8666 4.72817 38.8666 5.13319V6.59989H22.7333V5.13319ZM20.68 20.9732L20.7262 20.982L21.3187 21.1227L21.7162 25.2844C20.5645 24.469 19.1864 24.0346 17.7753 24.0421C18.0469 22.7482 17.9031 21.4017 17.3646 20.1943L20.68 20.9732ZM22.1129 27.4596L22.1224 27.4677C22.388 27.7134 22.6403 27.9734 22.8777 28.2464C23.7502 29.2199 24.3917 30.3778 24.7543 31.6337C24.8783 32.0711 24.9421 32.5233 24.9443 32.9779L18.095 25.5081C19.6184 25.6787 21.0369 26.3677 22.1129 27.4596ZM14.385 18.1397V18.1382C15.9676 19.9569 16.7046 22.1415 16.3548 23.6096L8.89165 15.4733C10.3972 15.1367 12.6866 16.1941 14.385 18.1397ZM13.3466 13.1999L13.9333 15.6969C13.344 15.237 12.7017 14.8495 12.0201 14.5427C11.7429 14.0738 11.4329 13.6251 11.0924 13.1999H13.3466ZM9.66019 13.7455H9.66311C9.72395 13.8152 9.77388 13.8922 9.83249 13.9655C9.14404 13.9021 8.45087 14.0185 7.82095 14.3036L4.80618 11.016C6.28026 11.0373 8.2038 12.0742 9.66019 13.7455ZM30.737 42.1025C30.6235 42.3636 30.3661 42.5328 30.0813 42.5333H23.4666H2.18526C1.78831 42.5333 1.46656 42.2115 1.46656 41.8146L1.45333 9.53328L16.1721 25.5815V25.5852L24.8166 35.0093L24.8262 35.0203L29.568 40.1917C29.5848 40.2137 29.6024 40.2357 29.6215 40.257L30.6049 41.3291C30.7987 41.5377 30.8506 41.8413 30.737 42.1025ZM26.1976 34.3448C26.3318 33.9069 26.4 33.4513 26.4 32.9933C26.7852 33.3182 27.1442 33.673 27.4736 34.0544C27.8832 34.5225 28.2469 35.0289 28.5596 35.5666C28.9879 36.2867 29.2906 37.0742 29.455 37.8957L26.1976 34.3448ZM37.4784 42.5333H32.1361C32.4108 41.7734 32.2366 40.9238 31.6851 40.3333L30.9466 39.5266C31.0915 38.299 30.8935 37.0552 30.3746 35.9333H38.2286L37.4784 42.5333ZM38.3951 34.4666H29.5951C29.2941 33.9836 28.9568 33.5242 28.586 33.0923C27.8643 32.2546 27.0171 31.534 26.0743 30.956C25.6434 29.5974 24.931 28.3447 23.9836 27.2798C23.7636 27.0305 23.5436 26.798 23.3126 26.5743L22.7333 20.4635C22.7035 20.1509 22.4779 19.892 22.1723 19.8197L21.5226 19.6657L21.3686 18.3332H40.2292L38.3951 34.4666ZM40.3956 16.8666H21.2021L20.6213 11.7333H40.9786L40.3956 16.8666ZM42.5333 10.2666H19.0666V8.79989C19.0666 8.39487 19.3949 8.06658 19.8 8.06658H41.7999C42.205 8.06658 42.5333 8.39487 42.5333 8.79989V10.2666Z" fill="#363853"/>
<path id="Vector_2" d="M31.1006 32.2667C31.1423 32.2667 31.1834 32.2608 31.2245 32.2594C31.2355 32.2594 31.2465 32.2667 31.2575 32.2667C31.2943 32.2644 31.3308 32.2593 31.3667 32.2513C32.5147 32.1738 33.5724 31.6017 34.2655 30.6834C35.1895 29.3853 35.4536 27.7299 34.9798 26.2087C34.8778 25.8288 34.7847 25.4563 34.6945 25.0962C34.1225 22.8031 33.5762 20.6404 31.2596 20.543C31.2362 20.543 31.2142 20.5386 31.1907 20.5386C31.1672 20.5386 31.1328 20.5334 31.1005 20.5334C28.5089 20.5334 26.3998 23.1654 26.3998 26.4001C26.3998 29.6349 28.5089 32.2667 31.1006 32.2667ZM31.6682 22.11C32.4264 22.4077 32.7601 23.4014 33.2719 25.451C33.3636 25.8177 33.4589 26.202 33.5652 26.5914C33.9163 27.6723 33.7448 28.8549 33.101 29.7916C32.8673 30.0981 32.5682 30.3486 32.2254 30.5249C32.2006 29.2643 31.9524 28.0181 31.4921 26.8443C31.4188 26.6155 31.3454 26.3947 31.2809 26.1843C30.8542 24.7962 31.3542 22.9973 31.6682 22.11ZM30.0922 22.22C29.615 23.6363 29.5416 25.1577 29.8802 26.6134C29.9477 26.8334 30.0225 27.0614 30.1002 27.2983C30.4669 28.4174 30.9069 29.7704 30.7272 30.7662C29.1198 30.5154 27.8665 28.6542 27.8665 26.4C27.8666 24.453 28.8016 22.8 30.0922 22.22Z" fill="#363853"/>
<path id="Vector_3" d="M3.88139 38.563L3.36293 39.0815C3.17232 39.2657 3.09584 39.5383 3.16296 39.7947C3.23007 40.0511 3.43031 40.2514 3.68666 40.3184C3.9431 40.3855 4.21569 40.309 4.39985 40.1184L4.91831 39.6C5.19624 39.3122 5.19228 38.8548 4.90938 38.572C4.62656 38.2891 4.16911 38.2851 3.88139 38.563Z" fill="#363853"/>
<path id="Vector_4" d="M10.8929 33.6264C11.1794 33.3399 11.1794 32.8753 10.8929 32.5887C10.6064 32.3021 10.1418 32.3021 9.85518 32.5887L9.33672 33.1071C9.15135 33.2923 9.07891 33.5624 9.14663 33.8155C9.21434 34.0687 9.412 34.2664 9.66509 34.3343C9.91817 34.4022 10.1883 34.3299 10.3736 34.1447L10.8929 33.6264Z" fill="#363853"/>
<path id="Vector_5" d="M4.39994 31.7482L3.88148 32.2667C3.69087 32.4509 3.61439 32.7234 3.6815 32.9799C3.74862 33.2362 3.94885 33.4365 4.20521 33.5036C4.46164 33.5707 4.73424 33.4942 4.9184 33.3036L5.43686 32.7851C5.71478 32.4974 5.71083 32.04 5.42793 31.7572C5.1451 31.4743 4.68766 31.4703 4.39994 31.7482Z" fill="#363853"/>
<path id="Vector_6" d="M4.39994 26.6149L3.88148 27.1333C3.69087 27.3175 3.61439 27.5901 3.6815 27.8465C3.74862 28.1029 3.94885 28.3031 4.20521 28.3702C4.46164 28.4373 4.73424 28.3609 4.9184 28.1702L5.43686 27.6518C5.71478 27.3641 5.71083 26.9066 5.42793 26.6238C5.1451 26.341 4.68766 26.337 4.39994 26.6149Z" fill="#363853"/>
<path id="Vector_7" d="M11 38.563L10.4815 39.0815C10.2909 39.2657 10.2144 39.5383 10.2816 39.7947C10.3487 40.0511 10.5489 40.2514 10.8053 40.3184C11.0617 40.3855 11.3343 40.309 11.5185 40.1184L12.0369 39.6C12.3148 39.3122 12.3109 38.8548 12.028 38.572C11.7452 38.2891 11.2877 38.2851 11 38.563Z" fill="#363853"/>
<path id="Vector_8" d="M16.3481 38.5631L15.8297 39.0816C15.6391 39.2658 15.5626 39.5384 15.6297 39.7948C15.6968 40.0512 15.897 40.2515 16.1534 40.3185C16.4098 40.3856 16.6824 40.3091 16.8666 40.1185L17.385 39.6001C17.663 39.3123 17.659 38.8549 17.3761 38.5721C17.0932 38.2893 16.6358 38.2852 16.3481 38.5631Z" fill="#363853"/>
</g>
</g>
</g>
</g>

</g></symbol><symbol id="search" viewBox="0 0 21 21"><g fill="none">
<g id="Search btn">
<g id="Search">
<ellipse id="Ellipse_739" cx="9.76663" cy="9.63009" rx="8.98856" ry="8.88424" stroke="#363853" stroke-width="1.5" stroke-linecap="round" stroke-linejoin="round"/>
<path id="Line_181" d="M16.0184 16.2708L19.5424 19.7448" stroke="#363853" stroke-width="1.5" stroke-linecap="round" stroke-linejoin="round"/>
</g>
</g>
</g></symbol><symbol id="set" viewBox="0 0 44 44"><g fill="none">
<g id="dish 1" clip-path="url(#clip0_0_228)">
<g id="Group">
<g id="Group_2">
<path id="Vector" d="M31.158 14.6574L30.6872 13.1258C30.0892 11.3861 28.1775 10.455 26.4173 11.046C25.4271 11.3786 24.6495 12.1471 24.3131 13.1258L23.8423 14.6574C23.4461 15.949 23.3629 17.3147 23.5995 18.6439C23.8153 19.763 24.5342 20.7245 25.5531 21.2569L25.0259 32.907C24.9553 33.5572 25.1687 34.2064 25.6125 34.6915C26.5671 35.7235 28.1874 35.7952 29.2314 34.8518C29.2879 34.8008 29.342 34.7473 29.3936 34.6915C29.8275 34.2202 30.0406 33.59 29.9803 32.9555L29.4501 21.2555C30.4677 20.7228 31.1853 19.762 31.4007 18.6439C31.6373 17.3147 31.5542 15.949 31.158 14.6574ZM29.9561 18.3917C29.7973 19.1957 29.2176 19.8554 28.4344 20.1233C28.1371 20.2337 27.9456 20.5208 27.9599 20.8343L28.5173 33.0701C28.5429 33.3101 28.4628 33.5494 28.2973 33.7268C27.8557 34.1588 27.1446 34.1588 26.703 33.7268C26.5292 33.535 26.4503 33.277 26.4874 33.0222L27.0403 20.8343C27.0546 20.5208 26.8631 20.2337 26.5659 20.1233C25.7827 19.8554 25.203 19.1957 25.0442 18.3917C24.848 17.2881 24.9172 16.1544 25.2459 15.0821L25.7167 13.5499C26.081 12.5763 27.1747 12.079 28.1598 12.4391C28.6805 12.6294 29.091 13.0352 29.2836 13.5499L29.7544 15.0821C30.0827 16.1545 30.1519 17.2881 29.9561 18.3917Z" fill="#363853"/>
</g>
</g>
<g id="Group_3">
<g id="Group_4">
<path id="Vector_2" d="M19.8 10.8723C19.395 10.8723 19.0667 11.1969 19.0667 11.5971V17.8205L17.0815 19.7826C16.9347 19.9272 16.8566 20.1266 16.8667 20.3313L17.5083 33.0157C17.5236 33.2892 17.4232 33.5567 17.2311 33.7543C16.8297 34.1545 16.176 34.1574 15.7709 33.7606C15.7687 33.7585 15.7666 33.7563 15.7645 33.7543C15.5723 33.5567 15.472 33.2892 15.4873 33.0157L16.1333 20.3313C16.1436 20.1267 16.0658 19.9273 15.9192 19.7826L13.9333 17.8205V11.5971C13.9333 11.1969 13.605 10.8723 13.2 10.8723C12.795 10.8723 12.4667 11.1969 12.4667 11.5971V18.1205C12.4667 18.3128 12.544 18.4971 12.6815 18.633L14.6513 20.5806L14.0257 32.9454C13.9592 34.296 15.013 35.4443 16.3795 35.51C17.7459 35.5758 18.9077 34.5343 18.9743 33.1836C18.9782 33.1043 18.9782 33.0248 18.9743 32.9454L18.3487 20.5807L20.3185 18.6331C20.456 18.4972 20.5333 18.3129 20.5333 18.1206V11.5972C20.5333 11.1969 20.205 10.8723 19.8 10.8723Z" fill="#363853"/>
</g>
</g>
<g id="Group_5">
<g id="Group_6">
<path id="Vector_3" d="M15.4 10.8723C14.995 10.8723 14.6667 11.1969 14.6667 11.5971V17.3957C14.6667 17.796 14.995 18.1205 15.4 18.1205C15.805 18.1205 16.1334 17.796 16.1334 17.3957V11.5971C16.1334 11.1969 15.805 10.8723 15.4 10.8723Z" fill="#363853"/>
</g>
</g>
<g id="Group_7">
<g id="Group_8">
<path id="Vector_4" d="M17.6 10.8723C17.195 10.8723 16.8666 11.1969 16.8666 11.5971V17.3957C16.8666 17.796 17.195 18.1205 17.6 18.1205C18.005 18.1205 18.3333 17.796 18.3333 17.3957V11.5971C18.3333 11.1969 18.005 10.8723 17.6 10.8723Z" fill="#363853"/>
</g>
</g>
<g id="Group_9">
<g id="Group_10">
<path id="Vector_5" d="M22 0C9.84977 0 0 9.73546 0 21.7447C0 33.7539 9.84977 43.4894 22 43.4894C34.1502 43.4894 44 33.7539 44 21.7447C43.9863 9.74108 34.1446 0.0135904 22 0ZM22 42.0397C10.6597 42.0397 1.46667 32.9534 1.46667 21.7447C1.46667 10.536 10.6597 1.44965 22 1.44965C33.3403 1.44965 42.5333 10.536 42.5333 21.7447C42.5204 32.948 33.3349 42.027 22 42.0397Z" fill="#363853"/>
</g>
</g>
<g id="Group_11">
<g id="Group_12">
<path id="Vector_6" d="M24.3804 35.3511C24.3411 34.9525 23.9824 34.6609 23.5793 34.6998C23.5698 34.7007 23.5604 34.7018 23.551 34.703L23.5539 34.7023C22.5214 34.8209 21.4785 34.8209 20.446 34.7023C20.0436 34.6556 19.6792 34.9404 19.632 35.3383C19.5848 35.7363 19.8727 36.0966 20.2752 36.1433C21.4202 36.2755 22.5768 36.2755 23.7218 36.1433C24.1249 36.1045 24.4198 35.7498 24.3804 35.3511Z" fill="#363853"/>
</g>
</g>
<g id="Group_13">
<g id="Group_14">
<path id="Vector_7" d="M33.2202 12.4046C32.9599 12.0979 32.4974 12.0577 32.1871 12.315C32.1861 12.3159 32.1851 12.3168 32.184 12.3176C31.8744 12.5756 31.835 13.0328 32.096 13.3389C36.5175 18.5268 36.1793 26.198 31.3179 30.9861C31.031 31.2687 31.0302 31.7278 31.3161 32.0114C31.602 32.295 32.0665 32.2958 32.3534 32.0132C37.756 26.6936 38.1327 18.1695 33.2202 12.4046Z" fill="#363853"/>
</g>
</g>
<g id="Group_15">
<g id="Group_16">
<g id="Group_17">
<path id="Vector_8" d="M17.0859 9.58157C17.0854 9.58157 17.085 9.58057 17.0845 9.58057C17.0838 9.58057 17.083 9.58157 17.0822 9.58157H17.0859Z" fill="#363853"/>
<path id="Vector_9" d="M25.4592 7.65335C22.5932 6.97447 19.5874 7.15694 16.8271 8.1774C16.4479 8.31829 16.2563 8.73633 16.3988 9.11097C16.5062 9.39338 16.7794 9.5803 17.0846 9.58057C17.1723 9.58011 17.2592 9.56426 17.3411 9.53355C19.827 8.61474 22.5337 8.45066 25.1145 9.06241C25.5082 9.15646 25.9045 8.91736 25.9996 8.52822C26.0948 8.13908 25.8529 7.7474 25.4592 7.65335Z" fill="#363853"/>
</g>
</g>
</g>
<g id="Group_18">
<g id="Group_19">
<path id="Vector_10" d="M12.6492 30.9499C10.1771 28.5106 8.79154 25.1973 8.79997 21.7446C8.79273 18.9861 9.67677 16.2974 11.3234 14.0702C11.5667 13.7502 11.5016 13.2958 11.1778 13.0553C10.854 12.8147 10.3943 12.8791 10.151 13.1992C10.1466 13.2049 10.1424 13.2106 10.1383 13.2164C5.89845 18.9776 6.52233 26.9299 11.6101 31.9762C11.8968 32.2598 12.362 32.26 12.6489 31.9766C12.9358 31.6932 12.936 31.2335 12.6492 30.9499Z" fill="#363853"/>
</g>
</g>
</g>

</g></symbol><symbol id="shop" viewBox="0 0 34 34"><g fill="none">
<g id="shop 1">
<path id="Vector" d="M32.4062 28.1562H28.6875V17.4841C29.016 17.4166 29.3259 17.2783 29.5956 17.0789C29.8653 16.8795 30.0884 16.6238 30.2492 16.3295C30.4101 16.0352 30.505 15.7094 30.5273 15.3747C30.5495 15.0401 30.4987 14.7046 30.3782 14.3916L28.6875 9.9948V1.59375C28.6875 1.52398 28.6738 1.45489 28.6471 1.39043C28.6204 1.32597 28.5813 1.26739 28.5319 1.21806C28.4826 1.16872 28.424 1.12959 28.3596 1.1029C28.2951 1.07621 28.226 1.06248 28.1562 1.0625H5.84375C5.77398 1.06248 5.70489 1.07621 5.64043 1.1029C5.57597 1.12959 5.51739 1.16872 5.46806 1.21806C5.41872 1.26739 5.37959 1.32597 5.3529 1.39043C5.32621 1.45489 5.31248 1.52398 5.3125 1.59375V9.9948L3.6218 14.3916C3.50132 14.7046 3.45045 15.0401 3.47272 15.3747C3.49499 15.7094 3.58987 16.0352 3.75076 16.3295C3.91165 16.6238 4.1347 16.8795 4.40439 17.0789C4.67409 17.2783 4.98397 17.4166 5.3125 17.4841V28.1562H1.59375C1.52398 28.1562 1.45489 28.17 1.39043 28.1967C1.32597 28.2233 1.26739 28.2625 1.21806 28.3118C1.16872 28.3611 1.12959 28.4197 1.1029 28.4842C1.07621 28.5486 1.06248 28.6177 1.0625 28.6875V32.4062C1.06248 32.476 1.07621 32.5451 1.1029 32.6096C1.12959 32.674 1.16872 32.7326 1.21806 32.7819C1.26739 32.8313 1.32597 32.8704 1.39043 32.8971C1.45489 32.9238 1.52398 32.9375 1.59375 32.9375H32.4062C32.476 32.9375 32.5451 32.9238 32.6096 32.8971C32.674 32.8704 32.7326 32.8313 32.7819 32.7819C32.8313 32.7326 32.8704 32.674 32.8971 32.6096C32.9238 32.5451 32.9375 32.476 32.9375 32.4062V28.6875C32.9375 28.6177 32.9238 28.5486 32.8971 28.4842C32.8704 28.4197 32.8313 28.3611 32.7819 28.3118C32.7326 28.2625 32.674 28.2233 32.6096 28.1967C32.5451 28.17 32.476 28.1562 32.4062 28.1562ZM26.5625 28.1562V16.8254C26.8532 17.1267 27.2205 17.3432 27.625 17.4515V28.1562H26.5625ZM22.3125 28.6875V31.875H20.1875V28.1562H21.25C21.3909 28.1562 21.526 28.1003 21.6256 28.0006C21.7253 27.901 21.7812 27.7659 21.7812 27.625V26.0312C21.7812 25.8904 21.7253 25.7552 21.6256 25.6556C21.526 25.556 21.3909 25.5 21.25 25.5H18.0625C17.9216 25.5 17.7865 25.556 17.6869 25.6556C17.5872 25.7552 17.5313 25.8904 17.5312 26.0312V27.625C17.5313 27.7659 17.5872 27.901 17.6869 28.0006C17.7865 28.1003 17.9216 28.1562 18.0625 28.1562H19.125V31.875H17V28.6875C17 28.6177 16.9863 28.5486 16.9596 28.4842C16.9329 28.4197 16.8938 28.3611 16.8444 28.3118C16.7951 28.2625 16.7365 28.2233 16.6721 28.1967C16.6076 28.17 16.5385 28.1562 16.4688 28.1562H15.4062V26.5625C15.4063 26.4927 15.3925 26.4236 15.3658 26.3592C15.3392 26.2947 15.3 26.2361 15.2507 26.1868C15.2014 26.1375 15.1428 26.0983 15.0783 26.0717C15.0139 26.045 14.9448 26.0312 14.875 26.0312H13.8125V17.4828C14.3275 17.3762 14.7907 17.0969 15.1254 16.6912C15.1579 16.7317 15.1924 16.7709 15.2289 16.8094C15.444 17.0384 15.7039 17.2207 15.9925 17.3449C16.2811 17.4691 16.5922 17.5325 16.9064 17.5312H17.0936C17.4078 17.5325 17.7189 17.4691 18.0075 17.3449C18.2961 17.2207 18.556 17.0384 18.771 16.8094C18.8076 16.7709 18.8421 16.7317 18.8746 16.6912C18.9514 16.7837 19.0351 16.8701 19.125 16.9497V18.5938C18.4207 18.5945 17.7455 18.8745 17.2475 19.3725C16.7495 19.8705 16.4695 20.5457 16.4687 21.25C16.4687 21.3198 16.4825 21.3889 16.5091 21.4533C16.5358 21.5178 16.575 21.5764 16.6243 21.6257C16.6736 21.675 16.7322 21.7142 16.7967 21.7408C16.8611 21.7675 16.9302 21.7813 17 21.7812H22.3125C22.3823 21.7813 22.4514 21.7675 22.5158 21.7408C22.5803 21.7142 22.6389 21.675 22.6882 21.6257C22.7375 21.5764 22.7767 21.5178 22.8033 21.4533C22.83 21.3889 22.8438 21.3198 22.8437 21.25C22.843 20.5457 22.563 19.8705 22.065 19.3725C21.567 18.8745 20.8918 18.5945 20.1875 18.5938V17.4828C20.3419 17.5151 20.4992 17.5314 20.657 17.5312H20.823C21.1583 17.5315 21.4896 17.4587 21.7938 17.3178C22.0981 17.177 22.368 16.9716 22.5848 16.7158C22.5987 16.6998 22.612 16.6832 22.6246 16.6666C22.841 16.9373 23.1157 17.1557 23.4282 17.3054C23.7407 17.4551 24.083 17.5323 24.4295 17.5312H24.5325C24.8663 17.5319 25.1964 17.4603 25.5 17.3214V26.0312H24.4375C24.3677 26.0312 24.2986 26.045 24.2342 26.0717C24.1697 26.0983 24.1111 26.1375 24.0618 26.1868C24.0125 26.2361 23.9733 26.2947 23.9467 26.3592C23.92 26.4236 23.9062 26.4927 23.9062 26.5625V28.1562H22.8438C22.774 28.1562 22.7049 28.17 22.6404 28.1967C22.576 28.2233 22.5174 28.2625 22.4681 28.3118C22.4187 28.3611 22.3796 28.4197 22.3529 28.4842C22.3262 28.5486 22.3125 28.6177 22.3125 28.6875ZM18.5938 27.0938V26.5625H20.7188V27.0938H18.5938ZM8.26359 14.8929L9.43633 10.625H11.5925L10.8016 15.4242C10.7543 15.7163 10.6043 15.982 10.3786 16.1735C10.153 16.3649 9.86642 16.4696 9.57047 16.4688H9.46754C9.27573 16.4687 9.08651 16.4244 8.91458 16.3393C8.74265 16.2543 8.59263 16.1308 8.47618 15.9783C8.35973 15.8259 8.27997 15.6487 8.2431 15.4605C8.20623 15.2722 8.21324 15.078 8.26359 14.8929ZM8.5 17.3214C8.80362 17.4603 9.13367 17.5319 9.46754 17.5312H9.57047C9.917 17.5323 10.2593 17.4551 10.5718 17.3054C10.8843 17.1557 11.159 16.9373 11.3754 16.6666C11.388 16.6832 11.4013 16.6998 11.4152 16.7158C11.7578 17.12 12.2292 17.3939 12.75 17.4914V20.1875H8.5V17.3214ZM13.177 16.4688C12.9959 16.4688 12.817 16.4295 12.6526 16.3534C12.4883 16.2774 12.3425 16.1665 12.2253 16.0284C12.1082 15.8903 12.0225 15.7284 11.9742 15.5539C11.926 15.3794 11.9163 15.1964 11.9458 15.0178L12.6696 10.625H14.8451L14.5888 15.2894C14.5713 15.608 14.4324 15.9077 14.2007 16.1271C13.969 16.3465 13.6621 16.4687 13.343 16.4688H13.177ZM17.9994 16.0789C17.8832 16.2025 17.7429 16.3009 17.587 16.368C17.4312 16.4351 17.2633 16.4694 17.0936 16.4688H16.9064C16.7371 16.4687 16.5695 16.4342 16.4139 16.3674C16.2584 16.3005 16.118 16.2027 16.0015 16.0799C15.8849 15.9571 15.7946 15.8118 15.736 15.653C15.6774 15.4941 15.6517 15.325 15.6606 15.1559L15.909 10.625H18.0911L18.3394 15.1526V15.1559C18.3491 15.3248 18.3239 15.494 18.2654 15.6528C18.207 15.8116 18.1164 15.9566 17.9994 16.0789ZM19.4112 15.2894L19.1549 10.625H21.3304L22.0542 15.0178C22.0837 15.1964 22.0741 15.3794 22.0258 15.5539C21.9775 15.7284 21.8918 15.8903 21.7747 16.0284C21.6575 16.1665 21.5117 16.2774 21.3474 16.3534C21.183 16.4295 21.0041 16.4688 20.823 16.4688H20.657C20.3379 16.4687 20.031 16.3465 19.7993 16.1271C19.5676 15.9077 19.4287 15.608 19.4112 15.2894V15.2894ZM20.1875 19.6562C20.517 19.6566 20.8383 19.759 21.1074 19.9492C21.3764 20.1394 21.58 20.4082 21.6903 20.7188H17.6222C17.7325 20.4082 17.9361 20.1394 18.2051 19.9492C18.4742 19.759 18.7955 19.6566 19.125 19.6562H20.1875ZM25.5246 15.9774C25.4087 16.1306 25.2587 16.2548 25.0865 16.3401C24.9143 16.4254 24.7246 16.4694 24.5325 16.4688H24.4295C24.1336 16.4696 23.847 16.3649 23.6214 16.1735C23.3957 15.982 23.2457 15.7163 23.1984 15.4242L22.4075 10.625H24.5637L25.7357 14.8903C25.7357 14.8909 25.7364 14.8923 25.7364 14.8929C25.7874 15.0778 25.7947 15.2719 25.758 15.46C25.7212 15.6482 25.6413 15.8253 25.5246 15.9774ZM24.9688 27.0938H25.5V28.1562H24.9688V27.0938ZM29.3868 14.7727C29.4595 14.9618 29.4851 15.1657 29.4614 15.3668C29.4377 15.568 29.3654 15.7604 29.2508 15.9273C29.1361 16.0943 28.9825 16.2308 28.8033 16.3252C28.624 16.4195 28.4245 16.4688 28.222 16.4688C27.9488 16.4681 27.6834 16.3782 27.4661 16.2126C27.2488 16.047 27.0917 15.8149 27.0187 15.5517L25.6654 10.625H27.7917L29.3868 14.7727ZM6.375 2.125H27.625V9.5625H6.375V2.125ZM4.74937 15.9275C4.63329 15.7612 4.56011 15.5687 4.53636 15.3672C4.51261 15.1658 4.53902 14.9615 4.61324 14.7727L6.20832 10.625H8.33465L6.98129 15.5517C6.90827 15.8149 6.75115 16.047 6.53389 16.2126C6.31664 16.3782 6.05117 16.4681 5.77801 16.4688C5.57524 16.4702 5.37525 16.4216 5.1958 16.3272C5.01635 16.2328 4.863 16.0955 4.74937 15.9275ZM6.375 17.4515C6.77946 17.3432 7.14677 17.1267 7.4375 16.8254V28.1562H6.375V17.4515ZM10.625 31.875H2.125V29.2188H10.625V31.875ZM11.1562 28.1562H8.5V21.25H12.75V31.875H11.6875V28.6875C11.6875 28.6177 11.6738 28.5486 11.6471 28.4842C11.6204 28.4197 11.5813 28.3611 11.5319 28.3118C11.4826 28.2625 11.424 28.2233 11.3596 28.1967C11.2951 28.17 11.226 28.1562 11.1562 28.1562ZM13.8125 27.0938H14.3438V28.6875C14.3437 28.7573 14.3575 28.8264 14.3842 28.8908C14.4108 28.9553 14.45 29.0139 14.4993 29.0632C14.5486 29.1125 14.6072 29.1517 14.6717 29.1783C14.7361 29.205 14.8052 29.2188 14.875 29.2188H15.9375V31.875H13.8125V27.0938ZM31.875 31.875H23.375V29.2188H31.875V31.875Z" fill="#FF2222"/>
<path id="Vector_2" d="M20.7188 6.375H20.1424C20.031 5.723 19.72 5.12164 19.2523 4.65393C18.7846 4.18623 18.1832 3.87523 17.5312 3.76387V3.1875C17.5312 3.0466 17.4753 2.91148 17.3757 2.81185C17.276 2.71222 17.1409 2.65625 17 2.65625C16.8591 2.65625 16.724 2.71222 16.6243 2.81185C16.5247 2.91148 16.4688 3.0466 16.4688 3.1875V3.76387C15.8168 3.87523 15.2154 4.18623 14.7477 4.65393C14.28 5.12164 13.969 5.723 13.8576 6.375H13.2812C13.1404 6.375 13.0052 6.43097 12.9056 6.5306C12.806 6.63023 12.75 6.76535 12.75 6.90625C12.7506 7.46964 12.9747 8.00977 13.3731 8.40815C13.7715 8.80652 14.3116 9.03061 14.875 9.03125H19.125C19.6884 9.03061 20.2285 8.80652 20.6269 8.40815C21.0253 8.00977 21.2494 7.46964 21.25 6.90625C21.25 6.76535 21.194 6.63023 21.0944 6.5306C20.9948 6.43097 20.8596 6.375 20.7188 6.375ZM17 4.78125C17.471 4.78186 17.9285 4.93863 18.3008 5.22702C18.6732 5.51541 18.9394 5.91914 19.0578 6.375H14.9422C15.0606 5.91914 15.3268 5.51541 15.6992 5.22702C16.0715 4.93863 16.529 4.78186 17 4.78125ZM19.125 7.96875H14.875C14.6885 7.96865 14.5054 7.91951 14.3439 7.82627C14.1825 7.73302 14.0484 7.59895 13.9551 7.4375H20.0449C19.9516 7.59895 19.8175 7.73302 19.6561 7.82627C19.4946 7.91951 19.3115 7.96865 19.125 7.96875Z" fill="#FF2222"/>
<path id="Vector_3" d="M13.0447 5.22327C13.1174 5.17476 13.1771 5.10903 13.2184 5.03192C13.2597 4.95481 13.2813 4.86871 13.2812 4.78125V3.1875H12.2188V4.47788C12.0502 4.56391 11.8718 4.62916 11.6875 4.67219V3.1875H10.625V4.67219C10.4407 4.62915 10.2623 4.56391 10.0938 4.47788V3.1875H9.03125V4.78125C9.03125 4.86871 9.05284 4.95481 9.09411 5.03192C9.13538 5.10903 9.19505 5.17476 9.26782 5.22327C9.67658 5.49621 10.1396 5.67743 10.625 5.75448V9.03125H11.6875V5.75448C12.1729 5.67743 12.6359 5.49621 13.0447 5.22327Z" fill="#FF2222"/>
<path id="Vector_4" d="M22.8436 2.65625C22.3264 2.65628 21.8269 2.84494 21.4388 3.18687C21.0508 3.52879 20.8007 4.00052 20.7355 4.51362C20.6704 5.02672 20.7946 5.54597 21.0848 5.97406C21.3751 6.40214 21.8116 6.70967 22.3124 6.839V9.03125H23.3749V6.839C23.8757 6.70967 24.3121 6.40214 24.6024 5.97406C24.8926 5.54597 25.0168 5.02672 24.9517 4.51362C24.8865 4.00052 24.6364 3.52879 24.2484 3.18687C23.8603 2.84494 23.3608 2.65628 22.8436 2.65625ZM22.8436 5.84375C22.6335 5.84375 22.428 5.78144 22.2533 5.66469C22.0786 5.54794 21.9424 5.382 21.862 5.18785C21.7816 4.9937 21.7605 4.78007 21.8015 4.57397C21.8425 4.36786 21.9437 4.17854 22.0923 4.02995C22.2409 3.88136 22.4302 3.78016 22.6363 3.73917C22.8424 3.69817 23.0561 3.71921 23.2502 3.79963C23.4444 3.88005 23.6103 4.01623 23.727 4.19096C23.8438 4.36568 23.9061 4.57111 23.9061 4.78125C23.9058 5.06294 23.7937 5.33301 23.5946 5.5322C23.3954 5.73138 23.1253 5.84343 22.8436 5.84375Z" fill="#FF2222"/>
</g>
</g></symbol><symbol id="stopwatch" viewBox="0 0 34 34"><g fill="none">
<g id="stopwatch 1" clip-path="url(#clip0_0_381)">
<g id="XMLID_981_">
<g id="XMLID_290_">
<g id="XMLID_291_">
<path id="XMLID_292_" d="M31.7543 12.8812L32.7503 11.8853C33.0383 11.5974 33.1969 11.2146 33.1969 10.8074C33.1969 10.4003 33.0383 10.0174 32.7504 9.72958L31.6096 8.58879C31.3217 8.30092 30.9389 8.14234 30.5318 8.14234C30.1246 8.14234 29.7418 8.30092 29.454 8.58879L28.4579 9.58481C27.1434 8.67936 25.6517 8.01371 24.046 7.6516V6.17944H24.6521C25.4727 6.17944 26.1403 5.51179 26.1403 4.69121V2.6208C26.1403 1.80015 25.4727 1.13251 24.6521 1.13251H17.8004C16.9798 1.13251 16.3122 1.80015 16.3122 2.6208V4.69114C16.3122 5.51173 16.9798 6.17937 17.8004 6.17937H18.4064V7.65565C16.8081 8.01876 15.3231 8.68288 14.0137 9.58475L13.0177 8.58872C12.7299 8.30085 12.347 8.14227 11.94 8.14227C11.5327 8.14227 11.15 8.30085 10.8621 8.58872L9.72132 9.72951C9.12706 10.3238 9.12706 11.2909 9.72132 11.8852L9.8979 12.0618H5.19077C4.82407 12.0618 4.52671 12.3591 4.52671 12.7258C4.52671 13.0926 4.82407 13.3899 5.19077 13.3899H10.3845C9.88966 14.1868 9.48 15.0417 9.16863 15.9423H0.664061C0.297367 15.9423 0 16.2396 0 16.6064C0 16.9732 0.297367 17.2705 0.664061 17.2705H8.78898C8.60165 18.0942 8.4942 18.9477 8.47521 19.8229H4.24999C3.8833 19.8229 3.58593 20.1202 3.58593 20.487C3.58593 20.8537 3.8833 21.151 4.24999 21.151H8.51492C8.58671 22.0299 8.74801 22.8836 8.98946 23.7035H3.32031C2.95361 23.7035 2.65624 24.0008 2.65624 24.3675C2.65624 24.7343 2.95361 25.0316 3.32031 25.0316H9.46181C11.3938 29.63 15.9436 32.8675 21.2358 32.8675C28.274 32.8675 34 27.1415 34 20.1033C34 17.4246 33.1699 14.9364 31.7543 12.8812ZM30.3931 9.5279C30.4406 9.48042 30.4947 9.47046 30.5318 9.47046C30.5689 9.47046 30.623 9.48042 30.6705 9.5279L31.8113 10.6687C31.8588 10.7162 31.8688 10.7704 31.8688 10.8074C31.8688 10.8445 31.8588 10.8987 31.8112 10.9461L30.9382 11.8192C30.5031 11.3104 30.0288 10.8361 29.52 10.401L30.3931 9.5279ZM17.6403 4.69121V2.6208C17.6403 2.53248 17.7122 2.46063 17.8004 2.46063H24.6521C24.7403 2.46063 24.8122 2.53248 24.8122 2.6208V4.69114C24.8122 4.77947 24.7403 4.85125 24.6521 4.85125H23.382H19.0704H17.8004C17.7122 4.85132 17.6403 4.77947 17.6403 4.69121ZM19.7345 6.17944H22.7179V7.42568C22.2315 7.36917 21.7372 7.33916 21.2359 7.33916C20.7279 7.33916 20.2272 7.3699 19.7346 7.42787L19.7345 6.17944ZM10.6604 10.6686L11.8012 9.52784C11.8486 9.48036 11.9028 9.4704 11.9399 9.4704C11.9769 9.4704 12.0311 9.48036 12.0786 9.52784L12.9516 10.4009C12.4428 10.836 11.9686 11.3103 11.5335 11.8191L10.6604 10.9461C10.5839 10.8696 10.5839 10.7451 10.6604 10.6686ZM21.2358 31.5393C14.93 31.5393 9.79975 26.4091 9.79975 20.1033C9.79975 13.7974 14.93 8.66721 21.2358 8.66721C27.5417 8.66721 32.6719 13.7974 32.6719 20.1033C32.6719 26.4091 27.5417 31.5393 21.2358 31.5393Z" fill="#FF6838"/>
<path id="XMLID_899_" d="M25.6188 14.7811L22.4797 17.9202C22.1126 17.7102 21.6881 17.5895 21.2358 17.5895C19.8497 17.5895 18.722 18.7171 18.722 20.1033C18.722 21.4894 19.8497 22.617 21.2358 22.617C22.6219 22.617 23.7495 21.4894 23.7495 20.1033C23.7495 19.6509 23.6288 19.2265 23.4188 18.8594L26.5579 15.7203C26.8172 15.461 26.8172 15.0405 26.5579 14.7811C26.2985 14.5218 25.8782 14.5218 25.6188 14.7811ZM21.2358 21.289C20.582 21.289 20.0502 20.7571 20.0502 20.1034C20.0502 19.4496 20.5821 18.9177 21.2358 18.9177C21.8895 18.9177 22.4214 19.4496 22.4214 20.1034C22.4214 20.7571 21.8896 21.289 21.2358 21.289Z" fill="#FF6838"/>
<path id="XMLID_900_" d="M21.2361 11.4937C21.4107 11.4937 21.582 11.4226 21.7055 11.2991C21.829 11.1756 21.9001 11.0042 21.9001 10.8296C21.9001 10.6549 21.8291 10.4836 21.7055 10.3601C21.582 10.2366 21.4107 10.1655 21.2361 10.1655C21.0614 10.1655 20.8901 10.2366 20.7666 10.3601C20.643 10.4836 20.572 10.6549 20.572 10.8296C20.572 11.0049 20.643 11.1756 20.7666 11.2991C20.8901 11.4226 21.0614 11.4937 21.2361 11.4937Z" fill="#FF6838"/>
<path id="XMLID_901_" d="M21.2361 28.7128C21.0614 28.7128 20.8901 28.7838 20.7666 28.9073C20.643 29.0309 20.572 29.2022 20.572 29.3768C20.572 29.5521 20.643 29.7228 20.7666 29.8463C20.8901 29.9705 21.0614 30.0409 21.2361 30.0409C21.4107 30.0409 21.582 29.9705 21.7055 29.8463C21.829 29.7228 21.9001 29.5515 21.9001 29.3768C21.9001 29.2022 21.8291 29.0309 21.7055 28.9073C21.582 28.7838 21.4107 28.7128 21.2361 28.7128Z" fill="#FF6838"/>
<path id="XMLID_902_" d="M14.6784 12.8815C14.5038 12.8815 14.3325 12.9525 14.2089 13.076C14.0854 13.1996 14.0144 13.3709 14.0144 13.5455C14.0144 13.7208 14.0854 13.8915 14.2089 14.0157C14.3325 14.1392 14.5038 14.2096 14.6784 14.2096C14.8531 14.2096 15.0244 14.1392 15.1479 14.0157C15.2714 13.8915 15.3425 13.7208 15.3425 13.5455C15.3425 13.3709 15.2714 13.2002 15.1479 13.076C15.0244 12.9525 14.8531 12.8815 14.6784 12.8815Z" fill="#FF6838"/>
<path id="XMLID_903_" d="M27.7937 25.9967C27.6183 25.9967 27.4477 26.0678 27.3235 26.1913C27.2 26.3148 27.1296 26.4861 27.1296 26.6608C27.1296 26.8354 27.2 27.0067 27.3235 27.1303C27.4477 27.2538 27.6183 27.3248 27.7937 27.3248C27.9683 27.3248 28.1396 27.2538 28.2631 27.1303C28.3866 27.0067 28.4577 26.8354 28.4577 26.6608C28.4577 26.4861 28.3867 26.3148 28.2631 26.1913C28.1396 26.0678 27.9683 25.9967 27.7937 25.9967Z" fill="#FF6838"/>
<path id="XMLID_904_" d="M14.6784 25.9967C14.5038 25.9967 14.3325 26.0678 14.2089 26.1913C14.0854 26.3148 14.0144 26.4861 14.0144 26.6608C14.0144 26.8354 14.0854 27.0067 14.2089 27.1303C14.3325 27.2538 14.5038 27.3248 14.6784 27.3248C14.8531 27.3248 15.0244 27.2538 15.1479 27.1303C15.2714 27.0067 15.3425 26.8354 15.3425 26.6608C15.3425 26.4861 15.2714 26.3148 15.1479 26.1913C15.0244 26.0678 14.8531 25.9967 14.6784 25.9967Z" fill="#FF6838"/>
<path id="XMLID_905_" d="M11.9625 19.4391C11.7872 19.4391 11.6165 19.5101 11.493 19.6337C11.3689 19.7572 11.2984 19.9285 11.2984 20.1031C11.2984 20.2778 11.3689 20.4491 11.493 20.5726C11.6165 20.6968 11.7872 20.7672 11.9625 20.7672C12.1371 20.7672 12.3084 20.6968 12.432 20.5726C12.5554 20.4491 12.6265 20.2778 12.6265 20.1031C12.6265 19.9285 12.5555 19.7572 12.432 19.6337C12.3084 19.5101 12.1371 19.4391 11.9625 19.4391Z" fill="#FF6838"/>
<path id="XMLID_906_" d="M30.9791 19.6337C30.8556 19.5101 30.6843 19.4391 30.5096 19.4391C30.3343 19.4391 30.1636 19.5101 30.0402 19.6337C29.9167 19.7572 29.8456 19.9285 29.8456 20.1031C29.8456 20.2785 29.9166 20.4491 30.0402 20.5726C30.1636 20.6962 30.335 20.7672 30.5096 20.7672C30.6843 20.7672 30.8556 20.6962 30.9791 20.5726C31.1026 20.4491 31.1737 20.2778 31.1737 20.1031C31.1736 19.9285 31.1026 19.7572 30.9791 19.6337Z" fill="#FF6838"/>
<path id="XMLID_912_" d="M0.664062 23.7037C0.489414 23.7037 0.318086 23.7741 0.19457 23.8976C0.0710547 24.0218 0 24.1925 0 24.3678C0 24.5424 0.0709883 24.7131 0.19457 24.8373C0.318086 24.9608 0.489414 25.0319 0.664062 25.0319C0.838711 25.0319 1.01004 24.9608 1.13349 24.8373C1.257 24.7138 1.32812 24.5424 1.32812 24.3678C1.32812 24.1925 1.25707 24.0212 1.13349 23.8976C1.01004 23.7741 0.838711 23.7037 0.664062 23.7037Z" fill="#FF6838"/>
<path id="XMLID_916_" d="M30.3142 18.087C30.6656 17.9823 30.8657 17.6124 30.761 17.2609C30.2915 15.6857 29.425 14.236 28.2553 13.0687C27.0853 11.9013 25.6336 11.038 24.057 10.572C23.7054 10.468 23.3359 10.6689 23.232 11.0206C23.128 11.3722 23.3288 11.7417 23.6806 11.8456C26.4825 12.6737 28.6536 14.84 29.4882 17.6402C29.574 17.9284 29.8382 18.1147 30.1243 18.1147C30.187 18.1148 30.2509 18.1058 30.3142 18.087Z" fill="#FF6838"/>
</g>
</g>
</g>
</g>

</g></symbol><symbol id="timer" viewBox="0 0 22 22"><g fill="none">
<g id="timer 1" opacity="0.9">
<g id="Group">
<path id="Vector" d="M11.5748 2.5401V1.58126C11.5748 1.41919 11.5104 1.26375 11.3958 1.14914C11.2812 1.03454 11.1257 0.970154 10.9637 0.970154C10.8016 0.970154 10.6462 1.03454 10.5315 1.14914C10.4169 1.26375 10.3526 1.41919 10.3526 1.58126V2.5456C5.55045 2.87926 1.74445 6.88968 1.74445 11.7752C1.74445 16.8777 5.89664 21.0299 11 21.0299C16.1034 21.0299 20.2556 16.8777 20.2556 11.7752C20.2556 6.86524 16.4114 2.83801 11.5748 2.5401ZM11 19.8077C6.57039 19.8077 2.96667 16.2039 2.96667 11.7752C2.96667 7.34588 6.57039 3.74246 11 3.74246C15.4297 3.74246 19.0334 7.34588 19.0334 11.7752C19.0334 16.2039 15.4297 19.8077 11 19.8077Z" fill="#31352B"/>
<path id="Vector_2" d="M7.86296 17.3216C5.86799 16.1901 4.62866 14.0644 4.62866 11.7749C4.62866 11.6056 4.49208 11.4693 4.3231 11.4693C4.15413 11.4693 4.01755 11.6056 4.01755 11.7749C4.01755 14.2841 5.37574 16.6133 7.56169 17.8536C7.63223 17.8935 7.71576 17.9038 7.79389 17.8822C7.87202 17.8606 7.93836 17.8088 7.97831 17.7382C8.01826 17.6677 8.02855 17.5842 8.00692 17.506C7.98529 17.4279 7.93351 17.3616 7.86296 17.3216Z" fill="#31352B"/>
<path id="Vector_3" d="M9.52923 18.1598C9.41091 18.129 9.29343 18.0949 9.17693 18.0578C9.10021 18.0348 9.01754 18.0429 8.94672 18.0803C8.87589 18.1176 8.82257 18.1813 8.79822 18.2576C8.77387 18.3339 8.78044 18.4167 8.81653 18.4882C8.85261 18.5597 8.91531 18.6141 8.99115 18.6399C9.11826 18.6808 9.24598 18.7175 9.37646 18.7508C9.4549 18.771 9.53817 18.7593 9.60796 18.7181C9.67775 18.677 9.72835 18.6098 9.74862 18.5314C9.75868 18.4926 9.76098 18.4522 9.75539 18.4125C9.7498 18.3728 9.73643 18.3346 9.71605 18.3001C9.69567 18.2656 9.66868 18.2354 9.63662 18.2113C9.60456 18.1873 9.56807 18.1698 9.52923 18.1598Z" fill="#31352B"/>
<path id="Vector_4" d="M18.8854 5.72794C19.0002 5.84236 19.1557 5.90652 19.3177 5.90629C19.4798 5.90606 19.6351 5.84146 19.7495 5.72671C19.864 5.61196 19.9281 5.45646 19.9279 5.2944C19.9277 5.13235 19.8631 4.97703 19.7483 4.8626L18.1616 3.27983C18.1048 3.22311 18.0374 3.17814 17.9632 3.1475C17.889 3.11686 17.8095 3.10114 17.7293 3.10126C17.649 3.10137 17.5695 3.11731 17.4955 3.14816C17.4214 3.17901 17.3541 3.22417 17.2975 3.28105C17.1831 3.39585 17.119 3.55134 17.1193 3.71336C17.1195 3.87538 17.184 4.03068 17.2987 4.14516L18.8854 5.72794Z" fill="#31352B"/>
<path id="Vector_5" d="M11.5746 11.6612V6.77569C11.5746 6.61362 11.5102 6.45818 11.3956 6.34357C11.281 6.22897 11.1256 6.16458 10.9635 6.16458C10.8014 6.16458 10.646 6.22897 10.5314 6.34357C10.4168 6.45818 10.3524 6.61362 10.3524 6.77569V11.9252C10.3524 12.0936 10.4401 12.254 10.5623 12.3692L12.3507 14.0406C12.469 14.1518 12.6196 14.2074 12.7702 14.2074C12.8521 14.2075 12.9331 14.1905 13.008 14.1575C13.0828 14.1244 13.15 14.0761 13.2051 14.0155C13.4376 13.7699 13.4168 13.3833 13.1714 13.1517L11.5746 11.6612Z" fill="#31352B"/>
</g>
</g>
</g></symbol></svg>