<svg aria-hidden="true" style="position: absolute; width: 0; height: 0; overflow: hidden;" version="1.1" xmlns="http://www.w3.org/2000/svg" xmlns:xlink="http://www.w3.org/1999/xlink">
<defs>
<symbol id="icon-facebook" viewBox="0 0 15 32">
<path  d="M3.881 31.324v-14.677h-3.881v-5.284h3.881v-4.513c0-3.547 2.292-6.804 7.575-6.804 2.139 0 3.72 0.205 3.72 0.205l-0.125 4.935c0 0-1.613-0.016-3.373-0.016-1.905 0-2.21 0.878-2.21 2.335v3.858h5.734l-0.249 5.284h-5.485v14.677h-5.587z"></path>
</symbol>
<symbol id="icon-instagram" viewBox="0 0 32 32">
<path d="M15.596 10.445c-2.865 0-5.202 2.338-5.202 5.202s2.338 5.202 5.202 5.202 5.202-2.338 5.202-5.202c0-2.865-2.338-5.202-5.202-5.202zM31.199 15.648c0-2.154 0.020-4.289-0.101-6.439-0.121-2.498-0.691-4.714-2.517-6.541-1.83-1.83-4.043-2.396-6.541-2.517-2.154-0.121-4.289-0.101-6.439-0.101-2.154 0-4.289-0.019-6.439 0.101-2.498 0.121-4.714 0.691-6.541 2.517-1.83 1.83-2.396 4.043-2.517 6.541-0.121 2.154-0.101 4.289-0.101 6.439s-0.019 4.289 0.101 6.439c0.121 2.498 0.691 4.714 2.517 6.541 1.83 1.83 4.043 2.396 6.541 2.517 2.154 0.121 4.289 0.102 6.439 0.102 2.154 0 4.289 0.020 6.439-0.102 2.498-0.121 4.714-0.691 6.541-2.517 1.83-1.83 2.396-4.043 2.517-6.541 0.125-2.15 0.101-4.285 0.101-6.439zM15.596 23.652c-4.429 0-8.004-3.575-8.004-8.004s3.575-8.004 8.004-8.004 8.004 3.575 8.004 8.004c0 4.429-3.575 8.004-8.004 8.004zM23.928 9.185c-1.034 0-1.869-0.835-1.869-1.869s0.835-1.869 1.869-1.869c1.034 0 1.869 0.835 1.869 1.869 0 0.246-0.048 0.489-0.142 0.716s-0.232 0.433-0.405 0.607c-0.174 0.174-0.38 0.311-0.607 0.405s-0.47 0.142-0.716 0.142z"></path>
</symbol>
<symbol id="icon-telegram" viewBox="0 0 32 32">
<path d="M19.878 30.57c-0.553 0-1.064-0.295-1.313-0.767l-4.355-8.231c-0.239-0.452-0.198-0.993 0.106-1.41l7.031-9.005-9.531 6.642c-0.442 0.288-1.014 0.324-1.492 0.1l-8.709-4.114c-0.522-0.248-0.841-0.765-0.809-1.317 0.031-0.552 0.408-1.034 0.957-1.224l27.882-9.707c0.535-0.184 1.139-0.064 1.545 0.32 0.405 0.381 0.537 0.953 0.339 1.46l-10.272 26.347c-0.203 0.519-0.712 0.875-1.296 0.904-0.026 0.001-0.054 0.003-0.081 0.003z"></path>
</symbol>
<symbol id="icon-twitter" viewBox="0 0 40 32">
<path d="M38.638 3.785c-1.421 0.613-2.967 1.054-4.56 1.226 1.654-0.982 2.892-2.534 3.483-4.365-1.552 0.923-3.252 1.57-5.024 1.913-0.741-0.792-1.637-1.423-2.632-1.854s-2.069-0.652-3.153-0.649c-4.388 0-7.917 3.557-7.917 7.922 0 0.613 0.074 1.226 0.195 1.816-6.57-0.344-12.43-3.483-16.326-8.288-0.71 1.212-1.082 2.593-1.077 3.998 0 2.749 1.398 5.173 3.529 6.598-1.256-0.049-2.483-0.395-3.58-1.008v0.098c0 3.849 2.721 7.039 6.348 7.773-0.681 0.177-1.381 0.267-2.085 0.269-0.515 0-1.003-0.051-1.495-0.121 1.003 3.139 3.924 5.419 7.402 5.493-2.721 2.131-6.129 3.385-9.83 3.385-0.664 0-1.277-0.023-1.913-0.098 3.51 2.252 7.676 3.552 12.161 3.552 14.562 0 22.53-12.063 22.53-22.534 0-0.344 0-0.687-0.023-1.031 1.542-1.128 2.893-2.526 3.97-4.096z"></path>
</symbol>
<symbol id="icon-arrow-right" viewBox="0 0 32 32">
<path d="M17.495 8.391c-0.25 0.25-0.39 0.589-0.39 0.943s0.14 0.693 0.39 0.943l4.389 4.391-13.884 0.009c-0.354 0-0.693 0.141-0.943 0.391s-0.391 0.589-0.391 0.943c0 0.354 0.14 0.693 0.391 0.943s0.589 0.391 0.943 0.391l13.885-0.009-4.391 4.391c-0.127 0.123-0.229 0.27-0.299 0.433s-0.107 0.338-0.108 0.515c-0.001 0.177 0.032 0.353 0.099 0.517s0.166 0.313 0.291 0.438 0.274 0.224 0.438 0.291c0.164 0.067 0.339 0.101 0.517 0.099s0.352-0.038 0.515-0.108 0.31-0.171 0.433-0.299l4.781-4.78c0.371-0.371 0.666-0.812 0.867-1.298s0.305-1.006 0.305-1.531-0.104-1.046-0.305-1.531c-0.201-0.485-0.496-0.926-0.867-1.298l-4.781-4.781c-0.25-0.25-0.589-0.39-0.943-0.39s-0.693 0.14-0.943 0.39z"></path>
</symbol>
<symbol id="icon-asian" viewBox="0 0 32 32">
<path fill="none" d="M11.005 9.867h1.545c0.401 0 0.727 0.326 0.727 0.727v1.065c0 0.259 0.21 0.469 0.469 0.469s0.469-0.21 0.469-0.469v-1.065c0-0.918-0.747-1.665-1.665-1.665h-1.545c-0.394 0-0.715-0.321-0.715-0.715s0.321-0.715 0.715-0.715h3.427c0.911 0 1.652-0.741 1.652-1.652s-0.741-1.652-1.652-1.652h-2.741c-0.259 0-0.469 0.21-0.469 0.469s0.21 0.469 0.469 0.469h2.741c0.394 0 0.715 0.321 0.715 0.715s-0.321 0.715-0.715 0.715h-3.427c-0.911 0-1.652 0.741-1.652 1.652s0.741 1.652 1.652 1.652z"></path>
<path fill="none" d="M5.373 13.013h1.534c0.396 0 0.718 0.322 0.718 0.718v1.057c0 0.259 0.21 0.469 0.469 0.469s0.469-0.21 0.469-0.469v-1.057c0-0.913-0.743-1.656-1.656-1.656h-1.534c-0.389 0-0.706-0.317-0.706-0.706s0.317-0.706 0.706-0.706h1.793c0.259 0 0.469-0.21 0.469-0.469s-0.21-0.469-0.469-0.469h-1.793c-0.906 0-1.643 0.737-1.643 1.643s0.737 1.643 1.643 1.643z"></path>
<path fill="none" d="M18.656 19.5c0.259 0 0.469-0.21 0.469-0.469s-0.21-0.469-0.469-0.469c-0.259 0-0.469 0.21-0.469 0.469s0.21 0.469 0.469 0.469z"></path>
<path fill="none" d="M20.969 20.562c0.259 0 0.469-0.21 0.469-0.469s-0.21-0.469-0.469-0.469c-0.259 0-0.469 0.21-0.469 0.469s0.21 0.469 0.469 0.469z"></path>
<path fill="none" d="M22.344 22.188c0.259 0 0.469-0.21 0.469-0.469s-0.21-0.469-0.469-0.469c-0.259 0-0.469 0.21-0.469 0.469s0.21 0.469 0.469 0.469z"></path>
<path fill="none" d="M20.406 18.375c0.259 0 0.469-0.21 0.469-0.469s-0.21-0.469-0.469-0.469c-0.259 0-0.469 0.21-0.469 0.469s0.21 0.469 0.469 0.469z"></path>
<path fill="none" d="M18.844 22.5c0.259 0 0.469-0.21 0.469-0.469s-0.21-0.469-0.469-0.469c-0.259 0-0.469 0.21-0.469 0.469s0.21 0.469 0.469 0.469z"></path>
<path fill="none" d="M31.208 16.59h-1.33l0.657-1.358c0.834-0.166 1.464-0.903 1.464-1.785 0-0.904-0.663-1.657-1.529-1.797-0.957-1.723-2.825-3.017-5.092-3.534v-0.036c0-0.259-0.21-0.469-0.469-0.469-0.215 0-0.395 0.144-0.451 0.341-0.285-0.037-0.576-0.061-0.87-0.073-0.075-0.158-0.236-0.268-0.423-0.268s-0.348 0.11-0.423 0.268c-0.294 0.012-0.585 0.036-0.87 0.073-0.056-0.197-0.236-0.341-0.451-0.341-0.259 0-0.469 0.21-0.469 0.469v0.036c-2.266 0.517-4.135 1.811-5.092 3.534-0.866 0.14-1.529 0.892-1.529 1.797 0 0.053 0.002 0.105 0.007 0.157-2.164 0.201-4.108 1.105-5.567 2.462h-2.945c-0.201 0-0.38 0.090-0.502 0.232h-1.377c-0.225-0.57-0.785-0.972-1.423-0.972-0.844 0-1.53 0.686-1.53 1.53 0 0.072 0.006 0.143 0.016 0.214-0.589 0.213-1.012 0.778-1.012 1.439 0 0.294 0.083 0.576 0.237 0.818-0.153 0.242-0.237 0.524-0.237 0.818 0 0.844 0.686 1.53 1.53 1.53 0.638 0 1.198-0.403 1.423-0.972h1.24c0.057 0.209 0.214 0.381 0.426 0.453l1.47 0.499c-0.009 0.151-0.013 0.304-0.013 0.457 0 0.145 0.004 0.288 0.012 0.432-0.23 0.055-0.444 0.151-0.635 0.279-0.314-0.211-0.692-0.334-1.098-0.334-1.090 0-1.977 0.887-1.977 1.977 0 0.017 0.001 0.033 0.002 0.050h-0.548c-0.309 0-0.584 0.174-0.716 0.454s-0.092 0.602 0.105 0.841l1.406 1.709c0.151 0.183 0.374 0.289 0.611 0.289h19.825c0.259 0 0.469-0.21 0.469-0.469s-0.21-0.469-0.469-0.469h-19.757l-1.166-1.417h28.759l-1.166 1.417h-4.483c-0.259 0-0.469 0.21-0.469 0.469s0.21 0.469 0.469 0.469h4.552c0.238 0 0.46-0.105 0.611-0.289l1.406-1.709c0.197-0.239 0.237-0.561 0.105-0.841s-0.406-0.454-0.716-0.454h-0.464c0.461-0.797 0.634-1.742 0.466-2.67-0.035-0.192-0.185-0.343-0.378-0.378-1.27-0.23-2.571 0.177-3.482 1.087-0.056 0.056-0.109 0.113-0.16 0.172-0.269-0.145-0.575-0.23-0.899-0.236v-0.892h0.5c0.793 0 1.438-0.645 1.438-1.438v-0.629h2.982c0.436 0 0.792-0.355 0.792-0.792v-1.356c0-0.437-0.355-0.792-0.792-0.792zM4.575 24.514h-1.259c-0.001-0.017-0.002-0.033-0.002-0.050 0-0.573 0.466-1.039 1.039-1.039 0.163 0 0.317 0.038 0.454 0.106-0.15 0.278-0.235 0.596-0.235 0.934 0 0.017 0.001 0.033 0.002 0.050zM28.012 23.216c0.613-0.613 1.459-0.926 2.316-0.869 0.052 0.789-0.21 1.569-0.731 2.167h-0.773l0.64-0.64c0.183-0.183 0.183-0.48 0-0.663s-0.48-0.183-0.663 0l-0.664 0.664c-0.059-0.187-0.145-0.363-0.253-0.522 0.041-0.047 0.084-0.093 0.128-0.137zM18.548 10.14c0.709-0.475 1.529-0.832 2.406-1.056v0.482c0 0.259 0.21 0.469 0.469 0.469s0.469-0.21 0.469-0.469v-0.668c0.266-0.038 0.535-0.063 0.806-0.077v0.745c0 0.259 0.21 0.469 0.469 0.469s0.469-0.21 0.469-0.469v-0.745c0.271 0.014 0.541 0.039 0.806 0.077v0.668c0 0.259 0.21 0.469 0.469 0.469s0.469-0.21 0.469-0.469v-0.482c0.878 0.224 1.697 0.581 2.406 1.056 0.691 0.463 1.254 1.022 1.665 1.641-0.158 0.070-0.307 0.161-0.44 0.273-0.323-0.271-0.736-0.427-1.169-0.427s-0.845 0.156-1.169 0.427c-0.323-0.271-0.737-0.427-1.169-0.427s-0.845 0.156-1.169 0.427c-0.323-0.271-0.737-0.427-1.169-0.427s-0.845 0.156-1.169 0.427c-0.323-0.271-0.736-0.427-1.169-0.427s-0.845 0.156-1.169 0.427c-0.323-0.271-0.736-0.427-1.169-0.427s-0.845 0.156-1.169 0.427c-0.133-0.111-0.281-0.203-0.44-0.273 0.41-0.618 0.973-1.178 1.665-1.641zM16.154 12.564c0.313 0 0.605 0.169 0.763 0.442 0.084 0.145 0.238 0.234 0.406 0.234s0.322-0.089 0.405-0.234c0.158-0.272 0.45-0.442 0.763-0.442s0.605 0.169 0.763 0.442c0.084 0.145 0.238 0.234 0.405 0.234s0.322-0.089 0.406-0.234c0.158-0.272 0.45-0.442 0.763-0.442s0.605 0.169 0.763 0.442c0.084 0.145 0.238 0.234 0.405 0.234s0.322-0.089 0.406-0.234c0.158-0.272 0.45-0.442 0.763-0.442s0.605 0.169 0.763 0.442c0.084 0.145 0.238 0.234 0.405 0.234s0.322-0.089 0.405-0.234c0.158-0.272 0.45-0.442 0.763-0.442s0.605 0.169 0.763 0.442c0.084 0.145 0.238 0.234 0.405 0.234s0.322-0.089 0.406-0.234c0.158-0.272 0.45-0.442 0.763-0.442s0.605 0.169 0.763 0.442c0.084 0.145 0.238 0.234 0.405 0.234s0.322-0.089 0.405-0.234c0.158-0.272 0.45-0.442 0.763-0.442 0.487 0 0.883 0.396 0.883 0.883s-0.396 0.883-0.883 0.883c-0.313 0-0.605-0.169-0.763-0.442-0.084-0.145-0.238-0.234-0.405-0.234s-0.322 0.089-0.405 0.234c-0.158 0.272-0.451 0.442-0.763 0.442s-0.605-0.169-0.763-0.442c-0.084-0.145-0.238-0.234-0.406-0.234s-0.322 0.089-0.405 0.234c-0.158 0.272-0.45 0.442-0.763 0.442s-0.605-0.169-0.763-0.442c-0.084-0.145-0.238-0.234-0.405-0.234s-0.322 0.089-0.405 0.234c-0.158 0.272-0.45 0.442-0.763 0.442s-0.605-0.169-0.763-0.442c-0.084-0.145-0.238-0.234-0.406-0.234s-0.322 0.089-0.405 0.234c-0.158 0.272-0.451 0.442-0.763 0.442s-0.605-0.169-0.763-0.442c-0.084-0.145-0.238-0.234-0.406-0.234s-0.322 0.089-0.405 0.234c-0.092 0.159-0.231 0.283-0.392 0.358-1.101-0.439-2.312-0.683-3.583-0.685-0.005-0.037-0.008-0.075-0.008-0.114 0-0.487 0.396-0.883 0.883-0.883zM6.103 17.003h1.798c-0.185 0.23-0.358 0.468-0.518 0.715h-1.28v-0.715zM4.169 19.763h-1.583c-0.244 0-0.447 0.187-0.467 0.43-0.025 0.304-0.284 0.542-0.59 0.542-0.327 0-0.592-0.266-0.592-0.592 0-0.177 0.078-0.344 0.215-0.457 0.108-0.089 0.17-0.221 0.17-0.361s-0.062-0.272-0.17-0.361c-0.137-0.113-0.215-0.28-0.215-0.457 0-0.327 0.266-0.592 0.592-0.592 0.305 0 0.564 0.238 0.59 0.542 0.020 0.243 0.223 0.43 0.467 0.43h1.583v0.876h-0zM4.33 17.95h-1.377c-0.172-0.436-0.54-0.773-0.989-0.908-0.020-0.060-0.031-0.123-0.031-0.188 0-0.327 0.266-0.592 0.592-0.592 0.305 0 0.564 0.238 0.59 0.542 0.020 0.243 0.223 0.43 0.467 0.43h1.583v0.484h-0.334c-0.201 0-0.381 0.090-0.502 0.232zM7.588 24.514h-2.075c-0.001-0.017-0.002-0.033-0.002-0.050 0-0.573 0.466-1.039 1.039-1.039s1.039 0.466 1.039 1.039c0 0.017-0.001 0.033-0.002 0.050zM22.045 24.514h-1.632c-0.001-0.017-0.002-0.033-0.002-0.050 0-0.573 0.466-1.039 1.039-1.039 0.286 0 0.546 0.117 0.735 0.305-0.091 0.227-0.142 0.475-0.142 0.735-0 0.017 0.001 0.033 0.002 0.050zM21.451 22.487c-1.090 0-1.977 0.887-1.977 1.977 0 0.017 0.001 0.033 0.002 0.050h-10.95c0-0.017 0.002-0.033 0.002-0.050 0-0.926-0.64-1.705-1.5-1.918-0.009-0.144-0.014-0.289-0.014-0.435 0-0.048 0.001-0.095 0.002-0.143l4.794 1.628c0.323 0.11 0.653 0.164 0.98 0.164 0.618 0 1.225-0.193 1.749-0.568 0.801-0.574 1.261-1.468 1.261-2.454 0-0.352-0.060-0.698-0.18-1.027-0.088-0.243-0.357-0.369-0.6-0.281s-0.369 0.357-0.281 0.6c0.082 0.227 0.124 0.465 0.124 0.708 0 0.68-0.317 1.296-0.869 1.692s-1.238 0.497-1.882 0.279l-7.003-2.378v-1.674h7.672c0.235 0 0.467 0.039 0.688 0.117 0.244 0.086 0.512-0.043 0.597-0.287s-0.043-0.512-0.287-0.597c-0.322-0.113-0.658-0.17-0.999-0.17h-4.25c1.495-1.947 3.955-3.22 6.731-3.22 4.548 0 8.248 3.415 8.248 7.613 0 0.15-0.005 0.299-0.015 0.448-0.283 0.078-0.541 0.219-0.758 0.405-0.346-0.296-0.794-0.476-1.285-0.476zM25.057 24.514h-2.075c-0.001-0.017-0.002-0.033-0.002-0.050 0-0.573 0.466-1.039 1.039-1.039s1.039 0.466 1.039 1.039c0 0.017-0.001 0.033-0.002 0.050zM25.352 22.705c-0.075 0.038-0.147 0.081-0.216 0.128-0.208-0.143-0.446-0.246-0.701-0.301 0.007-0.14 0.011-0.28 0.011-0.421 0-0.173-0.007-0.344-0.018-0.514h0.924v1.109zM27.289 24.464c0 0.017-0.001 0.033-0.002 0.050h-1.293c0-0.017 0.002-0.033 0.002-0.050 0-0.332-0.083-0.645-0.228-0.92 0.144-0.076 0.308-0.119 0.481-0.119 0.573 0 1.039 0.466 1.039 1.039zM27.289 20.159c0 0.276-0.224 0.5-0.5 0.5h-2.478c-0.071-0.386-0.169-0.763-0.294-1.129h3.272v0.629zM31.062 18.592h-7.431c-0.18-0.37-0.388-0.725-0.62-1.065h1.989c0.259 0 0.469-0.21 0.469-0.469s-0.21-0.469-0.469-0.469h-2.732c-0.448-0.492-0.955-0.937-1.51-1.325 0.024 0.001 0.047 0.002 0.071 0.002 0.432 0 0.845-0.156 1.169-0.427 0.323 0.271 0.737 0.427 1.169 0.427s0.845-0.156 1.169-0.427c0.323 0.271 0.737 0.427 1.169 0.427s0.845-0.156 1.169-0.427c0.323 0.271 0.737 0.427 1.169 0.427s0.845-0.156 1.169-0.427c0.156 0.131 0.334 0.235 0.524 0.307l-0.698 1.443h-1.649c-0.259 0-0.469 0.21-0.469 0.469s0.21 0.469 0.469 0.469h3.875v1.065z"></path>
</symbol>
<symbol id="icon-burger" viewBox="0 0 31 32">
<path d="M31.289 14.482c0-1.201-0.775-2.224-1.85-2.598-0.165-3.727-1.557-6.587-4.142-8.509-2.36-1.754-5.607-2.643-9.652-2.643s-7.292 0.889-9.652 2.643c-2.586 1.922-3.977 4.782-4.142 8.509-1.076 0.374-1.85 1.397-1.85 2.598 0 0.704 0.266 1.346 0.702 1.833-0.436 0.487-0.702 1.13-0.702 1.833 0 1.209 0.784 2.237 1.87 2.605 0.393 4.189 3.954 7.479 8.274 7.479h11c4.321 0 7.881-3.29 8.274-7.479 1.086-0.368 1.87-1.396 1.87-2.605 0-0.704-0.266-1.346-0.703-1.833 0.436-0.487 0.703-1.129 0.703-1.833zM15.644 2.566c5.257 0 11.485 1.621 11.949 9.167h-23.898c0.464-7.546 6.692-9.167 11.949-9.167zM2.75 13.566h25.789c0.505 0 0.917 0.411 0.917 0.917s-0.411 0.917-0.917 0.917h-25.789c-0.505 0-0.917-0.411-0.917-0.917s0.411-0.917 0.917-0.917zM21.144 26.399h-11c-3.258 0-5.961-2.395-6.411-5.5h0.85c0.613 0 0.806 0.208 1.192 0.624 0.474 0.51 1.123 1.21 2.536 1.21 1.422 0 2.054-0.706 2.516-1.222 0.365-0.407 0.548-0.611 1.15-0.611s0.786 0.204 1.15 0.611c0.462 0.516 1.094 1.222 2.516 1.222s2.054-0.706 2.516-1.222c0.365-0.407 0.548-0.611 1.15-0.611s0.786 0.204 1.15 0.611c0.462 0.516 1.094 1.222 2.516 1.222s2.054-0.706 2.516-1.222c0.365-0.407 0.548-0.611 1.15-0.611h0.911c-0.45 3.105-3.154 5.5-6.411 5.5zM28.539 19.066h-1.894c-1.422 0-2.055 0.706-2.516 1.222-0.365 0.407-0.548 0.611-1.15 0.611s-0.786-0.204-1.15-0.611c-0.462-0.516-1.094-1.222-2.516-1.222s-2.054 0.706-2.516 1.222c-0.365 0.407-0.548 0.611-1.15 0.611s-0.786-0.204-1.15-0.611c-0.462-0.516-1.094-1.222-2.516-1.222s-2.055 0.706-2.516 1.222c-0.365 0.407-0.548 0.611-1.15 0.611-0.613 0-0.806-0.209-1.192-0.624-0.474-0.51-1.123-1.21-2.536-1.21h-1.833c-0.505 0-0.917-0.411-0.917-0.917s0.411-0.917 0.917-0.917h25.789c0.505 0 0.917 0.411 0.917 0.917s-0.411 0.917-0.917 0.917z"></path>
<path d="M10.144 9.899c0.506 0 0.917-0.41 0.917-0.917s-0.41-0.917-0.917-0.917c-0.506 0-0.917 0.41-0.917 0.917s0.41 0.917 0.917 0.917z"></path>
<path d="M21.144 9.899c0.506 0 0.917-0.41 0.917-0.917s-0.41-0.917-0.917-0.917c-0.506 0-0.917 0.41-0.917 0.917s0.41 0.917 0.917 0.917z"></path>
<path d="M17.478 8.066c0.506 0 0.917-0.41 0.917-0.917s-0.41-0.917-0.917-0.917c-0.506 0-0.917 0.41-0.917 0.917s0.41 0.917 0.917 0.917z"></path>
<path d="M13.811 6.232c0.506 0 0.917-0.41 0.917-0.917s-0.41-0.917-0.917-0.917c-0.506 0-0.917 0.41-0.917 0.917s0.41 0.917 0.917 0.917z"></path>
</symbol>
<symbol id="icon-cart" viewBox="0 0 34 32">
<path fill="none" stroke-linejoin="round" stroke-linecap="round" stroke-miterlimit="4" stroke-width="2.4" d="M1.6 1.881l3.328 0.569 1.541 18.144c0.123 1.482 1.376 2.619 2.88 2.614h17.454c1.435 0.003 2.653-1.041 2.856-2.445l1.518-10.371c0.17-1.159-0.645-2.235-1.816-2.402-0.102-0.014-23.899-0.022-23.899-0.022"></path>
<path fill="none" stroke-linejoin="round" stroke-linecap="round" stroke-miterlimit="4" stroke-width="2.4" d="M19.8 13.813h4.437"></path>
<path fill="none" stroke-linejoin="round" stroke-linecap="round" stroke-miterlimit="4" stroke-width="2.4" d="M8.647 28.691c0.482 0 0.87 0.386 0.87 0.861 0 0.476-0.389 0.862-0.87 0.862s-0.87-0.386-0.87-0.862c0-0.475 0.389-0.861 0.87-0.861z"></path>
<path fill="none" stroke-linejoin="round" stroke-linecap="round" stroke-miterlimit="4" stroke-width="2.4" d="M26.695 28.691c0.482 0 0.872 0.386 0.872 0.861 0 0.476-0.39 0.862-0.872 0.862s-0.87-0.386-0.87-0.862c0-0.475 0.389-0.861 0.87-0.861z"></path>
</symbol>
<symbol id="icon-delivery" viewBox="0 0 32 32">
<path fill="none" d="M6.134 23.030l0.384 0.913c0.271-0.111 0.552-0.193 0.841-0.245l-0.179-0.973c-0.358 0.064-0.709 0.166-1.045 0.304z"></path>
<path fill="none" d="M3.508 25.483l0.9 0.431c0.311-0.635 0.785-1.179 1.375-1.577l-0.564-0.816c-0.733 0.496-1.323 1.172-1.71 1.962z"></path>
<path fill="none" d="M31 25.205c0.001-0.851-0.317-1.672-0.891-2.306l-0.745 0.659c0.296 0.326 0.498 0.724 0.587 1.153h-3.45c-0.082 0-0.163 0.020-0.236 0.058s-0.134 0.094-0.18 0.162l-1.851 2.745h-1.232v-1.483c0.001-0.917 0.37-1.796 1.026-2.445s1.546-1.013 2.474-1.014h1c0.492-0.001 0.973 0.142 1.382 0.411l0.554-0.823c-0.432-0.284-0.922-0.469-1.436-0.542v-1.518c0-0.131-0.053-0.257-0.146-0.349s-0.221-0.145-0.354-0.145c-0.53-0.001-1.039-0.209-1.414-0.58s-0.586-0.873-0.586-1.397v-1.977h1.5c0.133 0 0.26-0.052 0.354-0.145s0.146-0.218 0.146-0.349v-3.459c0-0.131-0.053-0.257-0.146-0.349s-0.221-0.145-0.354-0.145h-0.882c-0.209 0-0.417 0.029-0.618 0.084v-0.578c0-0.112-0.039-0.221-0.11-0.309l-1.636-2.021c0.214-0.357 0.291-0.779 0.217-1.188s-0.295-0.778-0.622-1.039c-0.327-0.261-0.738-0.398-1.158-0.384s-0.821 0.176-1.13 0.457c-0.309 0.282-0.505 0.664-0.552 1.076s0.057 0.828 0.294 1.171c0.237 0.343 0.591 0.59 0.998 0.696s0.838 0.064 1.215-0.118l1.482 1.832v0.624l-2.198-0.724c-0.144-0.049-0.295-0.074-0.448-0.073h-4.124l-2.374-2.737c0.199-0.136 0.361-0.318 0.473-0.53s0.171-0.447 0.171-0.686v-0.189l0.724-0.358c0.063-0.031 0.119-0.076 0.164-0.13s0.077-0.117 0.096-0.185 0.022-0.138 0.010-0.208c-0.012-0.069-0.038-0.135-0.077-0.193l-0.821-1.218c0.114-0.022 0.217-0.082 0.291-0.171s0.114-0.2 0.114-0.314c-0.001-0.786-0.317-1.54-0.88-2.096s-1.325-0.869-2.12-0.869c-0.942 0-1.813 0.267-2.462 0.976-0.281 0.307-0.494 0.669-0.625 1.063s-0.177 0.81-0.136 1.222l0.107 1.057c0.045 0.456 0.265 0.877 0.616 1.177v9.332c-0 0.347 0.093 0.688 0.269 0.988h-0.769c-0.17-0-0.339 0.029-0.5 0.085v-6.51c-0-0.393-0.159-0.77-0.44-1.048s-0.662-0.434-1.060-0.435h-6c-0.398 0-0.779 0.157-1.060 0.435s-0.439 0.655-0.44 1.048v2.471h1v-0.988h7v4.942h-7v-2.965h-1v4.035c-0 0.231 0.082 0.456 0.232 0.633s0.359 0.298 0.589 0.339l4.679 0.841v1.16c-0.424 0.097-0.838 0.232-1.237 0.405h-2.763c-0.133 0-0.26 0.052-0.354 0.145s-0.146 0.218-0.146 0.349v2.346c-0.653 1.084-0.999 2.323-1 3.585 0 0.131 0.053 0.257 0.146 0.349s0.221 0.145 0.354 0.145h2.292c0.299 0.73 0.811 1.355 1.472 1.795s1.439 0.675 2.236 0.675 1.575-0.235 2.236-0.675c0.661-0.44 1.173-1.066 1.472-1.795h8.407c0.348-0 0.693-0.072 1.011-0.211s0.604-0.343 0.839-0.597l0.535-0.582v1.39c0 0.131 0.053 0.257 0.146 0.349s0.221 0.145 0.354 0.145h1.036c0.44 0.754 1.12 1.343 1.933 1.676s1.715 0.391 2.566 0.166c0.851-0.225 1.602-0.722 2.138-1.412s0.827-1.536 0.827-2.407c0-0.378-0.055-0.755-0.163-1.118 0.051-0.046 0.092-0.102 0.12-0.165s0.042-0.131 0.042-0.199zM21.5 7.661c0-0.147 0.044-0.29 0.126-0.412s0.2-0.217 0.337-0.273 0.288-0.071 0.433-0.042c0.145 0.029 0.279 0.099 0.384 0.203s0.176 0.236 0.205 0.38c0.029 0.144 0.014 0.293-0.043 0.428s-0.153 0.251-0.276 0.333c-0.123 0.081-0.268 0.125-0.417 0.125-0.199-0-0.389-0.078-0.53-0.217s-0.22-0.327-0.22-0.524zM14.347 25.205c-0.49-0.001-0.959-0.193-1.305-0.535s-0.541-0.806-0.542-1.29c0-0.485 0.124-0.939 0.451-1.312 0.292-0.332 0.694-0.549 1.134-0.612 0.531-0.075 1.017-0.337 1.369-0.737s0.545-0.913 0.546-1.444c0-0.065-0.013-0.129-0.038-0.189s-0.062-0.114-0.109-0.16c0.085-0.176 0.134-0.366 0.144-0.561s-0.018-0.389-0.084-0.573h1.358l-2.194 5.638c-0.053 0.136-0.079 0.28-0.078 0.426v1.349h-0.653zM16 24.216h2.5c0.107 0 0.212 0.034 0.298 0.098s0.149 0.152 0.18 0.253 0.028 0.21-0.008 0.31c-0.036 0.1-0.104 0.185-0.193 0.244-0.126 0.055-0.261 0.083-0.399 0.083h-2.379v-0.988zM19.88 24.13c-0.099-0.23-0.256-0.431-0.455-0.586s-0.434-0.256-0.684-0.297l2.071-4.927c0.184-0.438 0.256-0.914 0.209-1.386s-0.211-0.925-0.477-1.32c-0.266-0.394-0.627-0.718-1.050-0.941s-0.895-0.341-1.375-0.341h-2.119v-0.784l0.146 0.145c0.046 0.046 0.102 0.082 0.162 0.107s0.126 0.038 0.191 0.038h5.086c-0.080 0.224-0.105 0.463-0.072 0.698s0.122 0.459 0.261 0.652c0.139 0.194 0.322 0.352 0.535 0.461s0.45 0.166 0.69 0.166h0.001c-0.326 0.427-0.502 0.948-0.501 1.483v3.834c-0.001 0.262-0.106 0.513-0.293 0.699l-2.327 2.3zM23 14.826c-0.099 0-0.196-0.029-0.278-0.083s-0.146-0.131-0.184-0.222c-0.038-0.090-0.048-0.19-0.028-0.286s0.067-0.184 0.137-0.253c0.070-0.069 0.159-0.116 0.256-0.135s0.197-0.009 0.289 0.028c0.091 0.037 0.169 0.101 0.224 0.182s0.084 0.177 0.084 0.275c-0 0.131-0.053 0.257-0.147 0.349s-0.221 0.145-0.353 0.145zM26.5 12.355v2.471h-1v-2.317c0.19-0.101 0.402-0.153 0.618-0.154h0.382zM24.5 14.332c0-0.237-0.057-0.471-0.168-0.682s-0.27-0.392-0.466-0.529-0.422-0.225-0.66-0.258c-0.238-0.033-0.48-0.008-0.706 0.071v-0.882l2 0.659v1.621zM17.5 11.861h4v0.988h-4.793l-2.854-2.82-0.707 0.699 1.854 1.832v1.772h-3v-5.93h2.27l2.85 3.287c0.047 0.054 0.105 0.098 0.171 0.127s0.137 0.045 0.209 0.045zM11.78 2.628c0.457-0.499 1.064-0.65 1.72-0.65 0.443 0.001 0.874 0.146 1.224 0.415s0.601 0.644 0.712 1.068h-1.937c-0.133 0-0.26 0.052-0.354 0.145s-0.146 0.218-0.146 0.349v1.174c-0.001 0.206-0.081 0.403-0.225 0.552s-0.339 0.237-0.547 0.248c-0.208 0.010-0.411-0.059-0.569-0.192s-0.258-0.322-0.279-0.527l-0.107-1.057c-0.029-0.275 0.001-0.553 0.088-0.815s0.23-0.504 0.419-0.708zM12.187 6.919c0.481-0 0.941-0.189 1.281-0.525s0.531-0.791 0.531-1.266v-0.68h1c0 0.098 0.029 0.193 0.084 0.274l0.686 1.017-0.494 0.244c-0.083 0.041-0.153 0.104-0.201 0.182s-0.075 0.168-0.075 0.26v0.494c-0 0.131-0.053 0.257-0.147 0.349s-0.221 0.145-0.353 0.145h-2.5v-0.504c0.062 0.006 0.125 0.010 0.187 0.010zM12 15.815v-0.494h6.119c0.315 0 0.626 0.077 0.904 0.224s0.515 0.359 0.69 0.619c0.175 0.259 0.283 0.557 0.313 0.867s-0.017 0.623-0.137 0.911l-2.222 5.287h-1.438l2.239-5.753c0.029-0.075 0.039-0.156 0.030-0.235s-0.038-0.156-0.084-0.222c-0.046-0.066-0.107-0.12-0.179-0.158s-0.152-0.057-0.233-0.057h-5c-0.265-0-0.519-0.105-0.707-0.29s-0.293-0.437-0.293-0.699zM10.5 17.792h4c0.133 0 0.26 0.052 0.354 0.145s0.146 0.218 0.146 0.349c0 0.131-0.053 0.257-0.146 0.349s-0.221 0.145-0.354 0.145h-4c-0.133 0-0.26-0.052-0.354-0.145s-0.146-0.218-0.146-0.349c0-0.131 0.053-0.257 0.146-0.349s0.221-0.145 0.354-0.145zM2 10.873v-0.494c0-0.131 0.053-0.257 0.147-0.349s0.221-0.145 0.353-0.145h6c0.133 0 0.26 0.052 0.353 0.145s0.146 0.218 0.147 0.349v0.494h-7zM2 17.792h7v0.988h-1.955l-5.045-0.907v-0.082zM3.618 22.239c-0.217 0.174-0.423 0.361-0.618 0.559v-0.559h0.618zM7.5 29.652c-0.526-0.002-1.042-0.14-1.498-0.4s-0.835-0.633-1.099-1.082h1.276c0.365 0.318 0.835 0.494 1.322 0.494s0.957-0.176 1.322-0.494h1.276c-0.265 0.449-0.644 0.822-1.1 1.082s-0.972 0.398-1.498 0.4zM20.725 26.696c-0.141 0.153-0.312 0.275-0.503 0.358s-0.398 0.127-0.607 0.127h-17.594c0.108-1.29 0.633-2.512 1.499-3.483s2.025-1.642 3.306-1.91c0.129-0.028 0.261-0.042 0.393-0.042h3.281v-0.988h-3v-0.988h7.394c-0.085 0.188-0.216 0.352-0.383 0.475s-0.361 0.204-0.568 0.233c-0.678 0.096-1.299 0.431-1.748 0.942-0.484 0.551-0.696 1.24-0.696 1.96-0 0.67 0.242 1.317 0.683 1.825h-4.183v0.988h10.379c0.53-0.004 1.037-0.211 1.414-0.579l3.121-3.085c0.374-0.372 0.584-0.874 0.586-1.398v-3.834c0-0.307 0.097-0.605 0.276-0.856s0.432-0.44 0.724-0.542v1.892c0.001 0.701 0.252 1.378 0.71 1.913s1.092 0.893 1.79 1.011v1.030c-0.31 0-0.628-0.019-0.937 0.021-0.935 0.092-1.818 0.47-2.526 1.082s-1.203 1.427-1.419 2.331l-1.394 1.517zM26.768 25.699h0.025l0.603 0.597c0.105 0.104 0.164 0.245 0.164 0.392 0 0.11-0.033 0.217-0.095 0.308s-0.149 0.162-0.252 0.204c-0.102 0.042-0.215 0.053-0.324 0.032s-0.209-0.074-0.287-0.152l-0.46-0.455 0.624-0.925zM27 29.652c-0.433-0.001-0.861-0.095-1.255-0.274s-0.743-0.44-1.025-0.765c0.079-0.038 0.147-0.096 0.196-0.169l0.433-0.642c0.241 0.349 0.588 0.613 0.992 0.752s0.841 0.147 1.25 0.023c0.408-0.125 0.766-0.375 1.019-0.715s0.39-0.751 0.39-1.174c0.001-0.293-0.065-0.582-0.193-0.846-0.023-0.049-0.049-0.096-0.076-0.142h1.098c0.16 0.447 0.208 0.926 0.142 1.396s-0.245 0.917-0.522 1.304c-0.277 0.387-0.644 0.703-1.070 0.921s-0.899 0.332-1.379 0.332z"></path>
<path fill="none" d="M4 12.849h-1v2.965h1v-2.965z"></path>
</symbol>
<symbol id="icon-email" viewBox="0 0 35 32">
<path stroke-linejoin="round" stroke-linecap="round" stroke-miterlimit="4" stroke-width="2.4" d="M27.044 10.962l-7.109 5.781c-1.343 1.066-3.233 1.066-4.576 0l-7.169-5.781"></path>
<path stroke-linejoin="round" stroke-linecap="round" stroke-miterlimit="4" stroke-width="2.4" d="M25.454 30.4c4.866 0.013 8.146-3.985 8.146-8.899v-10.989c0-4.914-3.28-8.912-8.146-8.912h-15.708c-4.866 0-8.146 3.998-8.146 8.912v10.989c0 4.914 3.28 8.912 8.146 8.899h15.708z"></path>
</symbol>
<symbol id="icon-frame" viewBox="0 0 34 32">
<path fill="#fff" d="M20.636 28.6c-0.519 0-0.997-0.277-1.231-0.719l-4.083-7.717c-0.224-0.424-0.186-0.931 0.099-1.322l6.591-8.442-8.935 6.227c-0.414 0.27-0.951 0.304-1.399 0.094l-8.165-3.857c-0.49-0.233-0.788-0.718-0.758-1.235 0.029-0.517 0.382-0.97 0.897-1.148l26.139-9.1c0.502-0.173 1.068-0.060 1.449 0.3 0.38 0.357 0.504 0.893 0.318 1.369l-9.63 24.7c-0.19 0.486-0.667 0.82-1.215 0.848-0.025 0.001-0.051 0.003-0.076 0.003z"></path>
</symbol>
<symbol id="icon-location" viewBox="0 0 29 32">
<path stroke-linejoin="round" stroke-linecap="round" stroke-miterlimit="4" stroke-width="2.4" d="M18.4 13.601c0-2.21-1.791-4.001-3.999-4.001-2.21 0-4.001 1.791-4.001 4.001 0 2.208 1.791 3.999 4.001 3.999 2.208 0 3.999-1.791 3.999-3.999z"></path>
<path stroke-linejoin="round" stroke-linecap="round" stroke-miterlimit="4" stroke-width="2.4" d="M14.399 30.4c-1.918 0-11.999-8.163-11.999-16.699 0-6.683 5.371-12.101 11.999-12.101s12.001 5.419 12.001 12.101c0 8.536-10.083 16.699-12.001 16.699z"></path>
</symbol>
<symbol id="icon-phone" viewBox="0 0 32 32">
<path stroke-linejoin="round" stroke-linecap="round" stroke-miterlimit="4" stroke-width="2.1818" d="M19.423 2.182c5.383 0.598 9.636 4.845 10.24 10.228"></path>
<path stroke-linejoin="round" stroke-linecap="round" stroke-miterlimit="4" stroke-width="2.1818" d="M19.423 7.335c2.576 0.5 4.589 2.515 5.091 5.091"></path>
<path stroke-linejoin="round" stroke-linecap="round" stroke-miterlimit="4" stroke-width="2.1818" d="M14.591 16.687c5.802 5.801 7.118-0.91 10.813 2.782 3.561 3.561 5.61 4.274 1.096 8.785-0.565 0.454-4.156 5.919-16.777-6.698-12.622-12.619-7.161-16.214-6.706-16.779 4.523-4.524 5.226-2.465 8.788 1.096 3.693 3.693-3.015 5.014 2.787 10.815z"></path>
</symbol>
<symbol id="icon-pizza" viewBox="0 0 33 32">
<path fill="none" d="M31.897 31.82c-0.171 0.169-0.423 0.225-0.649 0.144l-25.959-9.256c-0.902 0.552-2.046 0.681-3.095 0.246-1.742-0.721-2.572-2.725-1.85-4.467 1.701-4.107 4.157-7.783 7.301-10.926s6.819-5.599 10.926-7.301c0.426-0.177 0.869-0.26 1.304-0.26 1.342 0 2.618 0.795 3.163 2.111 0.366 0.885 0.332 1.837-0.019 2.655l9.031 26.407c0.078 0.227 0.019 0.478-0.152 0.647zM9.219 22.782l2.751 0.981c0.323-0.344 0.48-0.818 0.417-1.297-0.056-0.422-0.272-0.797-0.61-1.056s-0.756-0.371-1.178-0.316c-0.422 0.056-0.797 0.272-1.056 0.61-0.239 0.311-0.352 0.691-0.325 1.078zM21.882 2.589c-0.458-1.105-1.729-1.631-2.834-1.174-8.002 3.315-14.235 9.547-17.55 17.55-0.222 0.535-0.222 1.125 0 1.66s0.639 0.952 1.174 1.174 1.125 0.222 1.66 0c0.535-0.222 0.952-0.638 1.174-1.174 1.419-3.425 3.468-6.492 6.089-9.113s5.688-4.67 9.113-6.089c1.105-0.458 1.631-1.729 1.174-2.833zM27.434 21.542c-0.057 0.001-0.113 0.005-0.17 0.012-0.422 0.056-0.797 0.272-1.056 0.61s-0.371 0.756-0.316 1.178c0.115 0.871 0.916 1.486 1.788 1.372 0.269-0.035 0.521-0.14 0.736-0.298l-0.983-2.873zM28.832 25.63c-0.305 0.166-0.639 0.276-0.988 0.322-1.554 0.205-2.985-0.893-3.19-2.448-0.099-0.753 0.101-1.499 0.563-2.102 0.445-0.58 1.083-0.959 1.802-1.075l-1.242-3.632-1.429 1.096c-0.274 0.21-0.666 0.158-0.876-0.115s-0.158-0.666 0.115-0.876l1.763-1.353-3.231-9.447c-0.271 0.236-0.583 0.433-0.933 0.578-6.624 2.744-11.783 7.902-14.526 14.526-0.095 0.23-0.214 0.444-0.351 0.641l1.674 0.597c0.058-0.504 0.252-0.985 0.569-1.398 0.462-0.603 1.132-0.989 1.884-1.088 0.126-0.017 0.252-0.025 0.377-0.025 0.622 0 1.223 0.203 1.725 0.588 0.603 0.462 0.989 1.131 1.088 1.884 0.089 0.676-0.069 1.345-0.423 1.9l7.769 2.77 0.294-0.711c0.1-0.241 0.332-0.386 0.578-0.386 0.080 0 0.161 0.015 0.239 0.048 0.319 0.132 0.47 0.498 0.338 0.817l-0.27 0.653 8.295 2.958-1.615-4.721z"></path>
<path fill="none" d="M6.832 15.233c-0.002 0.003-0.007 0.011-0.009 0.014-0.191 0.287-0.579 0.364-0.866 0.173s-0.364-0.578-0.175-0.865c0.12-0.184 0.32-0.284 0.524-0.284 0.116 0 0.233 0.032 0.337 0.099 0.29 0.187 0.374 0.573 0.188 0.864z"></path>
<path fill="none" d="M5.881 16.785c-0.609 1.068-1.157 2.186-1.627 3.322-0.132 0.319-0.498 0.47-0.817 0.338s-0.47-0.498-0.338-0.817c0.491-1.184 1.061-2.349 1.696-3.463 0.115-0.202 0.326-0.316 0.543-0.316 0.105 0 0.211 0.027 0.309 0.082 0.3 0.171 0.404 0.553 0.233 0.853z"></path>
<path fill="none" d="M19.64 24.001c-0.124 0.016-0.25 0.025-0.374 0.025-1.42 0-2.63-1.063-2.816-2.472-0.205-1.554 0.893-2.985 2.448-3.19 0.124-0.016 0.25-0.025 0.374-0.025 1.42 0 2.63 1.063 2.816 2.472 0.205 1.554-0.893 2.985-2.448 3.19zM20.849 20.974c-0.104-0.79-0.782-1.385-1.577-1.385-0.070 0-0.141 0.005-0.211 0.014-0.871 0.115-1.486 0.916-1.371 1.787 0.104 0.79 0.782 1.385 1.577 1.385 0.070 0 0.141-0.005 0.211-0.014 0.871-0.115 1.486-0.916 1.372-1.787z"></path>
<path fill="none" d="M19.478 16.227c-0.124 0.016-0.25 0.025-0.374 0.025-1.42 0-2.63-1.063-2.816-2.472-0.099-0.753 0.101-1.499 0.563-2.102s1.131-0.989 1.884-1.088c0.124-0.016 0.25-0.024 0.374-0.024 1.42 0 2.63 1.063 2.816 2.472 0.205 1.554-0.893 2.985-2.447 3.19zM20.686 13.2c-0.104-0.79-0.782-1.385-1.577-1.385-0.070 0-0.141 0.005-0.211 0.014-0.422 0.056-0.797 0.272-1.056 0.61s-0.371 0.756-0.316 1.178c0.104 0.79 0.782 1.385 1.577 1.385 0.070 0 0.141-0.005 0.211-0.014 0.871-0.115 1.486-0.916 1.372-1.787z"></path>
<path fill="none" d="M15.355 18.816l-1.921 0.253c-0.342 0.045-0.656-0.196-0.701-0.538s0.196-0.656 0.538-0.701l1.921-0.253c0.028-0.004 0.055-0.005 0.082-0.005 0.309 0 0.577 0.229 0.619 0.543 0.045 0.342-0.196 0.656-0.538 0.701z"></path>
<path fill="none" d="M14.381 14.204l-0.17 1.289c-0.045 0.342-0.359 0.583-0.701 0.538s-0.583-0.359-0.538-0.701l0.17-1.289c0.041-0.315 0.31-0.543 0.619-0.543 0.027 0 0.055 0.002 0.082 0.005 0.342 0.045 0.583 0.359 0.538 0.701z"></path>
</symbol>
<symbol id="icon-sandwich" viewBox="0 0 32 32">
<path fill="none" d="M30.4 4.8h-1.067v-1.067c0-0.884-0.716-1.6-1.6-1.6h-1.27l-0.772-1.543c-0.179-0.363-0.55-0.592-0.954-0.59h-0.737c-0.589 0-1.067 0.478-1.067 1.067v1.067h-5.867c-0.884 0-1.6 0.716-1.6 1.6v1.067h-1.067c-0.884 0-1.6 0.716-1.6 1.6v1.067c0 0.589 0.478 1.067 1.067 1.067h0.057l0.624 5.51-2.57-0.604c-0.13-0.199-0.267-0.397-0.419-0.591l-0.907-3.902c-0.056-0.241-0.271-0.412-0.518-0.413h-3.065c-1.446-1.274-3.155-1.85-4.444-1.471l-0.783-0.853c-0.296-0.323-0.761-0.429-1.167-0.267-0.407 0.157-0.676 0.549-0.675 0.986v23.483c0.001 0.877 0.712 1.588 1.589 1.589h26.144c0.271-0 0.499-0.204 0.53-0.473l2.613-22.994h0.058c0.589 0 1.067-0.478 1.067-1.067v-1.067c0-0.884-0.716-1.6-1.6-1.6zM24 1.067h0.737l0.533 1.067h-1.27v-1.067zM16.533 3.733c0-0.295 0.239-0.533 0.533-0.533h10.667c0.295 0 0.533 0.239 0.533 0.533v1.067h-11.733v-1.067zM15.040 15.253l0.034 0.006 0.431 0.102 0.289 3.027c-0.838-0.593-1.84-0.909-2.866-0.904 0.198-0.941 0.093-1.92-0.299-2.798l2.411 0.566zM16.082 19.971l0.007 0.006c0.193 0.179 0.377 0.368 0.549 0.566 0.635 0.708 1.101 1.55 1.365 2.463 0.090 0.318 0.137 0.647 0.138 0.978l-4.981-5.433c1.108 0.124 2.14 0.625 2.922 1.419zM10.462 13.193v-0.001c1.151 1.323 1.687 2.912 1.433 3.979l-5.428-5.917c1.095-0.245 2.76 0.524 3.995 1.939zM9.707 9.6l0.427 1.816c-0.429-0.334-0.896-0.616-1.391-0.839-0.202-0.341-0.427-0.667-0.675-0.977h1.639zM7.026 9.997h0.002c0.044 0.051 0.081 0.107 0.123 0.16-0.501-0.046-1.005 0.039-1.463 0.246l-2.193-2.391c1.072 0.015 2.471 0.77 3.53 1.985zM22.354 30.62c-0.083 0.19-0.27 0.313-0.477 0.313h-20.288c-0.289 0-0.523-0.234-0.523-0.523l-0.010-23.477 20.447 22.297c0.012 0.016 0.025 0.032 0.039 0.047l0.715 0.78c0.141 0.152 0.179 0.372 0.096 0.562zM19.053 24.978c0.098-0.318 0.147-0.65 0.147-0.983 0.28 0.236 0.541 0.494 0.781 0.772 0.298 0.34 0.562 0.709 0.79 1.1 0.311 0.524 0.532 1.096 0.651 1.694l-2.369-2.582zM27.257 30.933h-3.885c0.2-0.553 0.073-1.171-0.328-1.6l-0.537-0.587c0.105-0.893-0.039-1.797-0.416-2.613h5.712l-0.546 4.8zM27.924 25.067h-6.4c-0.219-0.351-0.464-0.685-0.734-1-0.525-0.609-1.141-1.133-1.827-1.554-0.313-0.988-0.831-1.899-1.52-2.674-0.16-0.181-0.32-0.35-0.488-0.513l-0.421-4.444c-0.022-0.227-0.186-0.416-0.408-0.468l-0.473-0.112-0.112-0.969h13.717l-1.334 11.733zM29.379 12.267h-13.959l-0.422-3.733h14.805l-0.424 3.733zM30.933 7.467h-17.067v-1.067c0-0.295 0.239-0.533 0.533-0.533h16c0.295 0 0.533 0.239 0.533 0.533v1.067z"></path>
<path fill="none" d="M22.619 23.467c0.030 0 0.060-0.004 0.090-0.005 0.008 0 0.016 0.005 0.024 0.005 0.027-0.002 0.053-0.005 0.079-0.011 0.835-0.056 1.604-0.472 2.108-1.14 0.672-0.944 0.864-2.148 0.52-3.254-0.074-0.276-0.142-0.547-0.207-0.809-0.416-1.668-0.813-3.241-2.498-3.311-0.017 0-0.033-0.003-0.050-0.003s-0.042-0.004-0.066-0.004c-1.885 0-3.419 1.914-3.419 4.267s1.534 4.267 3.419 4.267zM23.031 16.080c0.551 0.216 0.794 0.939 1.166 2.43 0.067 0.267 0.136 0.546 0.213 0.829 0.255 0.786 0.131 1.646-0.338 2.327-0.17 0.223-0.387 0.405-0.637 0.533-0.018-0.917-0.199-1.823-0.533-2.677-0.053-0.166-0.107-0.327-0.154-0.48-0.31-1.010 0.053-2.318 0.282-2.963zM21.885 16.16c-0.347 1.030-0.4 2.137-0.154 3.195 0.049 0.16 0.104 0.326 0.16 0.498 0.267 0.814 0.587 1.798 0.456 2.522-1.169-0.182-2.081-1.536-2.081-3.175 0-1.416 0.68-2.618 1.619-3.040z"></path>
<path fill="none" d="M2.823 28.046l-0.377 0.377c-0.139 0.134-0.194 0.332-0.145 0.519s0.194 0.332 0.381 0.381c0.187 0.049 0.385-0.007 0.519-0.145l0.377-0.377c0.202-0.209 0.199-0.542-0.006-0.748s-0.538-0.209-0.748-0.007z"></path>
<path fill="none" d="M7.922 24.456c0.208-0.208 0.208-0.546 0-0.755s-0.546-0.208-0.755 0l-0.377 0.377c-0.135 0.135-0.188 0.331-0.138 0.515s0.193 0.328 0.377 0.377 0.381-0.003 0.515-0.138l0.378-0.377z"></path>
<path fill="none" d="M3.2 23.090l-0.377 0.377c-0.139 0.134-0.194 0.332-0.145 0.519s0.194 0.332 0.381 0.381c0.187 0.049 0.385-0.007 0.519-0.145l0.377-0.377c0.202-0.209 0.199-0.542-0.006-0.748s-0.538-0.209-0.748-0.007z"></path>
<path fill="none" d="M3.2 19.356l-0.377 0.377c-0.139 0.134-0.194 0.332-0.145 0.519s0.194 0.332 0.381 0.381c0.187 0.049 0.385-0.007 0.519-0.145l0.377-0.377c0.202-0.209 0.199-0.542-0.006-0.748s-0.538-0.209-0.748-0.006z"></path>
<path fill="none" d="M8 28.046l-0.377 0.377c-0.139 0.134-0.194 0.332-0.145 0.519s0.194 0.332 0.381 0.381c0.186 0.049 0.385-0.007 0.519-0.145l0.377-0.377c0.202-0.209 0.199-0.542-0.006-0.748s-0.538-0.209-0.748-0.007z"></path>
<path fill="none" d="M11.89 28.046l-0.377 0.377c-0.139 0.134-0.194 0.332-0.145 0.519s0.194 0.332 0.381 0.381c0.186 0.049 0.385-0.007 0.519-0.145l0.377-0.377c0.202-0.209 0.199-0.542-0.006-0.748s-0.538-0.209-0.748-0.007z"></path>
</symbol>
<symbol id="icon-search" viewBox="0 0 32 32">
<path fill="none" stroke-linejoin="round" stroke-linecap="round" stroke-miterlimit="4" stroke-width="2.2857" d="M28.579 14.674c0 7.477-6.132 13.538-13.697 13.538s-13.697-6.061-13.697-13.538c0-7.477 6.132-13.538 13.697-13.538s13.697 6.061 13.697 13.538z"></path>
<path fill="none" stroke-linejoin="round" stroke-linecap="round" stroke-miterlimit="4" stroke-width="2.2857" d="M24.409 24.794l5.37 5.294"></path>
</symbol>
<symbol id="icon-set" viewBox="0 0 32 32">
<path fill="none" d="M22.66 10.66l-0.342-1.114c-0.435-1.265-1.825-1.942-3.105-1.513-0.72 0.242-1.286 0.801-1.53 1.513l-0.342 1.114c-0.288 0.939-0.349 1.933-0.177 2.899 0.157 0.814 0.68 1.513 1.421 1.9l-0.383 8.473c-0.051 0.473 0.104 0.945 0.427 1.298 0.694 0.751 1.873 0.803 2.632 0.117 0.041-0.037 0.080-0.076 0.118-0.117 0.316-0.343 0.471-0.801 0.427-1.263l-0.386-8.509c0.74-0.387 1.262-1.086 1.419-1.899 0.172-0.967 0.112-1.96-0.177-2.899zM21.786 13.376c-0.116 0.585-0.537 1.065-1.107 1.259-0.216 0.080-0.355 0.289-0.345 0.517l0.405 8.899c0.019 0.175-0.040 0.349-0.16 0.478-0.321 0.314-0.838 0.314-1.16 0-0.126-0.14-0.184-0.327-0.157-0.512l0.402-8.864c0.010-0.228-0.129-0.437-0.345-0.517-0.57-0.195-0.991-0.675-1.107-1.259-0.143-0.803-0.092-1.627 0.147-2.407l0.342-1.114c0.265-0.708 1.060-1.070 1.777-0.808 0.379 0.138 0.677 0.434 0.817 0.808l0.342 1.114c0.239 0.78 0.289 1.604 0.147 2.407z"></path>
<path fill="none" d="M14.4 7.907c-0.295 0-0.533 0.236-0.533 0.527v4.526l-1.444 1.427c-0.107 0.105-0.164 0.25-0.156 0.399l0.467 9.225c0.011 0.199-0.062 0.393-0.202 0.537-0.292 0.291-0.767 0.293-1.062 0.005-0.002-0.002-0.003-0.003-0.005-0.005-0.14-0.144-0.213-0.338-0.202-0.537l0.47-9.225c0.008-0.149-0.049-0.294-0.156-0.399l-1.444-1.427v-4.526c0-0.291-0.239-0.527-0.533-0.527s-0.533 0.236-0.533 0.527v4.744c0 0.14 0.056 0.274 0.156 0.373l1.433 1.416-0.455 8.993c-0.048 0.982 0.718 1.817 1.712 1.865s1.839-0.71 1.887-1.692c0.003-0.058 0.003-0.116 0-0.173l-0.455-8.992 1.433-1.416c0.1-0.099 0.156-0.233 0.156-0.373v-4.744c0-0.291-0.239-0.527-0.533-0.527z"></path>
<path fill="none" d="M11.2 7.907c-0.295 0-0.533 0.236-0.533 0.527v4.217c0 0.291 0.239 0.527 0.533 0.527s0.533-0.236 0.533-0.527v-4.217c0-0.291-0.239-0.527-0.533-0.527z"></path>
<path fill="none" d="M12.8 7.907c-0.295 0-0.533 0.236-0.533 0.527v4.217c0 0.291 0.239 0.527 0.533 0.527s0.533-0.236 0.533-0.527v-4.217c0-0.291-0.239-0.527-0.533-0.527z"></path>
<path fill="none" d="M16 0c-8.837 0-16 7.080-16 15.814s7.163 15.814 16 15.814c8.837 0 16-7.080 16-15.814-0.010-8.73-7.168-15.804-16-15.814zM16 30.574c-8.248 0-14.933-6.608-14.933-14.76s6.686-14.76 14.933-14.76c8.248 0 14.933 6.608 14.933 14.76-0.009 8.148-6.69 14.751-14.933 14.76z"></path>
<path fill="none" d="M17.731 25.71c-0.029-0.29-0.289-0.502-0.583-0.474-0.007 0.001-0.014 0.001-0.021 0.002l0.002-0c-0.751 0.086-1.509 0.086-2.26 0-0.293-0.034-0.558 0.173-0.592 0.463s0.175 0.552 0.468 0.585c0.833 0.096 1.674 0.096 2.507 0 0.293-0.028 0.508-0.286 0.479-0.576z"></path>
<path fill="none" d="M24.16 9.022c-0.189-0.223-0.526-0.252-0.751-0.065-0.001 0.001-0.001 0.001-0.002 0.002-0.225 0.188-0.254 0.52-0.064 0.743 3.216 3.773 2.97 9.352-0.566 12.834-0.209 0.206-0.209 0.539-0.001 0.746s0.546 0.207 0.754 0.001c3.929-3.869 4.203-10.068 0.63-14.261z"></path>
<path fill="none" d="M12.426 6.968c-0 0-0.001-0.001-0.001-0.001s-0.001 0.001-0.002 0.001h0.003z"></path>
<path fill="none" d="M18.516 5.566c-2.084-0.494-4.27-0.361-6.278 0.381-0.276 0.102-0.415 0.407-0.312 0.679 0.078 0.205 0.277 0.341 0.499 0.342 0.064-0 0.127-0.012 0.187-0.034 1.808-0.668 3.776-0.788 5.653-0.343 0.286 0.068 0.575-0.106 0.644-0.388s-0.107-0.568-0.393-0.636z"></path>
<path fill="none" d="M9.199 22.509c-1.798-1.774-2.806-4.184-2.799-6.695-0.005-2.006 0.638-3.962 1.835-5.581 0.177-0.233 0.13-0.563-0.106-0.738s-0.57-0.128-0.747 0.105c-0.003 0.004-0.006 0.008-0.009 0.012-3.084 4.19-2.63 9.973 1.070 13.644 0.209 0.206 0.547 0.206 0.755 0s0.209-0.54 0-0.747z"></path>
</symbol>
<symbol id="icon-shop" viewBox="0 0 32 32">
<path fill="none" d="M30.5 26.5h-3.5v-10.044c0.309-0.064 0.601-0.194 0.855-0.381s0.464-0.428 0.615-0.705c0.151-0.277 0.241-0.584 0.262-0.899s-0.027-0.631-0.14-0.925l-1.591-4.138v-7.907c0-0.066-0.013-0.131-0.038-0.191s-0.062-0.116-0.108-0.162c-0.046-0.046-0.102-0.083-0.162-0.108s-0.126-0.038-0.191-0.038h-21c-0.066-0-0.131 0.013-0.191 0.038s-0.116 0.062-0.162 0.108c-0.046 0.046-0.083 0.102-0.108 0.162s-0.038 0.126-0.038 0.191v7.907l-1.591 4.138c-0.113 0.295-0.161 0.61-0.14 0.925s0.11 0.622 0.262 0.899 0.361 0.518 0.615 0.705c0.254 0.188 0.545 0.318 0.855 0.381v10.044h-3.5c-0.066 0-0.131 0.013-0.191 0.038s-0.116 0.062-0.162 0.108-0.083 0.102-0.108 0.162c-0.025 0.061-0.038 0.126-0.038 0.191v3.5c-0 0.066 0.013 0.131 0.038 0.191s0.062 0.116 0.108 0.162c0.046 0.047 0.102 0.083 0.162 0.108s0.126 0.038 0.191 0.038h29c0.066 0 0.131-0.013 0.191-0.038s0.116-0.062 0.162-0.108c0.047-0.046 0.083-0.102 0.108-0.162s0.038-0.126 0.038-0.191v-3.5c0-0.066-0.013-0.131-0.038-0.191s-0.062-0.116-0.108-0.162c-0.046-0.046-0.102-0.083-0.162-0.108s-0.126-0.038-0.191-0.038zM25 26.5v-10.664c0.274 0.284 0.619 0.487 1 0.589v10.075h-1zM21 27v3h-2v-3.5h1c0.133 0 0.26-0.053 0.354-0.146s0.146-0.221 0.146-0.354v-1.5c0-0.133-0.053-0.26-0.146-0.354s-0.221-0.146-0.354-0.146h-3c-0.133 0-0.26 0.053-0.354 0.146s-0.146 0.221-0.147 0.354v1.5c0 0.133 0.053 0.26 0.147 0.354s0.221 0.146 0.354 0.146h1v3.5h-2v-3c0-0.066-0.013-0.131-0.038-0.191s-0.062-0.116-0.108-0.162c-0.046-0.046-0.102-0.083-0.162-0.108s-0.126-0.038-0.191-0.038h-1v-1.5c0-0.066-0.013-0.131-0.038-0.191s-0.062-0.116-0.108-0.162-0.102-0.083-0.162-0.108c-0.061-0.025-0.126-0.038-0.191-0.038h-1v-8.046c0.485-0.1 0.921-0.363 1.236-0.745 0.031 0.038 0.063 0.075 0.097 0.111 0.202 0.216 0.447 0.387 0.719 0.504s0.564 0.177 0.86 0.175h0.176c0.296 0.001 0.589-0.058 0.86-0.175s0.516-0.288 0.719-0.504c0.034-0.036 0.067-0.073 0.098-0.111 0.072 0.087 0.151 0.168 0.236 0.243v1.547c-0.663 0.001-1.298 0.264-1.767 0.733s-0.732 1.104-0.733 1.767c0 0.066 0.013 0.131 0.038 0.191s0.062 0.116 0.108 0.162 0.102 0.083 0.162 0.108c0.061 0.025 0.126 0.038 0.191 0.038h5c0.066 0 0.131-0.013 0.191-0.038s0.116-0.062 0.162-0.108 0.083-0.102 0.108-0.162c0.025-0.061 0.038-0.126 0.038-0.191-0.001-0.663-0.264-1.298-0.733-1.767s-1.104-0.732-1.767-0.733v-1.046c0.145 0.030 0.293 0.046 0.442 0.046h0.156c0.316 0 0.627-0.068 0.914-0.201s0.54-0.326 0.744-0.567c0.013-0.015 0.026-0.031 0.037-0.046 0.204 0.255 0.462 0.46 0.756 0.601s0.616 0.214 0.942 0.213h0.097c0.314 0.001 0.625-0.067 0.911-0.197v8.197h-1c-0.066 0-0.131 0.013-0.191 0.038s-0.116 0.062-0.162 0.108-0.083 0.102-0.108 0.162c-0.025 0.061-0.038 0.126-0.038 0.191v1.5h-1c-0.066 0-0.131 0.013-0.191 0.038s-0.116 0.062-0.162 0.108c-0.047 0.046-0.083 0.102-0.108 0.162s-0.038 0.126-0.038 0.191zM17.5 25.5v-0.5h2v0.5h-2zM7.777 14.017l1.104-4.017h2.029l-0.744 4.517c-0.045 0.275-0.186 0.525-0.398 0.705s-0.482 0.279-0.761 0.278h-0.097c-0.181-0-0.359-0.042-0.52-0.122s-0.303-0.196-0.413-0.34c-0.11-0.143-0.185-0.31-0.219-0.487s-0.028-0.36 0.019-0.534zM8 16.302c0.286 0.131 0.596 0.198 0.911 0.197h0.097c0.326 0.001 0.648-0.072 0.942-0.213s0.553-0.346 0.756-0.601c0.012 0.016 0.024 0.031 0.037 0.046 0.322 0.38 0.766 0.638 1.256 0.73v2.538h-4v-2.697zM12.402 15.5c-0.17 0-0.339-0.037-0.494-0.109s-0.292-0.176-0.402-0.306c-0.11-0.13-0.191-0.282-0.236-0.447s-0.055-0.336-0.027-0.505l0.681-4.134h2.048l-0.241 4.39c-0.016 0.3-0.147 0.582-0.365 0.788s-0.507 0.322-0.807 0.322h-0.156zM16.941 15.133c-0.109 0.116-0.241 0.209-0.388 0.272s-0.305 0.095-0.464 0.095h-0.176c-0.159-0-0.317-0.033-0.464-0.095s-0.278-0.155-0.388-0.271c-0.11-0.116-0.195-0.252-0.25-0.402s-0.079-0.309-0.071-0.468l0.234-4.264h2.054l0.234 4.261v0.003c0.009 0.159-0.015 0.318-0.070 0.468s-0.14 0.286-0.25 0.401zM18.269 14.39l-0.241-4.39h2.048l0.681 4.134c0.028 0.168 0.019 0.34-0.027 0.505s-0.126 0.317-0.236 0.447c-0.11 0.13-0.248 0.234-0.402 0.306s-0.323 0.109-0.494 0.109h-0.156c-0.3-0-0.589-0.115-0.807-0.322s-0.349-0.489-0.365-0.788v0zM19 18.5c0.31 0 0.613 0.097 0.866 0.276s0.445 0.432 0.549 0.724h-3.829c0.104-0.292 0.295-0.545 0.549-0.724s0.556-0.275 0.866-0.276h1zM24.023 15.038c-0.109 0.144-0.25 0.261-0.412 0.341s-0.341 0.122-0.521 0.121h-0.097c-0.279 0.001-0.548-0.098-0.761-0.278s-0.354-0.43-0.398-0.705l-0.744-4.517h2.029l1.103 4.014c0 0.001 0.001 0.002 0.001 0.002 0.048 0.174 0.055 0.357 0.020 0.534s-0.11 0.344-0.22 0.487zM23.5 25.5h0.5v1h-0.5v-1zM27.658 13.904c0.068 0.178 0.093 0.37 0.070 0.559s-0.090 0.37-0.198 0.528c-0.108 0.157-0.253 0.286-0.421 0.374s-0.357 0.135-0.547 0.135c-0.257-0.001-0.507-0.085-0.711-0.241s-0.352-0.374-0.421-0.622l-1.274-4.637h2.001l1.501 3.904zM6 2h20v7h-20v-7zM4.47 14.991c-0.109-0.157-0.178-0.338-0.2-0.527s0.003-0.382 0.072-0.56l1.501-3.904h2.001l-1.274 4.637c-0.069 0.248-0.217 0.466-0.421 0.622s-0.454 0.24-0.711 0.241c-0.191 0.001-0.379-0.044-0.548-0.133s-0.313-0.218-0.42-0.376zM6 16.425c0.381-0.102 0.726-0.306 1-0.589v10.664h-1v-10.075zM10 30h-8v-2.5h8v2.5zM10.5 26.5h-2.5v-6.5h4v10h-1v-3c0-0.066-0.013-0.131-0.038-0.191s-0.062-0.116-0.108-0.162c-0.046-0.046-0.102-0.083-0.162-0.108s-0.126-0.038-0.191-0.038zM13 25.5h0.5v1.5c-0 0.066 0.013 0.131 0.038 0.191s0.062 0.116 0.108 0.162 0.102 0.083 0.162 0.108c0.061 0.025 0.126 0.038 0.191 0.038h1v2.5h-2v-4.5zM30 30h-8v-2.5h8v2.5z"></path>
<path fill="none" d="M19.5 6h-0.543c-0.105-0.614-0.398-1.18-0.838-1.62s-1.006-0.733-1.62-0.838v-0.542c0-0.133-0.053-0.26-0.146-0.354s-0.221-0.146-0.354-0.146-0.26 0.053-0.354 0.146c-0.094 0.094-0.146 0.221-0.146 0.354v0.542c-0.614 0.105-1.18 0.397-1.62 0.838s-0.733 1.006-0.838 1.62h-0.543c-0.133 0-0.26 0.053-0.354 0.146s-0.146 0.221-0.146 0.354c0.001 0.53 0.211 1.039 0.586 1.414s0.883 0.586 1.414 0.586h4c0.53-0.001 1.039-0.211 1.414-0.586s0.586-0.883 0.586-1.414c0-0.133-0.053-0.26-0.146-0.354s-0.221-0.146-0.354-0.146zM16 4.5c0.443 0.001 0.874 0.148 1.224 0.42s0.601 0.651 0.712 1.080h-3.873c0.111-0.429 0.362-0.809 0.712-1.080s0.781-0.419 1.224-0.42zM18 7.5h-4c-0.176-0-0.348-0.046-0.5-0.134s-0.278-0.214-0.366-0.366h5.732c-0.088 0.152-0.214 0.278-0.366 0.366s-0.324 0.134-0.5 0.134z"></path>
<path fill="none" d="M12.277 4.916c0.068-0.046 0.125-0.108 0.163-0.18s0.059-0.154 0.059-0.236v-1.5h-1v1.214c-0.159 0.081-0.327 0.142-0.5 0.183v-1.397h-1v1.397c-0.173-0.040-0.341-0.102-0.5-0.183v-1.214h-1v1.5c0 0.082 0.020 0.163 0.059 0.236s0.095 0.134 0.164 0.18c0.385 0.257 0.821 0.427 1.277 0.5v3.084h1v-3.084c0.457-0.073 0.893-0.243 1.277-0.5z"></path>
<path fill="none" d="M21.5 2.5c-0.487 0-0.957 0.178-1.322 0.499s-0.601 0.766-0.662 1.249c-0.061 0.483 0.056 0.972 0.329 1.375s0.684 0.692 1.155 0.814v2.063h1v-2.063c0.471-0.122 0.882-0.411 1.155-0.814s0.39-0.892 0.329-1.375c-0.061-0.483-0.297-0.927-0.662-1.249s-0.835-0.499-1.322-0.499zM21.5 5.5c-0.198 0-0.391-0.059-0.556-0.169s-0.293-0.266-0.368-0.449c-0.076-0.183-0.096-0.384-0.057-0.578s0.134-0.372 0.274-0.512c0.14-0.14 0.318-0.235 0.512-0.274s0.395-0.019 0.578 0.057c0.183 0.076 0.339 0.204 0.449 0.368s0.169 0.358 0.169 0.556c-0 0.265-0.106 0.519-0.293 0.707s-0.442 0.293-0.707 0.293z"></path>
</symbol>
<symbol id="icon-stopwatch" viewBox="0 0 32 32">
<path fill="none" d="M29.886 12.123l0.937-0.937c0.271-0.271 0.42-0.631 0.42-1.014s-0.149-0.744-0.42-1.014l-1.074-1.074c-0.271-0.271-0.631-0.42-1.014-0.42s-0.744 0.149-1.014 0.42l-0.938 0.937c-1.237-0.852-2.641-1.479-4.152-1.819v-1.386h0.57c0.772 0 1.401-0.628 1.401-1.401v-1.949c0-0.772-0.628-1.401-1.401-1.401h-6.449c-0.772 0-1.401 0.628-1.401 1.401v1.949c0 0.772 0.628 1.401 1.401 1.401h0.57v1.389c-1.504 0.342-2.902 0.967-4.134 1.816l-0.937-0.937c-0.271-0.271-0.631-0.42-1.014-0.42s-0.744 0.149-1.014 0.42l-1.074 1.074c-0.559 0.559-0.559 1.47 0 2.029l0.166 0.166h-4.43c-0.345 0-0.625 0.28-0.625 0.625s0.28 0.625 0.625 0.625h4.888c-0.466 0.75-0.851 1.555-1.144 2.402h-8.004c-0.345 0-0.625 0.28-0.625 0.625s0.28 0.625 0.625 0.625h7.647c-0.176 0.775-0.277 1.579-0.295 2.402h-3.977c-0.345 0-0.625 0.28-0.625 0.625s0.28 0.625 0.625 0.625h4.014c0.068 0.827 0.219 1.631 0.447 2.402h-5.336c-0.345 0-0.625 0.28-0.625 0.625s0.28 0.625 0.625 0.625h5.78c1.818 4.328 6.101 7.375 11.081 7.375 6.624 0 12.013-5.389 12.013-12.013 0-2.521-0.781-4.863-2.114-6.797zM28.605 8.967c0.045-0.045 0.096-0.054 0.131-0.054s0.086 0.009 0.131 0.054l1.074 1.074c0.045 0.045 0.054 0.096 0.054 0.131s-0.009 0.086-0.054 0.131l-0.822 0.822c-0.41-0.479-0.856-0.925-1.335-1.335l0.822-0.822zM16.603 4.415v-1.949c0-0.083 0.068-0.151 0.151-0.151h6.449c0.083 0 0.151 0.068 0.151 0.151v1.949c0 0.083-0.068 0.151-0.151 0.151h-6.449c-0.083 0-0.151-0.068-0.151-0.151zM18.574 5.816h2.808v1.173c-0.458-0.053-0.923-0.081-1.395-0.081-0.478 0-0.949 0.029-1.413 0.083l-0-1.175zM10.033 10.041l1.074-1.074c0.045-0.045 0.096-0.054 0.131-0.054s0.086 0.009 0.131 0.054l0.822 0.822c-0.479 0.409-0.925 0.856-1.335 1.335l-0.822-0.822c-0.072-0.072-0.072-0.189 0-0.261zM19.987 29.684c-5.935 0-10.763-4.828-10.763-10.763s4.828-10.763 10.763-10.763c5.935 0 10.763 4.828 10.763 10.763s-4.828 10.763-10.763 10.763z"></path>
<path fill="none" d="M24.112 13.912l-2.954 2.954c-0.346-0.198-0.745-0.311-1.171-0.311-1.305 0-2.366 1.061-2.366 2.366s1.061 2.366 2.366 2.366 2.366-1.061 2.366-2.366c0-0.426-0.114-0.825-0.311-1.171l2.954-2.954c0.244-0.244 0.244-0.64 0-0.884s-0.64-0.244-0.884 0zM19.987 20.037c-0.615 0-1.116-0.501-1.116-1.116s0.501-1.116 1.116-1.116 1.116 0.501 1.116 1.116c0 0.615-0.501 1.116-1.116 1.116z"></path>
<path fill="none" d="M19.987 10.818c0.164 0 0.326-0.067 0.442-0.183s0.183-0.278 0.183-0.442c0-0.164-0.067-0.326-0.183-0.442s-0.277-0.183-0.442-0.183c-0.164 0-0.326 0.067-0.442 0.183s-0.183 0.277-0.183 0.442c0 0.165 0.067 0.326 0.183 0.442s0.277 0.183 0.442 0.183z"></path>
<path fill="none" d="M19.987 27.024c-0.164 0-0.326 0.067-0.442 0.183s-0.183 0.278-0.183 0.442c0 0.165 0.067 0.326 0.183 0.442s0.277 0.183 0.442 0.183c0.164 0 0.326-0.066 0.442-0.183s0.183-0.277 0.183-0.442c0-0.164-0.067-0.326-0.183-0.442s-0.277-0.183-0.442-0.183z"></path>
<path fill="none" d="M13.815 12.124c-0.164 0-0.326 0.067-0.442 0.183s-0.183 0.278-0.183 0.442c0 0.165 0.067 0.326 0.183 0.443s0.278 0.182 0.442 0.182c0.164 0 0.326-0.066 0.442-0.182s0.183-0.278 0.183-0.443c0-0.164-0.067-0.325-0.183-0.442s-0.277-0.183-0.442-0.183z"></path>
<path fill="none" d="M26.159 24.467c-0.165 0-0.326 0.067-0.443 0.183s-0.183 0.277-0.183 0.442c0 0.164 0.066 0.326 0.183 0.442s0.277 0.183 0.443 0.183c0.164 0 0.326-0.067 0.442-0.183s0.183-0.278 0.183-0.442c0-0.164-0.067-0.326-0.183-0.442s-0.277-0.183-0.442-0.183z"></path>
<path fill="none" d="M13.815 24.467c-0.164 0-0.326 0.067-0.442 0.183s-0.183 0.277-0.183 0.442c0 0.164 0.067 0.326 0.183 0.442s0.278 0.183 0.442 0.183c0.164 0 0.326-0.067 0.442-0.183s0.183-0.278 0.183-0.442c0-0.164-0.067-0.326-0.183-0.442s-0.277-0.183-0.442-0.183z"></path>
<path fill="none" d="M11.259 18.296c-0.165 0-0.326 0.067-0.442 0.183s-0.183 0.277-0.183 0.442c0 0.164 0.066 0.326 0.183 0.442s0.277 0.183 0.442 0.183c0.164 0 0.326-0.066 0.442-0.183s0.183-0.277 0.183-0.442c0-0.164-0.067-0.326-0.183-0.442s-0.278-0.183-0.442-0.183z"></path>
<path fill="none" d="M29.157 18.479c-0.116-0.116-0.277-0.183-0.442-0.183s-0.326 0.067-0.442 0.183c-0.116 0.116-0.183 0.277-0.183 0.442s0.067 0.326 0.183 0.442c0.116 0.116 0.277 0.183 0.442 0.183s0.326-0.067 0.442-0.183c0.116-0.116 0.183-0.277 0.183-0.442s-0.067-0.326-0.183-0.442z"></path>
<path fill="none" d="M0.625 22.309c-0.164 0-0.326 0.066-0.442 0.183s-0.183 0.278-0.183 0.443c0 0.164 0.067 0.325 0.183 0.442s0.278 0.183 0.442 0.183 0.326-0.067 0.442-0.183c0.116-0.116 0.183-0.278 0.183-0.442s-0.067-0.326-0.183-0.443c-0.116-0.116-0.277-0.183-0.442-0.183z"></path>
<path fill="none" d="M28.531 17.023c0.331-0.099 0.519-0.447 0.421-0.777-0.442-1.483-1.257-2.847-2.358-3.946s-2.467-1.911-3.951-2.35c-0.331-0.098-0.679 0.091-0.776 0.422s0.091 0.679 0.422 0.776c2.637 0.779 4.68 2.818 5.466 5.454 0.081 0.271 0.329 0.447 0.599 0.447 0.059 0 0.119-0.008 0.179-0.026z"></path>
</symbol>
<symbol id="icon-timer" viewBox="0 0 32 32">
<path d="M16.836 3.695v-1.395c0-0.236-0.094-0.462-0.26-0.629s-0.393-0.26-0.629-0.26c-0.236 0-0.462 0.094-0.629 0.26s-0.26 0.393-0.26 0.629v1.403c-6.985 0.485-12.521 6.319-12.521 13.425 0 7.422 6.040 13.461 13.463 13.461s13.463-6.040 13.463-13.461c0-7.142-5.592-13-12.627-13.433zM16 28.811c-6.443 0-11.685-5.242-11.685-11.684s5.242-11.684 11.685-11.684c6.443 0 11.685 5.241 11.685 11.684s-5.242 11.684-11.685 11.684z"></path>
<path d="M11.437 25.195c-2.902-1.646-4.704-4.738-4.704-8.068 0-0.246-0.199-0.445-0.444-0.445s-0.444 0.198-0.444 0.445c0 3.65 1.976 7.038 5.155 8.842 0.103 0.058 0.224 0.073 0.338 0.042s0.21-0.107 0.268-0.209c0.058-0.103 0.073-0.224 0.042-0.338s-0.107-0.21-0.209-0.268z"></path>
<path d="M13.861 26.414c-0.172-0.045-0.343-0.094-0.512-0.148-0.112-0.033-0.232-0.022-0.335 0.033s-0.181 0.147-0.216 0.258-0.026 0.231 0.027 0.335c0.052 0.104 0.144 0.183 0.254 0.221 0.185 0.059 0.371 0.113 0.56 0.161 0.114 0.029 0.235 0.012 0.337-0.048s0.175-0.158 0.205-0.272c0.015-0.056 0.018-0.115 0.010-0.173s-0.028-0.113-0.057-0.163c-0.030-0.050-0.069-0.094-0.116-0.129s-0.1-0.060-0.156-0.075z"></path>
<path d="M27.47 8.332c0.167 0.166 0.393 0.26 0.629 0.259s0.462-0.094 0.628-0.261c0.167-0.167 0.26-0.393 0.259-0.629s-0.094-0.462-0.261-0.628l-2.308-2.302c-0.083-0.082-0.181-0.148-0.289-0.192s-0.224-0.067-0.34-0.067c-0.117 0-0.232 0.023-0.34 0.068s-0.206 0.111-0.288 0.193c-0.166 0.167-0.26 0.393-0.259 0.629s0.094 0.462 0.261 0.628l2.308 2.302z"></path>
<path d="M16.836 16.962v-7.106c0-0.236-0.094-0.462-0.26-0.629s-0.393-0.26-0.629-0.26c-0.236 0-0.462 0.094-0.629 0.26s-0.26 0.393-0.26 0.629v7.49c0 0.245 0.128 0.478 0.305 0.646l2.601 2.431c0.172 0.162 0.391 0.243 0.61 0.243 0.119 0 0.237-0.025 0.346-0.073s0.207-0.118 0.287-0.207c0.338-0.357 0.308-0.92-0.049-1.256l-2.323-2.168z"></path>
</symbol>
</defs>
</svg>
